<?xml version="1.0" encoding="UTF-8"?>
<svg width="1016px" height="784px" viewBox="0 0 1016 784" version="1.1" xmlns="http://www.w3.org/2000/svg" xmlns:xlink="http://www.w3.org/1999/xlink">
    <!-- Generator: Sketch 52.6 (67491) - http://www.bohemiancoding.com/sketch -->
    <title>undraw_online_shopping_ga73 (2)</title>
    <desc>Created with Sketch.</desc>
    <defs>
        <linearGradient x1="50%" y1="100%" x2="50%" y2="0%" id="linearGradient-1">
            <stop stop-color="#808080" stop-opacity="0.25" offset="0%"></stop>
            <stop stop-color="#808080" stop-opacity="0.12" offset="54%"></stop>
            <stop stop-color="#808080" stop-opacity="0.1" offset="100%"></stop>
        </linearGradient>
        <linearGradient x1="49.9926606%" y1="100.016254%" x2="49.9926606%" y2="-0.0618055991%" id="linearGradient-2">
            <stop stop-color="#808080" stop-opacity="0.25" offset="0%"></stop>
            <stop stop-color="#808080" stop-opacity="0.12" offset="54%"></stop>
            <stop stop-color="#808080" stop-opacity="0.1" offset="100%"></stop>
        </linearGradient>
    </defs>
    <g id="Page-1" stroke="none" stroke-width="1" fill="none" fill-rule="evenodd">
        <g id="undraw_online_shopping_ga73-(2)">
            <path d="M637.08,126.32 C594.8,153.06 539.96,151.32 491.91,137.42 C443.86,123.52 399.71,98.73 352.91,81.12 C313.597808,66.3486796 272.552615,56.6830793 230.78,52.36 C171.11,46.19 104.48,53.7 62.9,96.93 C16.6,145.08 20.15,231.93 70.23,276.11 C95.7,298.59 129.06,309.62 158.15,327.17 C187.24,344.72 214.15,373.87 211.68,407.75 C209.39,439.11 182.73,463.18 155.14,478.28 C133.81,489.95 107.54,502.69 104.97,526.86 C102.49,550.25 124.57,568.58 145.66,579 C214.46,613 299.22,612.67 367.75,578.14 C392.2,565.82 414.68,549.44 440.32,539.84 C507.65,514.63 581.83,540.01 653.12,549.29 C713.653779,557.127821 775.135185,553.082277 834.12,537.38 C869.42,527.96 904.86,513.56 929.66,486.73 C947.54,467.38 958.66,442.9 969.15,418.73 C980.303333,392.943333 991.023333,366.976667 1001.31,340.83 C1007.49,325.13 1013.57,309.13 1015.16,292.33 C1018.05,261.9 1005.88,231.82 989.29,206.13 C949.89,145.14 883.58,102.26 811.78,91.37 C739.98,80.48 663.99,101.77 608.29,148.3" id="Path" fill="#0A3B59" opacity="0.1"></path>
            <ellipse id="Oval" fill="#0A3B59" opacity="0.1" cx="135.74" cy="756.99" rx="135.74" ry="26.54"></ellipse>
            <ellipse id="Oval" fill="#0A3B59" opacity="0.1" cx="538.99" cy="701.56" rx="284.54" ry="26.54"></ellipse>
            <path d="M732.13,512.6 C732.13,512.6 772.02,441.94 832.13,421.6 C857.34,413.05 879.35,396.98 894.4,375.02 C901.522281,364.580208 907.674584,353.510748 912.78,341.95" id="Path" stroke="#535461" stroke-width="2"></path>
            <path d="M950.51,328.89 C943.66,335.53 911.78,342.4 911.78,342.4 C911.78,342.4 919.61,310.75 926.45,304.1 C933.295569,297.456014 944.231014,297.619431 950.875,304.465 C957.518986,311.310569 957.355569,322.246014 950.51,328.89 Z" id="Path" fill="#0A3B59"></path>
            <path d="M932.48,386.18 C923.12,388.03 892.63,376.47 892.63,376.47 C892.63,376.47 916.4,354.15 925.75,352.29 C931.865398,350.936253 938.234579,352.997695 942.397017,357.677956 C946.559455,362.358217 947.863406,368.924473 945.805131,374.840065 C943.746857,380.755658 938.648636,385.094339 932.48,386.18 Z" id="Path" fill="#0A3B59"></path>
            <path d="M866.78,448.17 C857.78,445.05 837.28,419.68 837.28,419.68 C837.28,419.68 869.07,412.4 878.08,415.52 C884.054305,417.429187 888.525073,422.42565 889.761081,428.574601 C890.99709,434.723551 888.804259,441.059473 884.031723,445.128897 C879.259187,449.19832 872.656335,450.362259 866.78,448.17 Z" id="Path" fill="#0A3B59"></path>
            <path d="M806.57,483.88 C797.16,482.33 772.68,460.77 772.68,460.77 C772.68,460.77 802.78,448.23 812.19,449.77 C818.277806,450.773916 823.367587,454.949379 825.542073,460.723531 C827.716559,466.497684 826.645393,472.993295 822.732073,477.763532 C818.818753,482.533768 812.657806,484.853917 806.57,483.85 L806.57,483.88 Z" id="Path" fill="#0A3B59"></path>
            <path d="M866.04,351.77 C866.04,361.31 883.3,388.98 883.3,388.98 C883.3,388.98 900.58,361.32 900.59,351.78 C900.364332,342.401174 892.69654,334.915662 883.315,334.915662 C873.93346,334.915662 866.265668,342.401174 866.04,351.78 L866.04,351.77 Z" id="Path" fill="#0A3B59"></path>
            <path d="M796.12,394.4 C798.97,403.5 823.71,424.74 823.71,424.74 C823.71,424.74 831.93,393.18 829.08,384.08 C826.230211,374.967302 816.532698,369.890211 807.42,372.74 C798.307302,375.589789 793.230211,385.287302 796.08,394.4 L796.12,394.4 Z" id="Path" fill="#0A3B59"></path>
            <path d="M733.84,445.19 C735.11,454.65 755.92,479.76 755.92,479.76 C755.92,479.76 769.35,450.05 768.08,440.59 C766.809745,431.134885 758.115115,424.499745 748.66,425.77 C739.204885,427.040255 732.569745,435.734885 733.84,445.19 Z" id="Path" fill="#0A3B59"></path>
            <path d="M950.51,328.89 C943.66,335.53 911.78,342.4 911.78,342.4 C911.78,342.4 919.61,310.75 926.45,304.1 C933.295569,297.456014 944.231014,297.619431 950.875,304.465 C957.518986,311.310569 957.355569,322.246014 950.51,328.89 Z" id="Path" fill="#00B5D9" opacity="0.692824591"></path>
            <path d="M892.63,376.47 C892.63,376.47 916.4,354.15 925.75,352.29 C931.865398,350.936253 938.234579,352.997695 942.397017,357.677956 C946.559455,362.358217 947.863406,368.924473 945.805131,374.840065 C943.746857,380.755658 938.648636,385.094339 932.48,386.18 C923.12,388.03 892.63,376.47 892.63,376.47 Z" id="Path" stroke="#00B5D9" fill="#00B5D9" opacity="0.698869978"></path>
            <path d="M866.78,448.17 C857.78,445.05 837.28,419.68 837.28,419.68 C837.28,419.68 869.07,412.4 878.08,415.52 C884.054305,417.429187 888.525073,422.42565 889.761081,428.574601 C890.99709,434.723551 888.804259,441.059473 884.031723,445.128897 C879.259187,449.19832 872.656335,450.362259 866.78,448.17 Z" id="Path" fill="#00B5D9" opacity="0.692824591"></path>
            <path d="M806.57,483.88 C797.16,482.33 772.68,460.77 772.68,460.77 C772.68,460.77 802.78,448.23 812.19,449.77 C818.277806,450.773916 823.367587,454.949379 825.542073,460.723531 C827.716559,466.497684 826.645393,472.993295 822.732073,477.763532 C818.818753,482.533768 812.657806,484.853917 806.57,483.85 L806.57,483.88 Z" id="Path" fill="#00B5D9" opacity="0.692824591"></path>
            <path d="M866.04,351.77 C866.04,361.31 883.3,388.98 883.3,388.98 C883.3,388.98 900.58,361.32 900.59,351.78 C900.364332,342.401174 892.69654,334.915662 883.315,334.915662 C873.93346,334.915662 866.265668,342.401174 866.04,351.78 L866.04,351.77 Z" id="Path" fill="#00B5D9" opacity="0.692824591"></path>
            <path d="M796.12,394.4 C798.97,403.5 823.71,424.74 823.71,424.74 C823.71,424.74 831.93,393.18 829.08,384.08 C826.230211,374.967302 816.532698,369.890211 807.42,372.74 C798.307302,375.589789 793.230211,385.287302 796.08,394.4 L796.12,394.4 Z" id="Path" fill="#00B5D9" opacity="0.692824591"></path>
            <path d="M733.84,445.19 C735.11,454.65 755.92,479.76 755.92,479.76 C755.92,479.76 769.35,450.05 768.08,440.59 C766.809745,431.134885 758.115115,424.499745 748.66,425.77 C739.204885,427.040255 732.569745,435.734885 733.84,445.19 Z" id="Path" fill="#000000" opacity="0.25"></path>
            <path d="M734.43,511.19 C734.43,511.19 742.26,430.43 788.92,387.48 C808.607666,369.584573 821.962109,345.787979 826.98,319.66 C829.259934,307.236688 830.398015,294.630774 830.380211,282" id="Path" stroke="#00B5D9" stroke-width="2"></path>
            <path d="M859.63,254.77 C856.06,263.62 829.7,282.77 829.7,282.77 C829.7,282.77 824.02,250.66 827.59,241.77 C831.423538,233.362439 841.19577,229.461958 849.764975,232.919096 C858.334181,236.376235 862.663945,245.965991 859.59,254.68 L859.63,254.77 Z" id="Path" fill="#00B5D9"></path>
            <path d="M866.35,314.43 C858.55,319.92 825.99,321.71 825.99,321.71 C825.99,321.71 838.68,291.71 846.48,286.18 C854.28035,280.815363 864.945632,282.730592 870.392084,290.474038 C875.838537,298.217484 874.035684,308.902336 866.35,314.43 Z" id="Path" fill="#00B5D9"></path>
            <path d="M831.44,397.71 C821.94,398.51 792.93,383.62 792.93,383.62 C792.93,383.62 819.04,364.09 828.55,363.29 C834.698541,362.773751 840.655442,365.576925 844.176797,370.643593 C847.698152,375.710261 848.248983,382.270676 845.621797,387.853593 C842.994611,393.43651 837.588541,397.193751 831.44,397.71 Z" id="Path" fill="#00B5D9"></path>
            <path d="M790.84,454.77 C781.61,457.16 750.5,447.39 750.5,447.39 C750.5,447.39 772.94,423.72 782.17,421.33 C791.404201,418.935846 800.830846,424.480799 803.225,433.715 C805.619154,442.949201 800.074201,452.375846 790.84,454.77 Z" id="Path" fill="#00B5D9"></path>
            <path d="M791.66,309.87 C795.53,318.59 822.52,336.87 822.52,336.87 C822.52,336.87 827.11,304.59 823.25,295.87 C819.384007,287.146663 809.178338,283.209007 800.455,287.075 C791.731663,290.940994 787.794007,301.146662 791.66,309.87 Z" id="Path" fill="#00B5D9"></path>
            <path d="M745.02,377.21 C751.32,384.37 782.55,393.76 782.55,393.76 C782.55,393.76 777.27,361.58 770.98,354.41 C764.683954,347.230299 753.759702,346.513955 746.580001,352.810001 C739.400299,359.106047 738.683954,370.030298 744.98,377.21 L745.02,377.21 Z" id="Path" fill="#0A3B59"></path>
            <path d="M708.67,448.88 C713.67,457.01 742.86,471.54 742.86,471.54 C742.86,471.54 743.1,438.93 738.11,430.8 C733.117346,422.670368 722.479632,420.127346 714.35,425.12 C706.220368,430.112654 703.677346,440.750368 708.67,448.88 Z" id="Path" fill="#0A3B59"></path>
            <polygon id="Path" fill="url(#linearGradient-1)" points="281.84 0 281.84 27.38 281.84 705.46 789.24 705.46 789.24 27.38 789.24 0"></polygon>
            <rect id="Rectangle" fill="#F6F7F9" x="286.29" y="6.19" width="498.5" height="26.89"></rect>
            <g id="Group" opacity="0.2" transform="translate(286.000000, 6.000000)" fill="#0A3B59">
                <rect id="Rectangle" x="0.29" y="0.19" width="498.5" height="26.89"></rect>
            </g>
            <rect id="Rectangle" fill="#F6F7F9" x="286.29" y="33.08" width="498.5" height="666.19"></rect>
            <circle id="Oval" fill="#F6F7F9" cx="299.4" cy="19.63" r="4.56"></circle>
            <circle id="Oval" fill="#F6F7F9" cx="311.76" cy="19.63" r="4.56"></circle>
            <circle id="Oval" fill="#F6F7F9" cx="324.12" cy="19.63" r="4.56"></circle>
            <g id="Group" opacity="0.2" transform="translate(375.000000, 74.000000)" fill="#00B5D9">
                <rect id="Rectangle" x="0.26" y="0.15" width="320.55" height="12.55"></rect>
            </g>
            <rect id="Rectangle" fill="#00B5D9" x="653.22" y="74.15" width="42.59" height="12.55"></rect>
            <g id="Group" opacity="0.2" transform="translate(329.000000, 330.000000)" fill="#0A3B59">
                <rect id="Rectangle" x="0.32" y="0.62" width="201.72" height="144.49"></rect>
            </g>
            <g id="Group" opacity="0.2" transform="translate(329.000000, 143.000000)" fill="#0A3B59">
                <rect id="Rectangle" x="0.32" y="0.19" width="201.72" height="144.49"></rect>
            </g>
            <g id="Group" opacity="0.2" transform="translate(329.000000, 515.000000)" fill="#0A3B59">
                <rect id="Rectangle" x="0.32" y="0.61" width="201.72" height="144.49"></rect>
            </g>
            <g id="Group" opacity="0.2" transform="translate(540.000000, 330.000000)" fill="#0A3B59">
                <rect id="Rectangle" x="0.04" y="0.62" width="201.72" height="144.49"></rect>
            </g>
            <g id="Group" opacity="0.2" transform="translate(540.000000, 143.000000)" fill="#0A3B59">
                <rect id="Rectangle" x="0.04" y="0.19" width="201.72" height="144.49"></rect>
            </g>
            <g id="Group" opacity="0.2" transform="translate(540.000000, 515.000000)" fill="#0A3B59">
                <rect id="Rectangle" x="0.04" y="0.61" width="201.72" height="144.49"></rect>
            </g>
            <path d="M931.57,634.5 C931.57,634.5 938.71,643.83 928.28,657.91 C917.85,671.99 909.28,683.91 912.73,692.67 C912.73,692.67 928.46,666.51 941.27,666.15 C954.08,665.79 945.66,650.23 931.57,634.5 Z" id="Path" fill="#00B5D9"></path>
            <path d="M931.57,634.5 C932.193168,635.398881 932.684796,636.382137 933.03,637.42 C945.53,652.1 952.18,665.8 940.17,666.15 C928.99,666.47 915.56,686.47 912.35,691.52 C912.455567,691.909986 912.582424,692.293895 912.73,692.67 C912.73,692.67 928.46,666.51 941.27,666.15 C954.08,665.79 945.66,650.23 931.57,634.5 Z" id="Path" fill="#000000" opacity="0.1"></path>
            <path d="M944.84,646.39 C944.84,649.67 944.47,652.33 944.02,652.33 C943.57,652.33 943.19,649.67 943.19,646.39 C943.19,643.11 943.65,644.65 944.11,644.65 C944.57,644.65 944.84,643.1 944.84,646.39 Z" id="Path" fill="#FFD037"></path>
            <path d="M949.39,650.31 C946.51,651.88 943.99,652.83 943.78,652.43 C943.57,652.03 945.72,650.43 948.6,648.86 C951.48,647.29 950.35,648.44 950.6,648.86 C950.85,649.28 952.27,648.77 949.39,650.31 Z" id="Path" fill="#FFD037"></path>
            <path d="M893.89,634.5 C893.89,634.5 886.75,643.83 897.18,657.91 C907.61,671.99 916.18,683.91 912.73,692.67 C912.73,692.67 897,666.51 884.19,666.15 C871.38,665.79 879.78,650.23 893.89,634.5 Z" id="Path" fill="#00B5D9"></path>
            <path d="M893.89,634.5 C893.266832,635.398881 892.775204,636.382137 892.43,637.42 C879.93,652.1 873.28,665.8 885.29,666.15 C896.48,666.47 909.9,686.47 913.11,691.52 C913.008983,691.911338 912.882036,692.29552 912.73,692.67 C912.73,692.67 897,666.51 884.19,666.15 C871.38,665.79 879.78,650.23 893.89,634.5 Z" id="Path" fill="#000000" opacity="0.1"></path>
            <path d="M880.62,646.39 C880.62,649.67 880.99,652.33 881.45,652.33 C881.91,652.33 882.27,649.67 882.27,646.39 C882.27,643.11 881.81,644.65 881.36,644.65 C880.91,644.65 880.62,643.1 880.62,646.39 Z" id="Path" fill="#FFD037"></path>
            <path d="M876.07,650.31 C878.96,651.88 881.47,652.83 881.69,652.43 C881.91,652.03 879.74,650.43 876.86,648.86 C873.98,647.29 875.11,648.44 874.86,648.86 C874.61,649.28 873.19,648.77 876.07,650.31 Z" id="Path" fill="#FFD037"></path>
            <ellipse id="Oval" fill="#0A3B59" opacity="0.1" cx="912.73" cy="752.6" rx="74.6" ry="11.45"></ellipse>
            <path d="M951.13,680.1 L950.77,683.01 L950.27,687.13 L950.06,688.84 L949.56,692.96 L949.34,694.68 L948.84,698.79 L943.13,745.59 C942.62,749.77 935.8,753.02 927.56,753.02 L897.9,753.02 C889.66,753.02 882.9,749.77 882.34,745.59 L876.62,698.77 L876.12,694.66 L875.91,692.94 L875.4,688.82 L875.19,687.11 L874.69,682.99 L874.33,680.08 C874.05,677.77 877.78,675.77 882.4,675.77 L943.07,675.77 C947.72,675.77 951.42,677.77 951.13,680.1 Z" id="Path" fill="#65617D"></path>
            <polygon id="Path" fill="#9D9CB5" points="950.77 683.01 950.27 687.12 875.19 687.12 874.69 683.01"></polygon>
            <polygon id="Path" fill="#9D9CB5" points="950.06 688.84 949.56 692.96 875.91 692.96 875.4 688.84"></polygon>
            <polygon id="Path" fill="#9D9CB5" points="949.34 694.67 948.84 698.79 876.62 698.79 876.12 694.67"></polygon>
            <path d="M591.61,171.11 C591.61,171.11 589.78,166.54 602.12,167.68 C614.46,168.82 649.89,172.76 665.21,169.31 C680.53,165.86 689.66,164.76 688.75,169.31 C687.84,173.86 662.24,184.14 662.24,184.14 L629.09,187.57 L604.64,183.68 L591.51,175.91 L591.61,171.11 Z" id="Path" fill="#0A3B59"></path>
            <path d="M688.78,169.31 C687.86,173.86 662.27,184.14 662.27,184.14 L629.12,187.57 L604.67,183.69 L591.55,175.92 L591.64,171.12 C591.37907,170.309432 591.659988,169.422532 592.34,168.91 C593.47,167.91 596.11,167.13 602.15,167.69 C614.5,168.83 649.92,172.76 665.24,169.31 C677.72,166.5 686.1,165.25 688.24,167.31 C688.778146,167.824239 688.986195,168.594789 688.78,169.31 Z" id="Path" fill="#000000" opacity="0.1"></path>
            <path d="M708.48,238.54 C687.150253,242.646269 667.035294,251.554713 649.66,264.59 C648.780668,262.251025 647.125074,260.284786 644.97,259.02 C643.498345,258.107234 641.891945,257.432276 640.21,257.02 C638.68,256.63 637.21,257.56 635.86,258.9 C634.306983,260.618524 633.004148,262.547528 631.99,264.63 C608.68,248.63 573.32,238.42 573.32,238.42 L573.32,235.22 C573.32,234.59 573.43,233.83 573.55,232.97 C573.67,232.11 573.82,231.35 574.01,230.42 C577.01,215.16 588.87,180.29 588.87,180.29 L592.54,180.29 L602.28,180.29 L628.28,185.69 L657.53,183.9 L686.99,177.77 L690.81,176.97 C697.18,181.97 704.41,216.97 707.25,231.87 C707.61,233.76 707.89,235.32 708.1,236.47 C708.35,237.77 708.48,238.54 708.48,238.54 Z" id="Path" fill="#0A3B59"></path>
            <path d="M578.16,231.93 C578.93,217.28 590.57,185.53 592.54,180.26 L588.87,180.26 C588.87,180.26 576.31,217.26 573.76,231.7 C573.754365,231.73645 573.754365,231.77355 573.76,231.81 C573.69,232.2 573.62,232.58 573.57,232.94 C573.45,233.8 573.37,234.56 573.34,235.19 L573.34,238.39 C573.34,238.39 608.7,248.61 632.01,264.6 C633.024148,262.517528 634.326983,260.588524 635.88,258.87 C626.97,250.77 593.18,237.57 578.16,231.93 Z" id="Path" fill="#0A3B59"></path>
            <path d="M708.1,236.43 C708.01,235.92 707.9,235.33 707.78,234.68 C707.63,233.84 707.45,232.89 707.25,231.83 C704.41,216.91 697.18,181.9 690.81,176.93 L686.99,177.73 C689.31,183.96 704.26,224.64 702.99,232.58 C677.99,237.58 652.65,253.83 644.99,259.02 C647.145074,260.284786 648.800668,262.251025 649.68,264.59 C667.055294,251.554713 687.170253,242.646269 708.5,238.54 C708.5,238.54 708.35,237.77 708.1,236.43 Z" id="Path" fill="#0A3B59"></path>
            <path d="M579.08,231.01 C579.84,216.36 591.49,184.61 593.46,179.35 L589.78,179.35 C589.78,179.35 577.22,216.35 574.67,230.78 C574.67,230.78 574.67,230.86 574.67,230.89 C574.596667,231.29 574.536667,231.67 574.49,232.03 C574.37,232.89 574.29,233.65 574.26,234.28 L574.26,237.48 C574.26,237.48 609.61,247.69 632.93,263.69 C633.936118,261.605288 635.236018,259.675644 636.79,257.96 C627.88,249.88 594.1,236.65 579.08,231.01 Z" id="Path" fill="#000000" opacity="0.1"></path>
            <path d="M578.16,231.93 C578.93,217.28 590.57,185.53 592.54,180.26 L588.87,180.26 C588.87,180.26 576.31,217.26 573.76,231.7 C573.754365,231.73645 573.754365,231.77355 573.76,231.81 C573.69,232.2 573.62,232.58 573.57,232.94 C573.45,233.8 573.37,234.56 573.34,235.19 L573.34,238.39 C573.34,238.39 608.7,248.61 632.01,264.6 C633.024148,262.517528 634.326983,260.588524 635.88,258.87 C626.97,250.77 593.18,237.57 578.16,231.93 Z" id="Path" fill="#0A3B59"></path>
            <path d="M707.19,235.51 L706.87,233.76 C706.71,232.92 706.54,231.98 706.34,230.91 C703.51,216 696.27,180.99 689.9,176.01 L686.09,176.82 C688.41,183.05 703.36,223.73 702.09,231.67 C677.09,236.67 651.74,252.92 644.09,258.1 C646.245766,259.368557 647.901208,261.338144 648.78,263.68 C666.148769,250.637962 686.261321,241.725649 707.59,237.62 C707.59,237.62 707.44,236.87 707.19,235.51 Z" id="Path" fill="#000000" opacity="0.1"></path>
            <path d="M708.1,236.43 C708.01,235.92 707.9,235.33 707.78,234.68 C707.63,233.84 707.45,232.89 707.25,231.83 C704.41,216.91 697.18,181.9 690.81,176.93 L686.99,177.73 C689.31,183.96 704.26,224.64 702.99,232.58 C677.99,237.58 652.65,253.83 644.99,259.02 C647.145074,260.284786 648.800668,262.251025 649.68,264.59 C667.055294,251.554713 687.170253,242.646269 708.5,238.54 C708.5,238.54 708.35,237.77 708.1,236.43 Z" id="Path" fill="#0A3B59"></path>
            <path d="M586.85,198.34 C586.85,198.34 610.05,212.94 615.47,191.56 L620.63,192.94 C620.63,192.94 622.33,216.63 585.31,203.11 L586.85,198.34 Z" id="Path" fill="#000000" opacity="0.1"></path>
            <path d="M586.85,196.51 C586.85,196.51 610.05,211.11 615.47,189.73 L620.63,191.11 C620.63,191.11 622.33,214.8 585.31,201.28 L586.85,196.51 Z" id="Path" fill="#0A3B59"></path>
            <path d="M659.85,192.25 C659.85,192.25 662.85,209.72 694.64,201.25 L693.52,197.95 C693.52,197.95 671.81,206.95 663.94,191.32 L659.85,192.25 Z" id="Path" fill="#000000" opacity="0.1"></path>
            <path d="M659.85,190.42 C659.85,190.42 662.85,207.89 694.64,199.42 L693.52,196.12 C693.52,196.12 671.81,205.12 663.94,189.49 L659.85,190.42 Z" id="Path" fill="#0A3B59"></path>
            <path d="M638.69,192.02 L638.69,228.48 L644.33,228.48 C644.33,228.48 652.13,225.67 651.95,209.28 C651.77,192.89 650.58,188.48 650.58,188.48 L638.69,192.02 Z" id="Path" fill="#000000" opacity="0.1"></path>
            <path d="M637.78,191.11 L637.78,227.57 L643.42,227.57 C643.42,227.57 651.22,224.76 651.04,208.37 C650.86,191.98 649.66,187.57 649.66,187.57 L637.78,191.11 Z" id="Path" fill="#0A3B59"></path>
            <path d="M690.78,178.77 C688.48,183.05 667.6,190.08 663.91,191.29 L663.35,191.47 C663.35,191.47 662.03,191.81 659.82,192.27 C653.1,193.67 638.12,196.27 626.82,193.99 C625.18,193.67 623.48,193.32 621.75,192.99 L617.75,192.12 C604.75,189.23 591.3,185.45 588.91,182.12 C588.91,182.12 589.56,171.25 591.75,171.54 C593.94,171.83 618.39,182.12 618.39,182.12 L618.74,182.17 C619.37,182.25 620.8,182.43 622.81,182.66 C630.75,183.53 647.48,184.91 656.48,182.5 C656.91,182.38 657.31,182.26 657.7,182.12 C658.38,181.89 659.09,181.65 659.82,181.38 C671.4,177.28 688.74,169.94 688.74,169.94 C688.74,169.94 693.32,174.06 690.78,178.77 Z" id="Path" fill="#000000" opacity="0.1"></path>
            <path d="M688.78,169.31 C687.86,173.86 662.27,184.14 662.27,184.14 L629.12,187.57 L604.67,183.69 L591.55,175.92 L591.64,171.12 C591.37907,170.309432 591.659988,169.422532 592.34,168.91 C596.69,170.23 618.34,179.34 618.34,179.34 L618.69,179.39 C619.32,179.47 620.75,179.65 622.76,179.88 C630.7,180.75 647.43,182.13 656.43,179.72 C656.86,179.6 657.26,179.48 657.65,179.34 C658.33,179.12 659.04,178.87 659.77,178.6 C670.24,174.89 685.43,168.53 688.24,167.35 C688.763401,167.856304 688.970247,168.607079 688.78,169.31 Z" id="Path" fill="#000000" opacity="0.1"></path>
            <path d="M690.78,176.93 C688.48,181.21 667.6,188.23 663.91,189.44 L663.35,189.63 C663.35,189.63 662.03,189.96 659.82,190.42 C653.1,191.82 638.12,194.42 626.82,192.14 C625.18,191.82 623.48,191.47 621.75,191.14 L617.75,190.27 C604.75,187.38 591.3,183.6 588.91,180.27 C588.91,180.27 589.56,169.4 591.75,169.7 C593.94,170 618.39,180.27 618.39,180.27 L618.74,180.32 C619.37,180.4 620.8,180.59 622.81,180.81 C630.75,181.68 647.48,183.06 656.48,180.65 C656.91,180.53 657.31,180.41 657.7,180.27 C658.38,180.05 659.09,179.8 659.82,179.53 C671.4,175.43 688.74,168.09 688.74,168.09 C688.74,168.09 693.32,172.24 690.78,176.93 Z" id="Path" fill="#0A3B59"></path>
            <circle id="Oval" fill="#000000" opacity="0.1" cx="642.65" cy="188.48" r="3.66"></circle>
            <circle id="Oval" fill="#0A3B59" cx="642.65" cy="187.56" r="3.66"></circle>
            <path d="M623.68,180.77 L622.68,191.09 L618.68,190.22 L619.68,180.28 C620.24,180.38 621.68,180.57 623.68,180.77 Z" id="Path" fill="#000000" opacity="0.1"></path>
            <path d="M622.78,180.77 L621.78,191.09 L617.78,190.22 L618.78,180.28 C619.33,180.38 620.78,180.57 622.78,180.77 Z" id="Path" fill="#0A3B59"></path>
            <path d="M663.02,189.44 L662.46,189.63 C662.46,189.63 661.15,189.96 658.93,190.42 L655.52,180.63 C655.95,180.51 656.36,180.39 656.75,180.25 C657.43,180.03 658.14,179.78 658.87,179.51 L663.02,189.44 Z" id="Path" fill="#000000" opacity="0.1"></path>
            <path d="M663.94,189.44 L663.38,189.63 C663.38,189.63 662.06,189.96 659.85,190.42 L656.44,180.63 C656.87,180.51 657.27,180.39 657.66,180.25 C658.34,180.03 659.05,179.78 659.78,179.51 L663.94,189.44 Z" id="Path" fill="#0A3B59"></path>
            <g id="Group" opacity="0.5" transform="translate(367.000000, 161.000000)">
                <path d="M39.02,1.77 C43.6987164,1.80058906 48.2852546,3.07405226 52.31,5.46 C52.31,5.46 64.49,6.94 71.13,5.46 C77.77,3.98 81.13,-1.18 82.39,0.29 C83.65,1.76 83.68,15.61 83.68,15.61 L77.96,30.93 L65.04,40.52 L44.56,34.62 L37.78,17.29 L39.02,1.77 Z" id="Path" fill="#0A3B59"></path>
                <path d="M83.68,15.63 L77.96,30.95 L65.04,40.54 L44.56,34.64 L37.78,17.29 L39.07,1.79 L39.37,1.79 C43.9461521,1.90642143 48.4183774,3.17928556 52.37,5.49 C52.37,5.49 64.55,6.97 71.19,5.49 C77.5,4.09 80.82,-0.65 82.19,0.15 C82.2706751,0.187638338 82.3422986,0.242208681 82.4,0.31 C83.68,1.77 83.68,15.63 83.68,15.63 Z" id="Path" fill="#000000" opacity="0.1"></path>
                <path d="M83.68,15.63 L77.96,30.95 L65.04,40.54 L44.56,34.64 L37.78,17.29 L39.07,1.79 L39.37,1.79 C40.51,6.68 45.37,22.12 60.85,23.21 C76.77,24.32 81.29,5.38 82.23,0.16 C82.3106751,0.197638338 82.3822986,0.252208681 82.44,0.32 C83.68,1.77 83.68,15.63 83.68,15.63 Z" id="Path" fill="#000000" opacity="0.1"></path>
                <path d="M39.02,1.77 C39.02,1.77 42.34,23.36 60.8,24.65 C79.26,25.94 82.39,0.29 82.39,0.29 C82.39,0.29 109.15,9.06 115.39,24.7 C121.63,40.34 126.28,52.89 126.28,52.89 C126.28,52.89 124.28,56.39 122.03,56.76 C119.78,57.13 104.5,67.65 104.5,67.65 C104.5,67.65 104.32,97.55 105.98,99.39 C107.64,101.23 107.09,109.17 102.1,108.8 C97.11,108.43 62.61,100.68 33.1,107.14 C33.1,107.14 20.74,111.57 21.1,104.37 C21.46,97.17 22.02,68.94 22.02,68.94 C22.02,68.94 3.38,60.82 2.28,60.82 C1.18,60.82 -1.6,59.36 1.35,54.55 C4.3,49.74 8,33.33 8,33.33 C8,33.33 15.4,9.77 39.02,1.77 Z" id="Path" fill="#0A3B59"></path>
                <path d="M96.41,40.54 C96.41,40.54 101.95,44.6 100.66,47.74 C99.37,50.88 96.41,40.54 96.41,40.54 Z" id="Path" fill="#000000" opacity="0.1"></path>
                <path d="M104.53,44.44 C104.014014,46.2404269 104.014014,48.1495731 104.53,49.95" id="Path" fill="#000000" opacity="0.1"></path>
                <path d="M108.22,54.57 C108.22,54.57 108.96,59.57 106.75,60.1" id="Path" fill="#000000" opacity="0.1"></path>
                <path d="M32.93,39.25 C32.93,39.25 22.6,48.25 26.1,51.8" id="Path" fill="#000000" opacity="0.1"></path>
                <path d="M26.47,61.03 C26.47,61.03 26.3,70.44 29.15,71.18" id="Path" fill="#000000" opacity="0.1"></path>
                <path d="M56.18,92.58 C56.18,92.58 63.18,87.79 65.04,87.97" id="Path" fill="#000000" opacity="0.1"></path>
                <path d="M63.18,97.57 C63.18,97.57 70.76,92.21 72.79,92.57" id="Path" fill="#000000" opacity="0.1"></path>
            </g>
            <g id="Group" opacity="0.5" transform="translate(575.000000, 344.000000)">
                <path d="M19.78,0.42 C19.78,0.42 80.16,3.28 110.18,1.52 L109.52,9.44 L56.4,16.44 L40.68,11.6 L19.78,0.42 Z" id="Path" fill="#0A3B59"></path>
                <path d="M110.22,1.52 L109.56,9.44 L56.45,16.44 L40.72,11.6 L19.78,0.42 C19.78,0.42 21.02,0.49 23.23,0.58 C36.33,1.15 83.5,2.99 109.4,1.58 L110.22,1.52 Z" id="Path" fill="#000000" opacity="0.1"></path>
                <path d="M131.12,114.14 C119.46,121.14 78.99,114.36 78.99,114.36 L67.77,74.36 L55.23,115.05 C37.42,121.43 0.68,112.19 0.68,112.19 L14.98,24.19 L17.45,12.06 L19.78,0.42 L42.44,7.24 C42.44,7.24 49.25,11.86 77.63,10.54 C106.01,9.22 110.18,1.54 110.18,1.54 C111.43,1.9 112.62,6.31 113.82,11.79 C115.56,19.79 117.33,30.05 119.42,33.44 C122.98,39.14 131.12,114.14 131.12,114.14 Z" id="Path" fill="#0A3B59"></path>
                <path d="M113.86,12.65 C88.56,26.54 66.78,26.16 66.78,26.16 C61.39,26.82 17.45,12.93 17.45,12.93 L19.78,1.3 L42.44,8.12 C42.44,8.12 49.25,12.74 77.63,11.42 C106.01,10.1 110.18,2.42 110.18,2.42 C111.47,2.77 112.66,7.17 113.86,12.65 Z" id="Path" fill="#000000" opacity="0.1"></path>
                <path d="M110.22,1.52 L109.56,9.44 L56.45,16.44 L40.72,11.6 L19.78,0.42 C19.78,0.42 21.02,0.49 23.23,0.58 L42.43,6.36 C42.43,6.36 49.24,10.98 77.62,9.66 C99.91,8.66 107.27,3.66 109.4,1.57 L110.22,1.52 Z" id="Path" fill="#000000" opacity="0.1"></path>
                <path d="M113.86,11.77 C88.56,25.66 66.78,25.28 66.78,25.28 C61.39,25.94 17.45,12.05 17.45,12.05 L19.78,0.42 L42.44,7.24 C42.44,7.24 49.25,11.86 77.63,10.54 C106.01,9.22 110.18,1.54 110.18,1.54 C111.47,1.88 112.66,6.29 113.86,11.77 Z" id="Path" fill="#0A3B59"></path>
                <circle id="Oval" fill="#000000" opacity="0.1" cx="71.07" cy="20.87" r="2.31"></circle>
                <circle id="Oval" stroke="#0A3B59" cx="71.07" cy="19.99" r="2.31"></circle>
                <path d="M12.01,61.35 C12.01,61.35 16.08,73.45 18.94,73.23 C21.8,73.01 12.01,61.35 12.01,61.35 Z" id="Path" fill="#000000" opacity="0.1"></path>
                <path d="M9.37,73.23 C9.37,73.23 11.9,80.49 14.54,81.7" id="Path" fill="#000000" opacity="0.1"></path>
                <path d="M9.37,80.82 C9.37,80.82 13.37,85.88 15.74,87.09" id="Path" fill="#000000" opacity="0.1"></path>
                <path d="M116.78,35.07 C116.78,35.07 120.52,40.68 116.78,41.89" id="Path" fill="#000000" opacity="0.1"></path>
                <path d="M118.48,44.19 C114.14,39.04 116.82,51.19 116.82,51.19 C116.82,51.19 119.59,45.51 118.48,44.19 Z" id="Path" fill="#000000" opacity="0.1"></path>
                <path d="M120.67,50.46 C120.67,50.46 114.07,60.25 115.39,61.35" id="Path" fill="#000000" opacity="0.1"></path>
                <path d="M33.36,35.28 C25.27,35.28 16.83,31.62 16.36,31.4 L16.72,30.59 C16.88,30.67 33.03,37.68 41.77,32.42 C45.07,30.42 46.92,26.9 47.28,21.92 L48.16,21.99 C47.78,27.27 45.78,30.99 42.22,33.17 C39.5135513,34.6660945 36.4502747,35.3956107 33.36,35.28 Z" id="Path" fill="#000000" opacity="0.1"></path>
                <path d="M33.36,34.4 C25.27,34.4 16.83,30.74 16.36,30.52 L16.72,29.72 C16.88,29.79 33.03,36.8 41.77,31.54 C45.07,29.54 46.92,26.02 47.28,21.04 L48.16,21.11 C47.78,26.39 45.78,30.11 42.22,32.29 C39.5135513,33.7860945 36.4502747,34.5156107 33.36,34.4 Z" id="Path" fill="#0A3B59"></path>
                <path d="M99.78,35.94 C97.7081476,35.9696091 95.6566031,35.528527 93.78,34.65 C87.22,31.49 86.16,23.75 86.11,23.42 L86.99,23.31 C86.99,23.39 88.04,30.92 94.17,33.86 C99.63,36.49 107.38,34.86 117.17,28.86 L117.62,29.61 C110.65,33.83 104.68,35.94 99.78,35.94 Z" id="Path" fill="#000000" opacity="0.1"></path>
                <path d="M99.78,35.06 C97.7081476,35.0896091 95.6566031,34.648527 93.78,33.77 C87.22,30.61 86.16,22.87 86.11,22.54 L86.99,22.43 C86.99,22.51 88.04,30.04 94.17,32.98 C99.63,35.61 107.38,33.98 117.17,27.98 L117.62,28.73 C110.65,32.95 104.68,35.06 99.78,35.06 Z" id="Path" fill="#0A3B59"></path>
            </g>
            <path d="M411.12,345.77 C411.12,345.77 422.47,361.62 430.18,360.08 C437.89,358.54 438.65,356.85 445.5,345.77 L451.12,358.7 L444.5,374.7 L436.66,384.85 L420.04,382.24 L414.66,364.08 L411.12,345.77 Z" id="Path" fill="#0A3B59"></path>
            <path d="M451.12,358.69 L444.5,374.69 L436.66,384.84 L420.04,382.23 L414.66,364.07 L411.12,345.77 C411.12,345.77 412.12,347.15 413.68,349.05 C417.49,353.6 424.74,361.16 430.18,360.05 C437.78,358.53 438.63,356.86 445.23,346.19 L445.5,345.74 L451.12,358.69 Z" id="Path" fill="#000000" opacity="0.1"></path>
            <path d="M451.12,358.69 L444.5,374.69 L436.66,384.84 L420.04,382.23 L414.66,364.07 L411.12,345.77 C411.12,345.77 412.12,347.15 413.68,349.05 C416.16,357.05 421.49,369.88 430.18,369.77 C439.99,369.66 443.95,353.41 445.23,346.22 L445.5,345.77 L451.12,358.69 Z" id="Path" fill="#000000" opacity="0.1"></path>
            <path d="M405.12,345.3 C405.12,345.3 401.27,344.84 403.27,349.61 C405.27,354.38 408.96,370.07 407.12,373.3 C405.28,376.53 406.2,385.3 398.2,387 L400.5,396.07 C400.5,396.07 400.96,416.07 400.04,419 C399.12,421.93 398.96,438.07 399.27,439.76 C399.58,441.45 399.43,452.53 398.2,453 C396.97,453.47 396.2,458.84 400.2,459.76 C404.2,460.68 421.27,461.15 424.35,462.07 C427.43,462.99 449.27,462.07 449.27,462.07 C449.27,462.07 458.5,460.84 460.81,460.07 C463.12,459.3 463.58,457.46 462.81,453.92 C462.04,450.38 458.5,424.69 459.27,421.46 C460.04,418.23 460.2,386.69 460.2,386.69 C460.2,386.69 454.2,384.69 454.2,378.84 C454.2,372.99 451.89,357.3 456.66,347.46 C456.66,347.46 452.81,344.82 452.2,345.29 C451.59,345.76 445.78,344.07 445.78,344.07 C445.78,344.07 442.78,370.84 430.23,370.99 C417.68,371.14 412.09,344.07 412.09,344.07 C412.09,344.07 412.2,341.61 405.12,345.3 Z" id="Path" fill="#0A3B59"></path>
            <path d="M423.27,431.15 C423.27,431.15 425.86,437.46 430.18,438.38 C434.5,439.3 423.27,431.15 423.27,431.15 Z" id="Path" fill="#000000" opacity="0.1"></path>
            <path d="M419.27,436.07 C419.27,436.07 427.63,442.84 427.27,444.23" id="Path" fill="#000000" opacity="0.1"></path>
            <path d="M402.5,396.07 C402.5,396.07 409.12,400.53 409.12,403.76" id="Path" fill="#000000" opacity="0.1"></path>
            <path d="M406.96,410.07 C406.96,410.07 405.12,403.61 403.89,402.23" id="Path" fill="#000000" opacity="0.1"></path>
            <path d="M403.89,412.53 C403.89,412.53 406.66,418.07 406.96,419.61" id="Path" fill="#000000" opacity="0.1"></path>
            <path d="M457.58,401.3 C457.58,401.3 448.97,403.92 449.73,407.15" id="Path" fill="#000000" opacity="0.1"></path>
            <path d="M449.69,431.15 C449.69,431.15 460.97,418.07 457.58,418.38 C454.19,418.69 449.69,431.15 449.69,431.15 Z" id="Path" fill="#000000" opacity="0.1"></path>
            <g id="Group" opacity="0.1" transform="translate(397.000000, 343.000000)" fill="#000000">
                <path d="M57.19,35.84 C57.19,33.14 56.7,28.34 56.64,22.99 C56.58,29.13 57.19,34.81 57.19,37.84 C57.19,43.56 62.92,45.59 63.19,45.68 C63.19,44.43 63.19,43.68 63.19,43.68 C63.19,43.68 57.19,41.69 57.19,35.84 Z" id="Path"></path>
                <path d="M65.78,112.92 C65.8974071,113.44498 65.9875279,113.975692 66.05,114.51 C66.1779232,113.306853 66.086441,112.090479 65.78,110.92 C65.12,107.92 62.44,88.66 62.16,81.14 C61.86,86.28 65.08,109.56 65.78,112.92 Z" id="Path"></path>
                <path d="M2.13,92.97 C2.13,87.48 2.44,79.91 3.04,77.97 C3.53,76.41 3.63,70.03 3.62,64.39 C3.62,69.45 3.47,74.59 3.04,75.97 C2.36,78.15 2.1,87.53 2.13,92.97 Z" id="Path"></path>
                <path d="M8.12,4.3 C15.19,0.61 15.04,3.07 15.04,3.07 C15.04,3.07 20.58,30.15 33.18,29.99 C45.78,29.83 48.78,3.07 48.78,3.07 C48.78,3.07 54.63,4.76 55.24,4.29 C55.85,3.82 57.9,5.29 59.03,6.01 C59.24,5.48 59.46,4.96 59.71,4.46 C59.71,4.46 55.86,1.82 55.24,2.29 C54.62,2.76 48.78,1.07 48.78,1.07 C48.78,1.07 45.78,27.84 33.23,27.99 C20.68,28.14 15.09,1.07 15.09,1.07 C15.09,1.07 15.24,-1.39 8.17,2.3 C8.17,2.3 5.04,1.94 5.91,5.39 C6.41,4.1 8.12,4.3 8.12,4.3 Z" id="Path"></path>
                <path d="M1.19,112 C2.19,111.63 2.46,104.78 2.4,101 C2.35,104.8 2,109.69 1.19,110 C0.38,110.31 -0.01,112 0.3,113.63 C0.46,112.77 0.78,112.14 1.19,112 Z" id="Path"></path>
                <path d="M10.12,32.3 C10.6087409,30.988648 10.7700748,29.5778346 10.59,28.19 C10.5808171,28.9182541 10.4207842,29.6366997 10.12,30.3 C8.27,33.53 9.19,42.3 1.19,44 L1.67,45.88 C9.15,43.94 8.31,35.47 10.12,32.3 Z" id="Path"></path>
            </g>
            <path d="M451.56,533.41 C447.78,540.29 409.41,533.41 409.41,533.41 L409.51,532.72 L410.27,527.39 L450.7,527.39 L451.47,532.71 L451.56,533.41 Z" id="Path" fill="#0A3B59"></path>
            <path d="M451.56,533.41 C447.78,540.29 409.41,533.41 409.41,533.41 L409.51,532.72 C411.35,532.72 439.11,532.06 451.51,532.72 L451.56,533.41 Z" id="Path" fill="#000000" opacity="0.1"></path>
            <path d="M409.41,533.41 C409.41,533.41 402.53,535.13 391.86,564.03 C381.19,592.93 377.41,630.27 377.41,630.27 C377.41,630.27 371.41,640.43 397.02,641.11 C397.02,641.11 394.96,647.82 409.41,646.79 C423.86,645.76 421.78,645.77 421.78,645.77 C421.78,645.77 431.07,639.92 435.2,640.95 C439.33,641.98 441.91,642.33 446.38,646.11 C450.85,649.89 465.14,648.35 465.31,645.43 C465.42485,643.995629 465.42485,642.554371 465.31,641.12 C465.31,641.12 487.16,642.5 483.03,626.67 C478.9,610.84 475.46,584.86 475.46,584.86 C475.46,584.86 464.28,534.11 451.54,533.42 C438.8,532.73 409.41,533.41 409.41,533.41 Z" id="Path" fill="#0A3B59"></path>
            <rect id="Rectangle" fill="#000000" opacity="0.1" transform="translate(401.102558, 597.290037) rotate(-84.730000) translate(-401.102558, -597.290037) " x="357.042558" y="596.945037" width="88.12" height="1"></rect>
            <rect id="Rectangle" fill="#000000" opacity="0.1" transform="translate(421.934475, 599.514536) rotate(-89.780000) translate(-421.934475, -599.514536) " x="375.739475" y="599.169536" width="92.39" height="1"></rect>
            <rect id="Rectangle" fill="#000000" opacity="0.1" transform="translate(444.738403, 599.680274) rotate(-2.130000) translate(-444.738403, -599.680274) " x="444.393403" y="553.280274" width="1" height="92.8"></rect>
            <path d="M464.98,641.12 C463.78,588.27 454.78,552.09 454.67,551.77 L455.34,551.6 C455.43,551.96 464.48,588.21 465.67,641.15 L464.98,641.12 Z" id="Path" fill="#000000" opacity="0.1"></path>
            <path d="M410.61,538.57 C410.61,538.57 409.41,539.26 410.61,542.57" id="Path" fill="#000000" opacity="0.1"></path>
            <path d="M414.06,538.57 C414.06,538.57 410.79,540.63 414.06,544.08" id="Path" fill="#000000" opacity="0.1"></path>
            <path d="M444.68,538.57 C444.68,538.57 449.15,542.87 448.12,544.08" id="Path" fill="#000000" opacity="0.1"></path>
            <path d="M448.28,537.54 C448.28,537.54 448.98,542.7 451.56,544.08" id="Path" fill="#000000" opacity="0.1"></path>
            <g id="Group" opacity="0.5" transform="translate(601.000000, 526.000000)">
                <path d="M29.9,3.29 C29.9,3.29 46.78,-3.43 54.08,4.77 C61.38,12.97 49.08,22.95 49.08,22.95 L43.92,33.25 L31.78,31.92 L28.92,17.68 L29.9,3.29 Z" id="Path" fill="#0A3B59"></path>
                <path d="M49.08,22.9 L43.92,33.2 L31.78,31.91 L28.92,17.68 L29.92,3.29 L30.19,3.19 C32.33,2.4 46.78,-2.64 53.69,4.3 C53.8342491,4.43239212 53.9711217,4.57260307 54.1,4.72 C61.38,12.88 49.08,22.9 49.08,22.9 Z" id="Path" fill="#000000" opacity="0.1"></path>
                <path d="M49.08,22.9 L43.92,33.2 L31.78,31.91 L28.92,17.68 L29.92,3.29 L30.19,3.19 C32.28,14.64 37.86,19.47 38.8,20.19 L38.94,20.29 L42.37,20.01 C49.04,16.33 52.56,7.58 53.69,4.27 C53.8342491,4.40239212 53.9711217,4.54260307 54.1,4.69 C61.38,12.88 49.08,22.9 49.08,22.9 Z" id="Path" fill="#000000" opacity="0.1"></path>
                <path d="M78.56,62.12 C78.56,62.12 74.84,109.5 75.85,115.22 C76.86,120.94 73.7,121.37 73.7,121.37 C73.7,121.37 60.24,124.37 57.7,122.37 C55.16,120.37 50.83,119.98 50.83,119.98 C50.83,119.98 40.83,122.27 36.37,120.56 C31.91,118.85 24.49,119.56 24.49,119.56 C24.49,119.56 18.77,123 17.19,122.28 C15.61,121.56 13.61,121.85 9.03,120.57 C4.45,119.29 1.87,118.13 4.3,110.26 C6.73,102.39 4.6,77.48 4.45,74.47 C4.3,71.46 2.88,64.17 0.87,55.47 C-1.14,46.77 4.3,48.6 4.3,48.6 C17.05,42.02 11.75,29.13 9.75,23.41 C7.75,17.69 10.89,17.41 12.46,17.41 C14.03,17.41 20.05,12.26 20.05,12.26 L22.49,10.07 L29.93,3.39 C31.78,15.9 37.78,21.15 38.78,21.93 L38.92,22.04 L42.35,21.75 C50.65,17.18 54.08,4.75 54.08,4.75 C55.08,6.45 57.31,8.39 59.8,10.19 C63.0585397,12.4951486 66.4548662,14.5990677 69.97,16.49 C75.97,20.07 71.55,23.65 71.55,23.65 C64.25,48.55 74.55,49.65 74.55,49.65 C82.14,50.77 78.56,62.12 78.56,62.12 Z" id="Path" fill="#0A3B59"></path>
                <path d="M22.31,17.46 C22.31,17.46 20.16,18.61 20.16,19.89" id="Path" fill="#000000" opacity="0.1"></path>
                <path d="M23.6,19.89 C23.6,19.89 20.74,22.89 21.24,23.76" id="Path" fill="#000000" opacity="0.1"></path>
                <path d="M23.6,23.77 C23.6,23.77 21.45,26.06 22.31,27.35" id="Path" fill="#000000" opacity="0.1"></path>
                <path d="M37.92,23.65 L28.92,32.34 C28.59,22.68 23.92,14.95 21.62,11.69 L29.06,5.01 C30.88,17.62 36.93,22.87 37.92,23.65 Z" id="Path" fill="#000000" opacity="0.1"></path>
                <path d="M38.78,21.93 L29.78,30.63 C29.46,20.96 24.78,13.24 22.49,9.97 L29.93,3.29 C31.78,15.9 37.78,21.15 38.78,21.93 Z" id="Path" fill="#0A3B59"></path>
                <path d="M60.66,11.88 C57.06,17.5 50.37,32.34 50.37,32.34 L43.21,23.47 C51.51,18.89 54.94,6.47 54.94,6.47 C55.94,8.13 58.17,10.07 60.66,11.88 Z" id="Path" fill="#000000" opacity="0.1"></path>
                <path d="M59.78,10.16 C56.19,15.79 49.49,30.63 49.49,30.63 L42.35,21.77 C50.65,17.2 54.08,4.77 54.08,4.77 C55.08,6.42 57.31,8.36 59.78,10.16 Z" id="Path" fill="#0A3B59"></path>
                <path d="M54.52,101.91 C54.52,101.91 52.99,114.91 52.11,115.65" id="Path" fill="#000000" opacity="0.1"></path>
                <path d="M67.11,104.2 C67.11,104.2 68.83,113.5 68.11,115.65" id="Path" fill="#000000" opacity="0.1"></path>
                <path d="M30.47,104.77 C30.47,104.77 28.9,113.5 30.47,114.5" id="Path" fill="#000000" opacity="0.1"></path>
                <path d="M21.18,103.48 C21.18,103.48 19.88,113.79 20.18,115.65" id="Path" fill="#000000" opacity="0.1"></path>
                <path d="M69.26,53.24 C69.26,53.24 65.26,56.39 65.54,57.24" id="Path" fill="#000000" opacity="0.1"></path>
                <path d="M72.12,55.25 C72.12,55.25 64.46,61.69 68.29,60.97 C72.12,60.25 72.12,55.25 72.12,55.25 Z" id="Path" fill="#000000" opacity="0.1"></path>
            </g>
            <path d="M248.78,396.77 L248.83,396.7 L248.74,396.63 L248.2,396.27 L248.31,396.35 C247.507371,395.886031 246.483309,396.111672 245.95,396.87 L245.73,397.18 L233.58,414.66 L231.46,417.77 C225.05,415.84 214.64,423.96 209.37,428.62 C209.04,428.91 208.73,429.18 208.45,429.44 C208.03,428.5 207.78,427.9 207.78,427.9 C207.52,430.76 197.42,435.05 195.06,436.61 C193.987947,437.257895 192.785947,437.660838 191.54,437.79 C191.88,426.92 183.47,415.48 183.47,415.48 L162.92,389.33 C162.163978,384.600765 162.897887,379.753468 165.02,375.46 C165.19,375.12 165.36,374.78 165.55,374.46 L165.65,374.46 C164.87254,376.657109 164.437458,378.960679 164.36,381.29 C164.41,383.06 166.05,391.64 168.36,391.29 C168.826935,391.337685 169.281671,391.121878 169.54,390.73 C171.38,388.59 171.54,384.95 171.45,381.58 C171.418133,382.570509 171.307788,383.556933 171.12,384.53 C171.27,381.73 170.95,378.77 170.95,376.66 C170.95,375.82 170.95,374.99 171.01,374.15 L171.26,374.15 C171.26,374.47 171.26,374.81 171.26,375.15 C171.26,374.8 171.26,374.46 171.26,374.15 L171.52,374.15 C176.129439,373.306432 180.448337,371.303565 184.07,368.33 C185.876295,368.257158 187.577339,367.460694 188.79,366.12 C189.235387,367.60541 188.900624,369.215279 187.9,370.4 C190.65,370.27 192.98,368.13 194.04,365.62 C194.94824,363.056785 195.216014,360.31038 194.82,357.62 C194.424642,354.92809 194.227445,352.210787 194.23,349.49 C194.419556,348.021311 194.499777,346.540572 194.47,345.06 C194.425785,344.607659 194.34553,344.159569 194.23,343.72 L194.31,343.72 C194.842197,343.731073 195.356851,343.52953 195.74,343.16 C196.88,342.28 197.25,340.56 197.54,339.24 C198.329313,336.201942 198.686161,333.067736 198.6,329.93 C198.54,330.88 198.42,331.84 198.28,332.79 C198.53,329.19 198.03,325.69 195.65,323.08 C194.01,321.29 191.72,320.24 189.52,319.19 C188.73327,318.9087 188.040633,318.413465 187.52,317.76 C187.131146,316.98985 186.919317,316.142534 186.9,315.28 C186.13,310.02 181.18,306.36 176.25,304.28 C169.91,301.52 162.25,300.34 156.2,303.62 C153.2,305.21 150.9,307.7 148.2,309.73 C144.82,312.3 140.92,314.1 137.31,316.34 C133.7,318.58 130.31,321.42 128.54,325.28 C125.89,331.28 127.88,338.08 128.21,344.59 C128.74,354.84 124.52,365.59 116.16,371.59 C115.15806,372.20421 114.262981,372.977693 113.51,373.88 C112.757473,374.815734 112.669596,376.121897 113.29,377.15 C113.72,377.71 114.4,378.03 114.87,378.56 C115.82,379.64 115.63,381.29 115.26,382.67 C114.045779,387.185152 111.626034,391.28489 108.26,394.53 C108.41,395.59 109.72,396.01 110.79,396.17 C113.620904,396.586383 116.47864,396.793611 119.34,396.79 L120.57,396.79 C120.44,397.12 120.3,397.47 120.16,397.84 C118.61,401.92 116.6,408.2 117.27,412.04 C118.27,418.1 121.47,445.81 119.89,450.67 C118.31,455.53 122.43,490.77 122.43,490.77 C122.43,490.77 122.98,493.49 123.93,497.55 C121.46,503.37 118.64,509.83 117.23,512.42 C114.39,517.61 115.79,544.11 125.58,555.89 C125.58,555.89 129.58,561.61 128.58,563.68 C127.58,565.75 128.76,569.4 128.76,569.4 L130.31,603.69 C130.276829,607.194473 130.036409,610.693917 129.59,614.17 C125.41,619.34 118.97,626.88 115.94,628.11 C111.25,630.02 76.27,672.45 76.27,672.45 C76.27,672.45 76.55,672.96 77.1,673.79 L76.1,674.93 L69.39,682.71 L68.86,683.32 C67.6,683.08 59.21,681.56 52.56,681.08 L51.9,681.08 L51.9,680.96 C49.5693776,680.693011 47.2127078,680.756978 44.9,681.15 C44.462517,681.230915 44.0588422,681.439713 43.74,681.75 C41.47,684.53 40.25,728.17 40.25,728.17 C40.25,728.17 42.67,750.02 50.25,751.24 C50.6363978,751.374261 51.0411039,751.448457 51.45,751.46 L51.78,751.46 C57.18,751.06 59.66,747.97 60.78,745.85 C61.1112938,745.216712 61.3631963,744.544972 61.53,743.85 C61.53,743.85 60.65,739.96 63.01,734.59 C65.37,729.22 69.78,719.77 69.78,719.77 C69.78,719.77 77.78,711.36 76.35,707.28 C76.57,706.95 76.83,706.59 77.11,706.18 C80.11,701.9 86.19,693.45 91.11,687.81 C91.43,687.43 91.75,687.08 92.11,686.73 C93.8997786,687.485466 95.7728709,688.02591 97.69,688.34 C97.69,688.34 105.21,685.4 108,678.82 C109.19,676.02 113.86,671.06 118.83,666.29 L118.67,667.56 L118.5,709.3 C120.116167,710.409957 121.837827,711.357875 123.64,712.13 L123.64,713.13 C123.675198,719.077396 123.3144,725.020539 122.56,730.92 L122.41,731.85 C121.79,731.41 121.25,731.26 120.91,731.6 C119.37,733.16 118.41,743.12 118.32,747.71 C118.32,747.86 118.32,748.01 118.32,748.17 C118.07,752.75 115.46,759.41 123.32,759.75 C129.2,760 154.55,760.38 168.11,760.58 C175.415547,760.718246 182.522715,758.198755 188.11,753.49 C192.42,749.8 195.03,745.41 189.16,742.18 C188.8,741.98 188.42,741.79 188,741.6 L175,739.6 L152.79,728.26 C152.79,728.26 152.66,721.4 149.99,722.54 C149.196773,722.712932 148.436886,723.01351 147.74,723.43 C147.61,723.18 147.47,722.91 147.34,722.63 C145.531044,719.045485 144.592337,715.085098 144.6,711.07 C144.6,710.71 144.6,710.34 144.65,709.97 C145.300433,709.377214 145.914862,708.746089 146.49,708.08 C146.49,708.08 146.32,692.49 148.07,689.55 C149.82,686.61 155.24,656.81 155.24,656.81 C155.24,656.81 155.41,651.27 158.91,647.98 C162.41,644.69 161.18,635.16 161.18,635.16 C161.18,635.16 166.08,632.56 167.65,624.08 C169.22,615.6 174.3,597.08 174.3,597.08 C174.3,597.08 184.79,569.71 184.1,552.4 C183.41,535.09 185.1,526.07 185.1,526.07 L187.28,485.83 L187.28,485.21 C188.15,485.87 188.74,486.41 188.74,486.41 C188.74,486.41 188.74,486.25 188.74,485.97 C189.06,486.24 189.24,486.41 189.24,486.41 C189.24,486.41 190.36,468.15 189.98,460.91 C196.1,458.83 205.42,455.41 205.98,453.67 C206.76,451.08 217.26,442.89 217.26,442.89 C217.032897,442.853101 216.815367,442.771527 216.62,442.65 C216.95,442.5 217.29,442.32 217.62,442.13 C224.5,438.45 237.28,427.69 235.13,421.13 L249.13,401.04 C250.033645,399.711898 249.887853,397.933225 248.78,396.77 Z" id="Path" fill="url(#linearGradient-2)"></path>
            <path d="M216.21,445.29 C215.188284,445.93066 214.049651,446.36232 212.86,446.56 C208.49,446.69 204.86,434.86 204.86,434.86 C204.86,434.86 206.1,433.6 208.08,431.86 C213.94,426.65 226.23,417.03 231.99,422.41 C238.49,428.42 223.78,441.22 216.21,445.29 Z" id="Path" fill="#ECB4B6"></path>
            <path d="M149.78,727.42 L133.65,744.83 C133.65,744.83 118.73,745 121.65,736.77 C122.233344,734.986006 122.648486,733.151343 122.89,731.29 C123.625005,725.445954 123.975758,719.559977 123.94,713.67 C123.94,709.81 123.88,707.1 123.88,707.1 C123.88,707.1 147.37,696.81 144.97,707.53 C144.671419,708.870096 144.510583,710.237199 144.49,711.61 C144.480551,715.58317 145.398207,719.50375 147.17,723.06 C147.895039,724.595342 148.769242,726.055696 149.78,727.42 Z" id="Path" fill="#ECB4B6"></path>
            <path d="M149.78,727.42 L133.65,744.83 C133.65,744.83 118.73,745 121.65,736.77 C122.233344,734.986006 122.648486,733.151343 122.89,731.29 C125.02,732.94 128.08,737.8 128.08,737.8 C128.08,737.8 138.37,740.8 141.2,731.8 C142.78,726.8 145.28,724.27 147.2,723.06 C147.915509,724.594123 148.779639,726.054436 149.78,727.42 Z" id="Path" fill="#000000" opacity="0.1"></path>
            <path d="M187.2,753.64 C181.731183,758.299252 174.742903,760.789983 167.56,760.64 C154.26,760.45 129.41,760.06 123.64,759.82 C115.92,759.48 118.48,752.89 118.73,748.35 C118.73,748.19 118.73,748.05 118.73,747.9 C118.82,743.35 119.73,733.49 121.27,731.95 C122.81,730.41 128.08,738.81 128.08,738.81 C128.08,738.81 138.37,741.81 141.2,732.81 C144.03,723.81 149.78,722.94 149.78,722.94 C152.39,721.81 152.52,728.6 152.52,728.6 L174.3,739.83 L187.08,741.83 C187.49,742.02 187.86,742.21 188.21,742.4 C193.99,745.64 191.43,749.98 187.2,753.64 Z" id="Path" fill="#C17174"></path>
            <circle id="Oval" fill="#FFFFFF" opacity="0.25" cx="146.96" cy="735.39" r="1"></circle>
            <circle id="Oval" fill="#FFFFFF" opacity="0.25" cx="155.8" cy="739.77" r="1"></circle>
            <circle id="Oval" fill="#FFFFFF" opacity="0.25" cx="160.34" cy="741.8" r="1"></circle>
            <circle id="Oval" fill="#FFFFFF" opacity="0.25" cx="169.77" cy="745.42" r="1"></circle>
            <circle id="Oval" fill="#FFFFFF" opacity="0.25" cx="164.97" cy="743.88" r="1"></circle>
            <path d="M187.2,753.64 C181.731183,758.299252 174.742903,760.789983 167.56,760.64 C154.26,760.45 129.41,760.06 123.64,759.82 C115.92,759.48 118.48,752.89 118.73,748.35 L167.2,751.35 C167.2,751.35 187.05,748.35 188.2,742.43 C193.99,745.64 191.43,749.98 187.2,753.64 Z" id="Path" fill="#C17174"></path>
            <path d="M187.2,753.64 C181.731183,758.299252 174.742903,760.789983 167.56,760.64 C154.26,760.45 129.41,760.06 123.64,759.82 C115.92,759.48 118.48,752.89 118.73,748.35 L167.2,751.35 C167.2,751.35 187.05,748.35 188.2,742.43 C193.99,745.64 191.43,749.98 187.2,753.64 Z" id="Path" fill="#FFFFFF" opacity="0.25"></path>
            <path d="M96.97,683.69 C95.1865024,685.145219 93.5578824,686.780541 92.11,688.57 C87.3,694.15 81.35,702.57 78.4,706.75 C77.26,708.39 76.57,709.42 76.57,709.42 L70.13,708.47 C70.13,708.47 63.19,697.84 63.28,697.59 C63.37,697.34 68.78,685.92 68.78,685.92 L70.87,683.47 L77.46,675.77 L80.46,672.29 C80.46,672.29 102.78,679.49 96.97,683.69 Z" id="Path" fill="#ECB4B6"></path>
            <path d="M78.4,706.77 C77.26,708.41 76.57,709.44 76.57,709.44 L70.13,708.49 C70.13,708.49 63.19,697.86 63.28,697.61 C63.37,697.36 68.78,685.92 68.78,685.92 L70.87,683.47 L71.55,683.6 L73.19,683.6 C67.44,689.6 73.61,702.8 73.61,702.8 C73.61,702.8 76.27,703.05 78.4,706.77 Z" id="Path" fill="#000000" opacity="0.1"></path>
            <path d="M71.21,720.21 C71.21,720.21 66.92,729.47 64.6,734.79 C62.28,740.11 63.14,743.96 63.14,743.96 C62.9766556,744.653202 62.7316081,745.324565 62.41,745.96 C60.7344864,749.292363 57.3587929,751.430046 53.63,751.52 L53.21,751.52 C45.39,751.32 42.91,728.62 42.91,728.62 C42.91,728.62 44.11,685.41 46.34,682.62 C46.6466692,682.309449 47.0409617,682.10009 47.47,682.02 C49.745562,681.625486 52.0661544,681.561493 54.36,681.83 C61.43,682.34 70.52,684.08 70.52,684.08 L72.15,684.08 C66.4,690.08 72.57,703.29 72.57,703.29 C72.57,703.29 75.32,703.54 77.46,707.4 C79.6,711.26 71.21,720.21 71.21,720.21 Z" id="Path" fill="#C17174"></path>
            <circle id="Oval" fill="#FFFFFF" opacity="0.25" cx="61.77" cy="707.35" r="1"></circle>
            <circle id="Oval" fill="#FFFFFF" opacity="0.25" cx="61.3" cy="714.84" r="1"></circle>
            <path d="M61.78,745.77 C60.1044864,749.102363 56.7287929,751.240046 53,751.33 L52.59,751.33 C44.77,751.13 42.28,728.43 42.28,728.43 C42.28,728.43 43.48,685.22 45.71,682.43 C46.0166692,682.119449 46.4109617,681.91009 46.84,681.83 C49.115562,681.435486 51.4361544,681.371493 53.73,681.64 C53.6,689.41 53.23,713.96 53.73,716.4 C54.23,718.84 58.66,739.26 61.78,745.77 Z" id="Path" fill="#C17174"></path>
            <path d="M61.78,745.77 C60.1044864,749.102363 56.7287929,751.240046 53,751.33 L52.59,751.33 C44.77,751.13 42.28,728.43 42.28,728.43 C42.28,728.43 43.48,685.22 45.71,682.43 C46.0166692,682.119449 46.4109617,681.91009 46.84,681.83 C49.115562,681.435486 51.4361544,681.371493 53.73,681.64 C53.6,689.41 53.23,713.96 53.73,716.4 C54.23,718.84 58.66,739.26 61.78,745.77 Z" id="Path" fill="#FFFFFF" opacity="0.25"></path>
            <path d="M52.58,751.35 C44.76,751.15 42.27,728.45 42.27,728.45 C42.27,728.45 43.47,685.24 45.7,682.45 C46.0066692,682.139449 46.4009617,681.93009 46.83,681.85 C48.47,684.29 49.91,689.69 48.61,701.57 C46.17,724.08 49.11,725.5 49.11,725.5 C49.11,725.5 52.78,744.63 52.58,751.35 Z" id="Path" fill="#C17174"></path>
            <path d="M52.58,751.35 C44.76,751.15 42.27,728.45 42.27,728.45 C42.27,728.45 43.47,685.24 45.7,682.45 C46.0066692,682.139449 46.4009617,681.93009 46.83,681.85 C48.47,684.29 49.91,689.69 48.61,701.57 C46.17,724.08 49.11,725.5 49.11,725.5 C49.11,725.5 52.78,744.63 52.58,751.35 Z" id="Path" fill="#000000" opacity="0.1"></path>
            <path d="M216.21,445.29 C215.188284,445.93066 214.049651,446.36232 212.86,446.56 C208.49,446.69 204.86,434.86 204.86,434.86 C204.86,434.86 206.1,433.6 208.08,431.86 C209.51,435.06 213.45,443.69 216.21,445.29 Z" id="Path" fill="#000000" opacity="0.1"></path>
            <path d="M188.17,441.03 C188.17,441.03 191.77,441.29 194.08,439.75 C196.39,438.21 206.3,433.96 206.56,431.13 C206.56,431.13 212.47,445.53 215.82,446.05 C215.82,446.05 205.53,454.15 204.76,456.72 C203.99,459.29 183.92,465.6 183.92,465.6 L188.17,441.03 Z" id="Path" fill="#FF748E"></path>
            <path d="M188.17,441.03 C188.17,441.03 191.77,441.29 194.08,439.75 C196.39,438.21 206.3,433.96 206.56,431.13 C206.56,431.13 212.47,445.53 215.82,446.05 C215.82,446.05 205.53,454.15 204.76,456.72 C203.99,459.29 183.92,465.6 183.92,465.6 L188.17,441.03 Z" id="Path" fill="#000000" opacity="0.1"></path>
            <path d="M96.97,683.69 C95.1865024,685.145219 93.5578824,686.780541 92.11,688.57 C84.35,685.32 79.35,678.68 77.45,675.77 L80.45,672.29 C80.45,672.29 102.78,679.49 96.97,683.69 Z" id="Path" fill="#000000" opacity="0.1"></path>
            <path d="M133.67,610.77 C133.67,610.77 121.09,627.58 116.49,629.47 C111.89,631.36 77.6,673.37 77.6,673.37 C77.6,673.37 84.97,686.92 98.52,689.14 C98.52,689.14 105.89,686.23 108.64,679.71 C111.39,673.19 132.99,654.77 132.99,654.77 L133.67,610.77 Z" id="Path" fill="#5E5A6B"></path>
            <path d="M133.67,610.77 C133.67,610.77 121.09,627.58 116.49,629.47 C111.89,631.36 77.6,673.37 77.6,673.37 C77.6,673.37 84.97,686.92 98.52,689.14 C98.52,689.14 105.89,686.23 108.64,679.71 C111.39,673.19 132.99,654.77 132.99,654.77 L133.67,610.77 Z" id="Path" fill="#000000" opacity="0.1"></path>
            <path d="M95.56,667.02 C99.3662109,667.419531 103.203789,667.419531 107.01,667.02 C113.78,666.37 108.68,670.49 95.56,667.02 Z" id="Path" fill="#000000" opacity="0.1"></path>
            <path d="M92.47,671.39 C92.47,671.39 101.47,676.53 104.95,673.96 C108.43,671.39 101.6,676.44 92.47,671.39 Z" id="Path" fill="#000000" opacity="0.1"></path>
            <path d="M144.99,707.53 C144.691419,708.870096 144.530583,710.237199 144.51,711.61 C137.56,717.92 129.19,715.97 123.96,713.67 C123.96,709.81 123.9,707.1 123.9,707.1 C123.9,707.1 147.39,696.77 144.99,707.53 Z" id="Path" fill="#000000" opacity="0.1"></path>
            <path d="M186.66,483.82 L186.41,488.56 L184.27,528.41 C184.27,528.41 182.55,537.33 183.27,554.47 C183.99,571.61 173.63,598.77 173.63,598.77 C173.63,598.77 168.63,617.12 167.11,625.52 C165.59,633.92 160.77,636.52 160.77,636.52 C160.77,636.52 161.97,645.95 158.54,649.21 C155.11,652.47 154.94,657.95 154.94,657.95 C154.94,657.95 149.62,687.45 147.94,690.37 C146.26,693.29 146.39,708.72 146.39,708.72 C135.25,721.92 118.96,709.92 118.96,709.92 L119.13,668.59 C119.13,668.59 123.76,630.52 127.19,625.2 C130.62,619.88 130.62,605.31 130.62,605.31 L129.09,571.31 C129.09,571.31 127.87,567.71 128.92,565.65 C129.97,563.59 125.99,557.94 125.99,557.94 C116.38,546.27 114.99,520.03 117.8,514.94 C120.61,509.85 128.92,489.22 128.92,489.22 L140.39,482.53 L161.12,483.14 L186.66,483.82 Z" id="Path" fill="#5E5A6B"></path>
            <path d="M137.88,685.92 C137.88,685.92 140.59,695.31 142.77,696.34 C144.95,697.37 137.88,685.92 137.88,685.92 Z" id="Path" fill="#000000" opacity="0.1"></path>
            <path d="M141.61,654.67 C141.61,654.67 148.61,660.21 151.61,660.2 C154.61,660.19 141.61,654.67 141.61,654.67 Z" id="Path" fill="#000000" opacity="0.1"></path>
            <path d="M183.92,422.51 L183.92,433.83 L176.45,430.61 L169,427.4 L152.78,411.45 C152.78,411.45 139.95,403.12 133.09,395.53 C129.17,391.2 127.2,387.11 130.65,384.95 C132.32206,383.855066 133.833277,382.53233 135.14,381.02 C138.587777,376.955632 141.585253,372.529829 144.08,367.82 C144.19,367.63 144.3,367.44 144.4,367.25 C147.74,361.12 149.95,355.89 149.95,355.89 C149.95,355.89 159.35,358.89 165.39,363.17 C165.88,363.51 166.34,363.86 166.78,364.22 C170.15,366.98 171.83,370.22 168.72,373.38 C167.921082,374.205958 167.182515,375.088227 166.51,376.02 C166.007784,376.71214 165.546978,377.433402 165.13,378.18 C164.95,378.52 164.77,378.85 164.61,379.18 C162.529194,383.436381 161.809918,388.230384 162.55,392.91 L183.92,422.51 Z" id="Path" fill="#ECB4B6"></path>
            <path d="M182.55,341.77 C182.94,342.45 183.48,343.03 183.84,343.72 C184.446531,345.242612 184.643071,346.897685 184.41,348.52 C184.215066,351.084139 184.383396,353.662959 184.91,356.18 C185.44,358.44 186.43,360.62 186.51,362.94 C186.62,366.21 184.92,369.24 183.28,372.07 C185.080658,372.015242 186.779839,371.223496 187.98,369.88 C188.421103,371.344989 188.098132,372.933555 187.12,374.11 C189.81,373.98 192.12,371.86 193.12,369.38 C194.03253,366.81765 194.297053,364.06936 193.89,361.38 C193.498337,358.71465 193.304474,356.023967 193.31,353.33 C193.496003,351.874447 193.572884,350.407021 193.54,348.94 C193.29,346.03 191.54,343.5 189.78,341.14 L186.3,336.36 C186.058205,335.969219 185.711786,335.653977 185.3,335.45 C182.01,334.05 181.63,340.11 182.55,341.77 Z" id="Path" fill="#464353"></path>
            <path d="M168.78,373.38 C167.981082,374.205958 167.242515,375.088227 166.57,376.02 C166.067784,376.71214 165.606978,377.433402 165.19,378.18 C165.01,378.52 164.83,378.85 164.67,379.18 C156.643595,378.73018 149.235076,374.72716 144.46,368.26 C144.35,368.11 144.24,367.96 144.14,367.8 C144.25,367.61 144.36,367.42 144.46,367.23 C147.8,361.1 150.01,355.87 150.01,355.87 C150.01,355.87 159.41,358.87 165.45,363.15 C165.94,363.49 166.4,363.84 166.84,364.2 C170.17,366.98 171.85,370.18 168.78,373.38 Z" id="Path" fill="#000000" opacity="0.1"></path>
            <path d="M193.16,351.21 C193.163141,364.238145 183.862694,375.410458 171.05,377.77 C169.43323,378.063785 167.793244,378.211049 166.15,378.21 L166.03,378.21 C165.74,378.21 165.44,378.21 165.15,378.21 C150.380897,377.662617 138.796499,365.342762 139.158088,350.567943 C139.519678,335.793123 151.692862,324.054696 166.47106,324.230434 C181.249259,324.406172 193.13986,336.43076 193.15,351.21 L193.16,351.21 Z" id="Path" fill="#ECB4B6"></path>
            <path d="M169.69,417.97 C169.69,417.97 183.29,425.64 179.81,419.17 L162.06,392.93 L182.21,418.82 C182.21,418.82 195.07,436.49 188.04,448.66 C188.04,448.66 187.04,458.78 188.21,461.18 C189.38,463.58 187.87,489.18 187.87,489.18 C187.87,489.18 183.06,484.72 180.49,485.57 C177.92,486.42 159.78,487.94 159.78,487.94 L169.69,417.97 Z" id="Path" fill="#000000" opacity="0.1"></path>
            <path d="M186.66,483.82 L186.41,488.56 C184.78,487.38 182.51,486.06 181,486.56 C178.43,487.42 160.26,488.97 160.26,488.97 L161.09,483.06 L186.66,483.82 Z" id="Path" fill="#000000" opacity="0.1"></path>
            <path d="M170.2,417.97 C170.2,417.97 183.81,425.64 180.32,419.17 L162.57,392.93 L182.72,418.82 C182.72,418.82 195.58,436.49 188.55,448.66 C188.55,448.66 187.55,458.78 188.72,461.18 C189.89,463.58 188.38,489.18 188.38,489.18 C188.38,489.18 183.58,484.72 181.01,485.57 C178.44,486.42 160.26,487.98 160.26,487.98 L170.2,417.97 Z" id="Path" fill="#464353"></path>
            <path d="M177.47,431.12 C176.68,439.37 173.29,449.18 173.29,449.18 C173.29,449.18 170.89,473.53 167.78,480.77 C164.67,488.01 166.06,497.92 164.35,516.27 C163.73,522.88 161.6,527.42 158.73,530.48 C154.01,535.48 147.27,536.57 141.95,536.26 L140.69,536.16 C132.11,535.31 123.88,493.98 123.88,493.98 C123.88,493.98 119.94,458.82 121.48,453.98 C123.02,449.14 119.96,421.77 118.93,415.77 C118.27,411.96 120.24,405.77 121.76,401.71 C122.65,399.37 123.38,397.71 123.38,397.71 C123.38,397.71 126.3,388.45 131.1,383.65 C132.437124,382.277198 134.273634,381.50507 136.19,381.51 C138.446604,381.601579 140.638221,382.291852 142.54,383.51 C142.616996,383.554405 142.690537,383.604547 142.76,383.66 C142.76,383.66 173.98,415.56 176.89,422.93 C177.7,425 177.78,427.94 177.47,431.12 Z" id="Path" fill="#000000" opacity="0.1"></path>
            <path d="M176.45,430.61 C175.65,438.85 172.26,448.66 172.26,448.66 C172.26,448.66 169.86,473.02 166.77,480.22 C163.68,487.42 165.06,497.37 163.34,515.72 C162.72,522.32 160.59,526.86 157.72,529.93 C153,534.93 146.26,536.01 140.94,535.71 L139.68,535.61 C131.1,534.75 122.87,493.42 122.87,493.42 C122.87,493.42 118.93,458.27 120.47,453.47 C122.01,448.67 118.93,421.23 117.9,415.22 C117.24,411.42 119.21,405.22 120.73,401.16 C121.62,398.82 122.35,397.21 122.35,397.21 C122.35,397.21 125.27,387.95 130.07,383.15 C131.403476,381.77305 133.243266,381.003157 135.16,381.02 C137.418375,381.101367 139.612622,381.792468 141.51,383.02 L141.73,383.16 C141.73,383.16 172.95,415.06 175.86,422.43 C176.67,424.48 176.78,427.43 176.45,430.61 Z" id="Path" fill="#FF748E"></path>
            <path d="M141.48,556.15 C141.48,556.15 134.4,562.45 131.96,562.15 C129.52,561.85 141.48,556.15 141.48,556.15 Z" id="Path" fill="#000000" opacity="0.1"></path>
            <path d="M143.36,562.2 C143.36,562.2 135.9,565.66 133.67,566.2 C131.44,566.74 140.48,561.31 143.36,562.2 Z" id="Path" fill="#000000" opacity="0.1"></path>
            <path d="M172.22,467.53 C172.22,467.53 183.28,467.66 184.95,471.13 C186.62,474.6 175.78,466.11 172.22,467.53 Z" id="Path" fill="#000000" opacity="0.1"></path>
            <path d="M170.67,473.57 C170.67,473.57 179.16,475.37 181.73,477.43 C184.3,479.49 170.67,473.57 170.67,473.57 Z" id="Path" fill="#000000" opacity="0.1"></path>
            <path d="M156.4,452.61 C156.4,452.61 155.4,487.46 151.58,491.97 C147.76,496.48 156.4,452.61 156.4,452.61 Z" id="Path" fill="#000000" opacity="0.1"></path>
            <path d="M146.88,551.13 C146.88,551.13 139.78,581.87 154.02,583.77 C168.26,585.67 163.86,548.77 163.86,548.77 L146.88,551.13 Z" id="Path" fill="#000000" opacity="0.1"></path>
            <path d="M146.36,550.62 C146.36,550.62 139.3,581.36 153.51,583.28 C167.72,585.2 163.34,548.28 163.34,548.28 L146.36,550.62 Z" id="Path" fill="#ECB4B6"></path>
            <path d="M192.99,348.23 C192.593881,347.642331 192.25881,347.015748 191.99,346.36 C190.1,342.42 185.24,344.36 181.68,346.23 L179.78,348.68 C178.913026,349.696776 178.183445,350.823087 177.61,352.03 C177.245064,353.010268 176.94115,354.012183 176.7,355.03 C176.21,356.77 175.49,358.43 174.84,360.13 C172.684153,365.78222 171.406025,371.731084 171.05,377.77 C169.43323,378.063785 167.793244,378.211049 166.15,378.21 L166.03,378.21 L166.03,378.09 C166.21,377.41 166.36,376.72 166.5,376.03 C167.244469,372.138932 167.335717,368.151046 166.77,364.23 C166.77,364.14 166.77,364.06 166.77,363.97 C166.64,363.1 166.47,362.22 166.4,361.35 C166.07,361.95 165.75,362.56 165.4,363.18 C163.25,367.18 160.99,371.18 156.93,372.93 C155.28246,373.576793 153.545741,373.967977 151.78,374.09 C149.60025,374.206322 147.440252,374.565204 145.34,375.16 C144.623879,375.355829 143.976389,375.747093 143.47,376.29 C142.904703,377.126364 142.579581,378.101731 142.53,379.11 C142.313262,380.440406 141.97861,381.748896 141.53,383.02 C139.693812,387.76499 136.824421,392.041748 133.13,395.54 L132.2,396.44 C130.616131,398.074417 128.727167,399.382423 126.64,400.29 C124.743741,400.927621 122.749819,401.225524 120.75,401.17 C121.64,398.83 122.37,397.22 122.37,397.22 C122.37,397.22 125.29,387.96 130.09,383.16 C131.423476,381.78305 133.263266,381.013157 135.18,381.03 C138.763042,376.794032 141.868445,372.176169 144.44,367.26 C137.704307,358.120319 137.405909,345.74326 143.693336,336.289605 C149.980763,326.83595 161.510614,322.325611 172.543812,325.003646 C183.57701,327.68168 191.756151,336.975888 193.01,348.26 L192.99,348.23 Z" id="Path" fill="#000000" opacity="0.1"></path>
            <path d="M194.71,327.16 C193.11,325.38 190.86,324.34 188.71,323.31 C187.944554,323.019854 187.271092,322.529436 186.76,321.89 C186.386909,321.125705 186.182297,320.290203 186.16,319.44 C185.41,314.22 180.55,310.61 175.72,308.49 C169.5,305.76 162.03,304.59 156.06,307.83 C153.16,309.41 150.87,311.88 148.25,313.89 C144.93,316.43 141.11,318.21 137.57,320.43 C134.03,322.65 130.65,325.43 128.97,329.29 C126.37,335.19 128.32,341.96 128.65,348.4 C129.16,358.56 125.03,369.17 116.83,375.18 C115.842048,375.785346 114.963091,376.552743 114.23,377.45 C113.496075,378.378603 113.412492,379.664183 114.02,380.68 C114.43,381.24 115.11,381.56 115.56,382.08 C116.5,383.15 116.31,384.78 115.94,386.16 C114.755471,390.618125 112.384757,394.671838 109.08,397.89 C109.22,398.95 110.5,399.36 111.55,399.52 C114.327459,399.933021 117.132008,400.136928 119.94,400.13 C124.377497,400.493767 128.726104,398.740236 131.67,395.4 C136.67,390.7 140.9,384.83 142.03,378.07 C142.088872,377.063496 142.413196,376.090526 142.97,375.25 C143.48362,374.716071 144.128465,374.326406 144.84,374.12 C148.57,372.84 152.84,373.47 156.43,371.89 C161.11,369.89 163.43,364.89 165.88,360.31 C165.96,361.18 166.12,362.06 166.26,362.94 C166.974046,367.64608 166.736009,372.44762 165.56,377.06 C164.89,379.67 163.92,382.27 163.99,384.96 C164.04,386.96 166.07,397.41 168.74,394.28 C171.41,391.15 170.43,384.23 170.43,380.35 C170.43303,373.086263 171.764957,365.884367 174.36,359.1 C175,357.41 175.73,355.74 176.22,354 C176.462405,352.983618 176.762898,351.981973 177.12,351 C177.700693,349.794858 178.433317,348.669035 179.3,347.65 L181.21,345.2 C184.77,343.31 189.63,341.39 191.52,345.33 C192.24,346.84 192.63,348.51 194.52,347.04 C195.63,346.17 195.99,344.46 196.28,343.16 C197.47,337.71 198.45,331.3 194.71,327.16 Z" id="Path" fill="#464353"></path>
            <path d="M158.52,421.57 C157.79,403.1 131.94,399.28 125.91,416.75 C125.861044,416.866827 125.820932,416.987165 125.79,417.11 C121.84,428.94 123.56,458.9 123.56,458.9 C123.56,458.9 124.07,479.02 125.96,485.71 C127.85,492.4 133.16,511.6 133.16,514.71 C133.16,517.82 138.09,529.63 140.16,530.49 C142.23,531.35 143.28,538.03 143.79,539.23 C144.3,540.43 145.79,556.04 145.79,556.04 C145.79,556.04 165.17,554.84 165.51,551.75 C165.85,548.66 161.22,533.57 161.22,533.57 C161.22,533.57 157.81,527.4 157.37,522.43 C156.93,517.46 154.25,515.2 154.78,511.77 C155.31,508.34 153.23,506.63 153.23,504.4 C153.23,502.17 151.69,496.17 151.69,496.17 C151.69,496.17 148.43,493.59 148.95,490.51 C149.47,487.43 144.32,481.25 145.69,479.02 C147.06,476.79 147.4,471.3 147.4,471.3 C147.4,471.3 149.12,446.61 150.32,439.92 C151.52,433.23 158.55,422.43 158.55,422.43 C158.55,422.43 158.54,422.12 158.52,421.57 Z" id="Path" fill="#000000" opacity="0.1"></path>
            <path d="M157.72,529.93 C153,534.93 146.26,536.01 140.94,535.71 C140.32,533.37 139.42,530.49 138.11,529.95 C136.03,529.09 131.11,517.26 131.11,514.18 C131.11,511.1 125.8,491.88 123.91,485.18 C122.02,478.48 121.51,458.38 121.51,458.38 C121.51,458.38 119.79,428.38 123.74,416.58 C123.74,416.47 123.81,416.35 123.86,416.23 C129.86,398.75 155.74,402.58 156.47,421.05 C156.47,421.6 156.47,421.9 156.47,421.9 C156.47,421.9 149.47,432.7 148.24,439.39 C147.01,446.08 145.34,470.77 145.34,470.77 C145.34,470.77 144.99,476.26 143.62,478.49 C142.25,480.72 147.39,486.9 146.88,489.98 C146.37,493.06 149.62,495.64 149.62,495.64 C149.62,495.64 151.16,501.64 151.16,503.88 C151.16,506.12 153.22,507.82 152.71,511.25 C152.2,514.68 154.94,516.91 155.38,521.88 C155.747391,524.666444 156.536411,527.380811 157.72,529.93 Z" id="Path" fill="#000000" opacity="0.1"></path>
            <path d="M157.49,421.06 C156.76,402.59 130.91,398.77 124.88,416.24 L124.76,416.59 C120.81,428.43 122.53,458.39 122.53,458.39 C122.53,458.39 123.04,478.5 124.93,485.19 C126.82,491.88 132.13,511.09 132.13,514.19 C132.13,517.29 137.06,529.11 139.13,529.97 C141.2,530.83 142.25,537.52 142.76,538.72 C143.27,539.92 144.76,555.52 144.76,555.52 C144.76,555.52 164.14,554.32 164.48,551.24 C164.82,548.16 160.2,533.06 160.2,533.06 C160.2,533.06 156.78,526.88 156.34,521.91 C155.9,516.94 153.16,514.71 153.68,511.28 C154.2,507.85 152.13,506.13 152.13,503.9 C152.13,501.67 150.59,495.67 150.59,495.67 C150.59,495.67 147.33,493.1 147.85,490.01 C148.37,486.92 143.22,480.75 144.59,478.52 C145.96,476.29 146.3,470.81 146.3,470.81 C146.3,470.81 148.02,446.11 149.22,439.42 C150.42,432.73 157.45,421.93 157.45,421.93 C157.45,421.93 157.51,421.61 157.49,421.06 Z" id="Path" fill="#FF748E"></path>
            <path d="M125.66,468.56 C126.17,468.04 135.95,457.24 139.03,461.1 C142.11,464.96 125.66,468.56 125.66,468.56 Z" id="Path" fill="#000000" opacity="0.1"></path>
            <path d="M126.56,476.92 C126.94,476.53 136.33,476.15 138.65,470.92 C140.97,465.69 126.56,476.92 126.56,476.92 Z" id="Path" fill="#000000" opacity="0.1"></path>
            <g id="Group" opacity="0.1" transform="translate(109.000000, 333.000000)" fill="#000000">
                <path d="M6.86,49.08 C7.09093545,49.3524636 7.26440961,49.6687988 7.37,50.01 C7.75306056,48.8274644 7.56459147,47.5340491 6.86,46.51 C6.4,45.98 5.73,45.67 5.31,45.11 C5.31,45.11 5.26,45.02 5.23,44.97 C4.757574,45.8196263 4.78827791,46.8597212 5.31,47.68 C5.78,48.24 6.4,48.56 6.86,49.08 Z" id="Path"></path>
                <path d="M19.95,15.77 C19.95,14.77 19.95,13.77 19.95,12.85 C19.77,9.35 19.12,5.76 18.95,2.25 C18.74,6.55 19.7,11.06 19.95,15.42 C19.95,15.52 19.94,15.63 19.95,15.77 Z" id="Path"></path>
                <path d="M60.03,58.71 C57.65,61.5 55.78,53.47 55.37,50.3 C55.3051247,50.8508904 55.275065,51.4053247 55.28,51.96 C55.34,53.96 57.36,64.41 60.03,61.28 C61.84,59.16 62.03,55.55 61.91,52.22 C61.78,54.77 61.38,57.13 60.03,58.71 Z" id="Path"></path>
                <path d="M57.55,29.94 C57.7534654,31.2848314 57.8770156,32.6405435 57.92,34 C58.0068534,31.7799468 57.8829654,29.5566597 57.55,27.36 C57.42,26.49 57.25,25.61 57.17,24.73 C54.7,29.35 52.41,34.29 47.73,36.32 C44.1,37.89 39.87,37.27 36.14,38.55 C35.4238793,38.7458287 34.7763889,39.137093 34.27,39.68 C33.7074495,40.517715 33.3825886,41.4922976 33.33,42.5 C32.19,49.26 27.95,55.13 22.96,59.83 C20.0161038,63.170236 15.6674965,64.9237665 11.23,64.56 C8.42550527,64.5619446 5.62464926,64.3580636 2.85,63.95 C2.41977011,63.8836184 1.99753544,63.7730331 1.59,63.62 C1.2,64.06 0.79,64.48 0.37,64.89 C0.51,65.95 1.8,66.36 2.85,66.52 C5.62411661,66.9328963 8.42533246,67.1368034 11.23,67.13 C15.6674965,67.4937665 20.0161038,65.740236 22.96,62.4 C27.96,57.7 32.19,51.83 33.33,45.07 C33.3840666,44.0625778 33.7087999,43.0883777 34.27,42.25 C34.7802776,41.7119037 35.4263298,41.3215085 36.14,41.12 C39.87,39.84 44.14,40.47 47.73,38.89 C52.41,36.89 54.73,31.89 57.17,27.31 C57.25,28.18 57.42,29.06 57.55,29.94 Z" id="Path"></path>
                <path d="M87.57,7.59 C87.28,8.89 86.91,10.59 85.8,11.47 C83.92,12.93 83.54,11.27 82.8,9.76 C80.91,5.82 76.05,7.76 72.49,9.63 L70.58,12.08 C69.7130255,13.0967757 68.9834447,14.2230871 68.41,15.43 C68.043816,16.4089392 67.7431523,17.4111513 67.51,18.43 C67.01,20.17 66.29,21.83 65.64,23.52 C63.0548643,30.3068285 61.7265524,37.5074987 61.72,44.77 C61.72,45.1 61.72,45.46 61.72,45.83 C61.8980981,39.0795298 63.2201913,32.4082002 65.63,26.1 C66.28,24.41 67,22.74 67.5,21 C67.7331523,19.9811513 68.033816,18.9789392 68.4,18 C68.9734447,16.7930871 69.7030255,15.6667757 70.57,14.65 L72.48,12.2 C76.04,10.31 80.9,8.39 82.79,12.33 C83.52,13.84 83.9,15.51 85.79,14.04 C86.9,13.17 87.27,11.46 87.56,10.16 C88.3140077,7.14696678 88.6504871,4.04462701 88.56,0.94 C88.3997372,3.17863327 88.0687752,5.40176181 87.57,7.59 Z" id="Path"></path>
            </g>
            <path d="M219.96,437.95 L220.49,438.31 C220.011056,437.991656 219.681993,437.492394 219.578288,436.926731 C219.474583,436.361067 219.605135,435.777542 219.94,435.31 L243.78,400.77 C244.097739,400.304868 244.588271,399.986096 245.142363,399.884669 C245.696455,399.783242 246.2681,399.907582 246.73,400.23 L246.2,399.86 C247.747993,400.929425 248.137314,403.050551 247.07,404.6 L224.7,437.07 C223.630519,438.616415 221.513277,439.00949 219.96,437.95 Z" id="Path" fill="#464353"></path>
            <path d="M233.445305,395.554411 L233.935305,395.554411 L233.935305,441.814411 L233.445305,441.814411 C232.484329,441.814411 231.705305,441.035387 231.705305,440.074411 L231.705305,397.304411 C231.705305,396.343436 232.484329,395.564411 233.445305,395.564411 L233.445305,395.554411 Z" id="Path" fill="#9F9EFF" transform="translate(232.820305, 418.684411) rotate(34.560000) translate(-232.820305, -418.684411) "></path>
            <rect id="Rectangle" fill="#464353" transform="translate(242.401447, 406.723516) rotate(34.560000) translate(-242.401447, -406.723516) " x="242.186447" y="404.838516" width="1" height="3.77" rx="0.17"></rect>
            <path d="M749.4,282 C749.416187,288.98868 745.218765,295.298215 738.766706,297.98389 C732.314648,300.669566 724.879962,299.201908 719.932479,294.265884 C714.984996,289.329861 713.500102,281.898598 716.170809,275.440329 C718.841517,268.98206 725.141301,264.770019 732.13,264.77 C741.652358,264.769974 749.377945,272.477667 749.4,282 Z M730.13,291.14 L742.95,278.33 C743.378189,277.894252 743.378189,277.195748 742.95,276.76 L741.37,275.18 C741.163154,274.96928 740.880276,274.850568 740.585,274.850568 C740.289724,274.850568 740.006846,274.96928 739.8,275.18 L729.35,285.63 L724.47,280.77 C724.030852,280.340614 723.329148,280.340614 722.89,280.77 L721.32,282.35 C721.10928,282.556846 720.990568,282.839724 720.990568,283.135 C720.990568,283.430276 721.10928,283.713154 721.32,283.92 L728.56,291.16 C728.766846,291.37072 729.049724,291.489432 729.345,291.489432 C729.640276,291.489432 729.923154,291.37072 730.13,291.16 L730.13,291.14 Z" id="Shape" fill="#00B5D9" fill-rule="nonzero"></path>
            <path d="M540.19,471.54 C540.19,481.077958 532.457958,488.81 522.92,488.81 C513.382042,488.81 505.65,481.077958 505.65,471.54 C505.65,462.002042 513.382042,454.27 522.92,454.27 C532.457958,454.27 540.19,462.002042 540.19,471.54 Z M520.92,480.68 L533.78,467.87 C533.99131,467.661433 534.110256,467.376904 534.110256,467.08 C534.110256,466.783096 533.99131,466.498567 533.78,466.29 L532.16,464.77 C531.951433,464.55869 531.666904,464.439744 531.37,464.439744 C531.073096,464.439744 530.788567,464.55869 530.58,464.77 L520.13,475.17 L515.25,470.29 C515.043154,470.07928 514.760276,469.960568 514.465,469.960568 C514.169724,469.960568 513.886846,470.07928 513.68,470.29 L512.1,471.86 C511.670614,472.299148 511.670614,473.000852 512.1,473.44 L519.34,480.68 C519.548567,480.89131 519.833096,481.010256 520.13,481.010256 C520.426904,481.010256 520.711433,480.89131 520.92,480.68 Z" id="Shape" fill="#00B5D9" fill-rule="nonzero"></path>
            <path d="M540.19,660.2 C540.19,669.737958 532.457958,677.47 522.92,677.47 C513.382042,677.47 505.65,669.737958 505.65,660.2 C505.65,650.662042 513.382042,642.93 522.92,642.93 C532.457958,642.93 540.19,650.662042 540.19,660.2 Z M520.92,669.34 L533.78,656.53 C533.99131,656.321433 534.110256,656.036904 534.110256,655.74 C534.110256,655.443096 533.99131,655.158567 533.78,654.95 L532.21,653.38 C532.001433,653.16869 531.716904,653.049744 531.42,653.049744 C531.123096,653.049744 530.838567,653.16869 530.63,653.38 L520.18,663.83 L515.3,658.95 C515.093154,658.73928 514.810276,658.620568 514.515,658.620568 C514.219724,658.620568 513.936846,658.73928 513.73,658.95 L512.15,660.52 C511.720614,660.959148 511.720614,661.660852 512.15,662.1 L519.39,669.34 C519.598567,669.55131 519.883096,669.670256 520.18,669.670256 C520.476904,669.670256 520.761433,669.55131 520.97,669.34 L520.92,669.34 Z" id="Shape" fill="#00B5D9" fill-rule="nonzero"></path>
        </g>
    </g>
</svg>