<?xml version="1.0" encoding="UTF-8"?>
<svg width="800px" height="800px" viewBox="0 0 800 800" version="1.1" xmlns="http://www.w3.org/2000/svg" xmlns:xlink="http://www.w3.org/1999/xlink">
    <g id="logo-white-text-vector" stroke="none" stroke-width="1" fill="none" fill-rule="evenodd">
        <rect fill="#FFFFFF" opacity="0" x="0" y="0" width="800" height="800"></rect>
        <g id="logo">
            <rect id="out" stroke="#FFFFFF" stroke-width="60" x="30" y="30" width="740" height="740" rx="157"></rect>
            <path d="M184.96,503.4 C198.400067,503.4 208.599965,502.680007 215.56,501.24 L215.56,453 C213.159988,452.279996 209.680023,451.560004 205.12,450.84 C200.559977,450.119996 195.520028,449.76 190,449.76 C185.199976,449.76 180.340025,450.119996 175.42,450.84 C170.499975,451.560004 166.06002,452.87999 162.1,454.8 C158.13998,456.72001 154.960012,459.419983 152.56,462.9 C150.159988,466.380017 148.96,470.759974 148.96,476.04 C148.96,486.360052 152.199968,493.49998 158.68,497.46 C165.160032,501.42002 173.919945,503.4 184.96,503.4 Z M181.36,341.04 C195.760072,341.04 207.879951,342.839982 217.72,346.44 C227.560049,350.040018 235.419971,355.079968 241.3,361.56 C247.180029,368.040032 251.379987,375.899954 253.9,385.14 C256.420013,394.380046 257.68,404.519945 257.68,415.56 L257.68,529.68 C250.959966,531.120007 240.820068,532.85999 227.26,534.9 C213.699932,536.94001 198.400085,537.96 181.36,537.96 C170.079944,537.96 159.760047,536.880011 150.4,534.72 C141.039953,532.559989 133.060033,529.080024 126.46,524.28 C119.859967,519.479976 114.700019,513.240038 110.98,505.56 C107.259981,497.879962 105.4,488.400056 105.4,477.12 C105.4,466.319946 107.499979,457.200037 111.7,449.76 C115.900021,442.319963 121.599964,436.260023 128.8,431.58 C136.000036,426.899977 144.339953,423.54001 153.82,421.5 C163.300047,419.45999 173.199948,418.44 183.52,418.44 C188.320024,418.44 193.359974,418.739997 198.64,419.34 C203.920026,419.940003 209.55997,420.959993 215.56,422.4 L215.56,415.2 C215.56,410.159975 214.960006,405.360023 213.76,400.8 C212.559994,396.239977 210.460015,392.220017 207.46,388.74 C204.459985,385.259983 200.500025,382.56001 195.58,380.64 C190.659975,378.71999 184.480037,377.76 177.04,377.76 C166.95995,377.76 157.720042,378.479993 149.32,379.92 C140.919958,381.360007 134.080026,383.03999 128.8,384.96 L123.4,349.68 C128.920028,347.75999 136.959947,345.84001 147.52,343.92 C158.080053,341.99999 169.35994,341.04 181.36,341.04 Z M345.16,439.32 C345.16,458.520096 349.719954,473.579945 358.84,484.5 C367.960046,495.420055 380.55992,500.88 396.64,500.88 C403.600035,500.88 409.539975,500.580003 414.46,499.98 C419.380025,499.379997 423.399984,498.720004 426.52,498 L426.52,390 C422.679981,387.359987 417.580032,384.900011 411.22,382.62 C404.859968,380.339989 398.080036,379.2 390.88,379.2 C375.039921,379.2 363.460037,384.599946 356.14,395.4 C348.819963,406.200054 345.16,420.839908 345.16,439.32 Z M470.08,528.24 C461.439957,530.880013 450.580065,533.279989 437.5,535.44 C424.419935,537.600011 410.680072,538.68 396.28,538.68 C381.399926,538.68 368.080059,536.400023 356.32,531.84 C344.559941,527.279977 334.540041,520.740043 326.26,512.22 C317.979959,503.699957 311.620022,493.380061 307.18,481.26 C302.739978,469.139939 300.52,455.520076 300.52,440.4 C300.52,425.519926 302.379981,412.020061 306.1,399.9 C309.820019,387.779939 315.279964,377.400043 322.48,368.76 C329.680036,360.119957 338.439948,353.460023 348.76,348.78 C359.080052,344.099977 370.959933,341.76 384.4,341.76 C393.520046,341.76 401.559965,342.839989 408.52,345 C415.480035,347.160011 421.479975,349.559987 426.52,352.2 L426.52,261.84 L470.08,254.64 L470.08,528.24 Z M525.52,351.84 C533.920042,349.439988 544.839933,347.160011 558.28,345 C571.720067,342.839989 586.599918,341.76 602.92,341.76 C618.280077,341.76 631.119948,343.859979 641.44,348.06 C651.760052,352.260021 659.979969,358.139962 666.1,365.7 C672.220031,373.260038 676.539987,382.379947 679.06,393.06 C681.580013,403.740053 682.84,415.439936 682.84,428.16 L682.84,534 L639.28,534 L639.28,435 C639.28,424.91995 638.620007,416.340035 637.3,409.26 C635.979993,402.179965 633.820015,396.420022 630.82,391.98 C627.819985,387.539978 623.740026,384.30001 618.58,382.26 C613.419974,380.21999 607.120037,379.2 599.68,379.2 C594.159972,379.2 588.40003,379.559996 582.4,380.28 C576.39997,381.000004 571.960014,381.599998 569.08,382.08 L569.08,534 L525.52,534 L525.52,351.84 Z" id="adn" fill="#FFFFFF"></path>
        </g>
    </g>
</svg>