<?xml version="1.0" encoding="UTF-8"?>
<svg width="1036px" height="612px" viewBox="0 0 1036 612" version="1.1" xmlns="http://www.w3.org/2000/svg" xmlns:xlink="http://www.w3.org/1999/xlink">
    <!-- Generator: Sketch 52.6 (67491) - http://www.bohemiancoding.com/sketch -->
    <title>undraw_web_devices_ad58</title>
    <desc>Created with Sketch.</desc>
    <defs>
        <linearGradient x1="50%" y1="100.005469%" x2="50%" y2="-0.00273369574%" id="linearGradient-1">
            <stop stop-color="#808080" stop-opacity="0.25" offset="0%"></stop>
            <stop stop-color="#808080" stop-opacity="0.12" offset="54%"></stop>
            <stop stop-color="#808080" stop-opacity="0.1" offset="100%"></stop>
        </linearGradient>
        <linearGradient x1="49.9980158%" y1="100.011974%" x2="49.9980158%" y2="3.14375538e-06%" id="linearGradient-2">
            <stop stop-color="#808080" stop-opacity="0.25" offset="0%"></stop>
            <stop stop-color="#808080" stop-opacity="0.12" offset="54%"></stop>
            <stop stop-color="#808080" stop-opacity="0.1" offset="100%"></stop>
        </linearGradient>
        <linearGradient x1="50.3333703%" y1="99.9743653%" x2="50.3333703%" y2="-0.248692367%" id="linearGradient-3">
            <stop stop-color="#808080" stop-opacity="0.25" offset="0%"></stop>
            <stop stop-color="#808080" stop-opacity="0.12" offset="54%"></stop>
            <stop stop-color="#808080" stop-opacity="0.1" offset="100%"></stop>
        </linearGradient>
        <linearGradient x1="49.9961829%" y1="99.9999929%" x2="49.9961829%" y2="7.11191695e-06%" id="linearGradient-4">
            <stop stop-color="#808080" stop-opacity="0.25" offset="0%"></stop>
            <stop stop-color="#808080" stop-opacity="0.12" offset="54%"></stop>
            <stop stop-color="#808080" stop-opacity="0.1" offset="100%"></stop>
        </linearGradient>
        <linearGradient x1="50.0023585%" y1="100.026536%" x2="50.0023585%" y2="-0.00215558891%" id="linearGradient-5">
            <stop stop-color="#808080" stop-opacity="0.25" offset="0%"></stop>
            <stop stop-color="#808080" stop-opacity="0.12" offset="54%"></stop>
            <stop stop-color="#808080" stop-opacity="0.1" offset="100%"></stop>
        </linearGradient>
    </defs>
    <g id="Page-1" stroke="none" stroke-width="1" fill="none" fill-rule="evenodd">
        <g id="undraw_web_devices_ad58" transform="translate(-1.000000, 0.000000)">
            <path d="M152.4,0.07 C144.34,-0.16 136.08,0.07 128.52,2.39 C107.95,8.71 98.2,29.39 101.37,47.26 C104.54,65.13 117.58,80.7 131.11,94.93 C144.64,109.16 159.3,123.23 166.72,140.24 C170.42,148.73 172.15,158.24 168.39,166.72 C162.59,179.79 145.1,187.09 128.31,188.61 C111.52,190.13 94.66,187.17 77.81,186.18 C70.74,185.77 63.47,185.72 56.81,187.63 C49.5,189.71 43.41,193.96 37.81,198.39 C15.96,215.77 -1.53,239.48 1.3,264.39 C4.5,292.62 33.04,314.93 64.3,326.9 C74.65,330.9 85.6,334.08 94.71,339.74 C118.71,354.67 124.1,382.67 121.71,407.38 C119.32,432.09 111.18,456.83 115.71,481.32 C121.04,509.81 144.63,535.55 176.45,547.57 C204.8,558.28 240.28,557.57 265.45,542.46 C277.72,535.08 287,524.83 295.07,514.23 C307.052609,498.576268 316.952025,481.432967 324.52,463.23 C328.03,454.74 331.33,445.61 339.52,439.71 C344.52,436.08 351,434.05 357.41,432.47 C376.73,427.71 397.08,426.41 416.58,422.17 C436.08,417.93 455.7,410 466.3,395.9 C481.3,375.9 474.3,350.28 474.37,326.76 C474.49,273.1 513.48,225.07 527.87,172.76 C532.57,155.67 534.32,136.76 523.82,121.51 C516.69,111.16 504.66,103.69 492.02,97.92 C464.21,85.23 432.6,79.58 401.51,74.08 C358.3,66.44 305.83,65.45 272.34,40.73 C240.2,17 196.23,0.07 152.4,0.07 Z" id="Path" fill="#0A3B59"></path>
            <ellipse id="Oval" fill="#F5F5F5" cx="572" cy="487.48" rx="465" ry="124.52"></ellipse>
            <path d="M958.18,186.86 C958.18,186.86 922.35,222.69 942.58,275.86 C962.81,329.03 907.9,417.45 907.9,417.45 C907.9,417.45 908.49,417.36 909.58,417.17 C983.17,404.17 1019.74,320.01 978.82,257.48 C963.61,234.24 951.12,207 958.18,186.86 Z" id="Path" fill="#00B5D9"></path>
            <path d="M958.18,186.86 C958.18,186.86 937.95,230.78 958.18,266.61 C978.41,302.44 961.65,403 907.9,417.45" id="Path" stroke="#535461" stroke-width="2"></path>
            <path d="M1022,331.79 C1022,331.79 981.11,325.28 977.39,361.92 C973.67,398.56 898.77,403.64 898.77,403.64 L900.17,404.57 C962.01,445.16 1021.17,430.43 1012.17,376.57 C1008.9,356.49 1009.17,336.36 1022,331.79 Z" id="Path" fill="#0097B5"></path>
            <path d="M1022,331.79 C1022,331.79 990.26,338.79 992.87,367.61 C995.48,396.43 945.74,431.06 898.77,403.61" id="Path" stroke="#535461" stroke-width="2"></path>
            <path d="M927.37,419.92 L863.13,419.92 C864.608339,416.946742 865.375192,413.670501 865.37,410.35 L865.37,117.79 C865.37,105.910355 855.739645,96.28 843.86,96.28 L346.52,96.28 C340.813461,96.277347 335.339739,98.5424014 331.303668,102.576597 C327.267598,106.610792 324.999999,112.08346 325,117.79 L325,410.36 C324.994808,413.680501 325.761661,416.956742 327.24,419.93 L260.73,419.93 C257.5875,419.93 255.04,422.4775 255.04,425.62 L255.04,430.21 C255.056558,447.771984 269.298008,462.000008 286.86,462 L901.24,462 C918.813701,462 933.06,447.753701 933.06,430.18 L933.06,425.59 C933.048982,422.455313 930.504706,419.919981 927.37,419.92 Z M531.48,438.12 L526,431.87 L662.72,431.87 L656.62,438.13 L531.48,438.12 Z" id="Shape" fill="url(#linearGradient-1)" fill-rule="nonzero"></path>
            <rect id="Rectangle" fill="#535461" x="331.11" y="100.42" width="528.12" height="327.99" rx="23.26"></rect>
            <rect id="Rectangle" fill="#FFFFFF" x="342.22" y="148.23" width="504.77" height="267.95"></rect>
            <circle id="Oval" fill="#FFFFFF" cx="594.61" cy="124.88" r="4.45"></circle>
            <path d="M672.55,416.73 L655.2,434.52 L532.9,434.52 L517.23,416.73 L268.29,416.73 C265.219297,416.73 262.73,419.219297 262.73,422.29 L262.73,426.77 C262.73,443.946056 276.653944,457.87 293.83,457.87 L894.28,457.87 C911.456056,457.87 925.38,443.946056 925.38,426.77 L925.38,422.29 C925.38,419.219297 922.890703,416.73 919.82,416.73 L672.55,416.73 Z" id="Path" fill="#535461"></path>
            <path d="M499.41,157.65 L286.48,157.65 C275.708822,157.638946 266.966557,166.358829 266.95,177.13 L266.95,472.13 C266.966557,482.901171 275.708822,491.621054 286.48,491.61 L499.41,491.61 C510.181178,491.621054 518.923443,482.901171 518.94,472.13 L518.94,177.13 C518.923443,166.358829 510.181178,157.638946 499.41,157.65 Z" id="Path" fill="url(#linearGradient-2)"></path>
            <g id="desktopimage" transform="translate(342.000000, 148.000000)">
                <rect id="Rectangle" fill="#FFFFFF" x="0" y="15" width="505" height="252"></rect>
                <rect id="Rectangle" fill="#EEEEEE" x="0" y="0" width="505" height="24"></rect>
                <circle id="Oval" fill="#FF5252" cx="19" cy="11" r="6"></circle>
                <circle id="Oval" fill="#FFFF00" cx="35" cy="11" r="6"></circle>
                <circle id="Oval" fill="#69F0AE" cx="53" cy="11" r="6"></circle>
                <polygon id="Rectangle" fill="#0097B5" opacity="0.5" points="19 62 207 62 207 70 184.050568 70 19 70"></polygon>
                <rect id="Rectangle" fill="#0097B5" opacity="0.5" x="19" y="77" width="188" height="8"></rect>
                <rect id="Rectangle" fill="#0097B5" opacity="0.5" x="19" y="94" width="188" height="8"></rect>
                <rect id="Rectangle" fill="#0097B5" opacity="0.5" x="84" y="109" width="123" height="8"></rect>
                <rect id="Rectangle" fill="#0097B5" opacity="0.5" x="19" y="124" width="99" height="8"></rect>
                <rect id="Rectangle" fill="#0097B5" opacity="0.5" x="73" y="140" width="76" height="8"></rect>
                <rect id="Rectangle" fill="#0A3B59" opacity="0.5" x="232" y="117" width="221" height="126"></rect>
                <rect id="Rectangle" fill="#EEEEEE" x="259" y="129" width="221" height="126"></rect>
                <path d="M383,256 L260,256 L260,232.2629 C290.052871,217.8578 336.287275,209.76798 383,256 Z" id="Path" fill="#00B5D9"></path>
                <g id="Group" opacity="0.1" transform="translate(324.000000, 221.000000)" fill="#000000">
                    <path d="M155.855364,31.6029412 L155.855364,34.9176471 L0.134304636,34.9176471 L0.134304636,34.2073529 C0.134304636,34.2073529 76.7602649,-40.0955882 155.855364,31.6029412 Z" id="Path"></path>
                </g>
                <path d="M480,252.639129 L480,256 L326,256 L326,255.279813 C326,255.279813 401.779075,179.94203 480,252.639129 Z" id="Path" fill="#00B5D9"></path>
                <ellipse id="Oval" fill="#00B5D9" cx="284.5" cy="152" rx="11.5" ry="11"></ellipse>
                <path d="M381.824983,142.319174 C380.514535,142.319174 379.04931,142.319174 378.058736,142.39651 C377.611147,142.419775 377.169627,142.504459 376.748289,142.647852 L370,144.919599 C375.44816,145.04527 381.133644,145.006602 386.705626,144.919599 L418.011906,144.697257 C421.200317,144.697257 424.564143,144.648922 427.226312,144.465249 C429.01141,144.349245 430.321857,144.165572 431.962496,144.030234 C437.885306,143.537217 446.532196,143.633887 454.250422,143.653221 C461.968648,143.672555 471.286239,143.488882 474,142.763856 L457.438833,142.763856 C455.653735,142.763856 453.775771,142.763856 452.197043,142.676853 C450.350035,142.580183 449.22532,142.386843 447.605318,142.251505 C444.922512,142.03883 441.228495,142.009829 437.782121,142.000162 C418.919933,141.990495 400.274432,142.415844 381.824983,142.319174 Z" id="Path" fill="#F4F4F4"></path>
                <path d="M399.611722,157.246605 C399.31685,157.246605 399.000916,157.246605 398.779762,157.246605 C398.682512,157.254002 398.586817,157.274195 398.495421,157.306605 L397,157.816605 C398.200549,157.816605 399.464286,157.816605 400.696429,157.816605 L407.615385,157.766605 C408.320971,157.766605 409.05815,157.766605 409.647894,157.716605 L410.701007,157.616605 C412.006868,157.506605 413.923535,157.526605 415.629579,157.536605 C417.08969,157.582933 418.551347,157.516044 420,157.336605 L416.335165,157.336605 C415.934982,157.336605 415.524267,157.336605 415.17674,157.336605 C414.829212,157.336605 414.52381,157.266605 414.123626,157.246605 C413.533883,157.246605 412.712454,157.196605 411.954212,157.186605 C407.804945,157.166605 403.687271,157.246605 399.611722,157.246605 Z" id="Path" fill="#F4F4F4"></path>
                <path d="M352.611722,176.245389 C352.31685,176.245389 352.000916,176.245389 351.779762,176.245389 C351.682512,176.252786 351.586817,176.272979 351.495421,176.305389 L350,176.815389 C351.200549,176.815389 352.464286,176.815389 353.696429,176.815389 L360.615385,176.765389 C361.320971,176.765389 362.05815,176.765389 362.647894,176.715389 L363.701007,176.615389 C365.006868,176.505389 366.923535,176.525389 368.629579,176.535389 C370.08969,176.581717 371.551347,176.514829 373,176.335389 L369.335165,176.335389 C368.934982,176.335389 368.524267,176.335389 368.17674,176.335389 C367.829212,176.335389 367.52381,176.265389 367.123626,176.245389 C366.533883,176.245389 365.712454,176.195389 364.954212,176.185389 C360.815476,176.175389 356.687271,176.265389 352.611722,176.245389 Z" id="Path" fill="#F4F4F4"></path>
                <path d="M325.589443,249 L320.177083,249 C320.177083,249 318.473966,190.924816 325.631237,173 L327,173 C327,173 322.183209,238.720936 325.589443,249 Z" id="Path" fill="#00B5D9"></path>
                <path d="M321.195944,169.512585 C321.195944,169.512585 316.896958,181.599475 318.884225,187 C318.884225,187 321.865126,175.921208 325.342844,174.244474 C328.820561,172.567739 332.440226,187 332.440226,187 C332.440226,187 334.46805,177.937404 330.78755,170.541256 C335.443738,173.337561 339.228472,177.409135 341.70738,182.288685 C341.70738,182.288685 342.366423,177.248194 333.768451,166.858612 C333.768451,166.858612 341.382929,168.915955 346.340957,173.575837 C346.340957,173.575837 347.993634,169.882907 337.732846,163.834318 C337.732846,163.834318 339.061071,159.472751 347,161.488947 C347,161.488947 347,155.779821 334.427494,156.787919 C334.427494,156.787919 334.427494,153.094988 342.701014,153.763624 C342.701014,153.763624 342.701014,149.062596 333.099269,150.73933 C333.099269,150.73933 335.127093,147.715036 336.404622,147.0464 C334.748353,146.892006 333.095171,147.372792 331.771045,148.393959 C331.771045,148.393959 332.105635,142.345371 327.137468,140 L326.478425,148.393959 C326.478425,148.393959 320.912049,141.738455 322.179439,143.024294 C322.978386,145.047912 323.324683,147.22621 323.193351,149.402057 C323.193351,149.402057 317.56614,144.701029 310.620844,149.741519 C310.620844,149.741519 319.228955,150.410155 320.547041,153.43445 C320.547041,153.43445 313.267154,152.08689 311.614478,153.094988 C311.614478,153.094988 317.241688,155.152331 316.907097,156.448457 C316.907097,156.448457 306.980901,156.448457 305.652676,160.141388 C305.652676,160.141388 315.913464,161.488947 316.572506,162.486759 C316.572506,162.486759 304.659043,171.220179 304,173.56555 C304,173.56555 316.248055,166.179689 318.194765,166.179689 C320.141476,166.179689 309.262202,176.929306 309.921245,179.614139 C309.951662,179.603852 318.884225,168.833662 321.195944,169.512585 Z" id="Path" fill="#00B5D9"></path>
                <path d="M390.974645,247 L394.873225,247 C394.873225,247 396.091531,202.679916 390.974645,189 L390,189 C390,189 393.401511,239.13938 390.974645,247 Z" id="Path" fill="#00B5D9"></path>
                <path d="M394.797964,186.582569 C394.797964,186.582569 398.095928,195.87156 396.579272,200 C396.579272,200 394.299198,191.505734 391.632326,190.215596 C388.965453,188.925459 386.176434,200 386.176434,200 C386.176434,200 384.649599,193.053899 387.448797,187.387615 C383.876061,189.532199 380.972451,192.65524 379.071561,196.397936 C379.071561,196.397936 378.562616,192.537844 385.178902,184.559633 C385.178902,184.559633 379.336212,186.107798 375.529303,189.720183 C375.529303,189.720183 374.25694,186.892202 382.125231,182.258028 C382.125231,182.258028 381.107341,178.913991 375,180.451835 C375,180.451835 375,176.075688 384.649599,176.849771 C384.649599,176.849771 384.649599,174.021789 378.308143,174.537844 C378.308143,174.537844 378.308143,170.93578 385.667489,172.225917 C384.986287,171.144826 384.129302,170.188624 383.132943,169.397936 C384.402796,169.278523 385.670587,169.646862 386.685379,170.430046 C386.685379,170.430046 386.430907,165.795872 390.237816,164 L390.746761,170.430046 C390.746761,170.430046 395.011721,165.331422 394.044725,166.301606 C393.436299,167.85495 393.175553,169.525881 393.281308,171.193807 C393.281308,171.193807 397.597162,167.591743 402.930907,171.451835 C402.930907,171.451835 396.334978,171.96789 395.317088,174.279817 C395.317088,174.279817 400.905305,173.247706 402.167489,174.021789 C402.167489,174.021789 397.851635,175.569954 398.095928,176.591743 C398.095928,176.591743 405.709747,176.591743 406.727637,179.419725 C406.727637,179.419725 398.859346,180.451835 398.350401,181.225917 C398.350401,181.225917 407.511413,187.913991 408,189.720183 C408,189.720183 398.604874,184.053899 397.088217,184.053899 C395.571561,184.053899 403.938618,192.31078 403.429673,194.375 C403.429673,194.302752 396.579272,186.066514 394.797964,186.582569 Z" id="Path" fill="#00B5D9"></path>
                <path d="M439.586765,238 L441.92436,238 C441.92436,238 442.653085,210.519084 439.586765,202 L439,202 C439,202 441.044213,233.124682 439.586765,238 Z" id="Path" fill="#00B5D9"></path>
                <path d="M441.602092,200.855622 C441.602092,200.855622 443.693725,206.515965 442.731574,209 C442.731574,209 441.277888,203.807959 439.594124,203.024063 C437.910359,202.240167 436.122012,209 436.122012,209 C435.58834,206.410742 435.868977,203.725008 436.927291,201.293383 C434.652388,202.604077 432.803648,204.513118 431.593625,206.801018 C431.593625,206.801018 431.269422,204.439149 435.473606,199.572883 C433.220121,200.182989 431.12691,201.255609 429.334661,202.718649 C429.334661,202.718649 428.529382,200.987969 433.517928,198.157797 C433.517928,198.157797 432.869522,196.121703 429,197.058306 C429,197.058306 429,194.380842 435.138944,194.859324 C435.138944,194.859324 435.138944,193.128644 431.102092,193.444239 C431.102092,193.444239 431.102092,191.245257 435.787351,192.029153 C435.355209,191.367523 434.810587,190.78228 434.176793,190.298473 C434.984278,190.227436 435.789906,190.45254 436.435757,190.929662 C436.356769,189.307487 437.233131,187.782981 438.694721,187 L439.018924,190.929662 C439.018924,190.929662 441.738048,187.814438 441.110558,188.415086 C440.725683,189.362543 440.561382,190.381279 440.629482,191.397964 C442.474031,190.086035 444.995118,190.148747 446.768426,191.550671 C446.768426,191.550671 442.585159,191.866266 441.926295,193.281351 C441.926295,193.281351 445.482072,192.650162 446.287351,193.128644 C446.287351,193.128644 443.536853,194.075428 443.704183,194.696437 C443.704183,194.696437 448.546315,194.696437 449.194721,196.427117 C449.194721,196.427117 444.185259,197.058306 443.861056,197.526608 C443.861056,197.526608 449.675797,201.598797 450,202.718649 C450,202.718649 444.028386,199.257288 443.055777,199.257288 C442.083167,199.257288 447.416833,204.286441 447.092629,205.54882 C447.14492,205.569181 442.783865,200.540028 441.602092,200.855622 Z" id="Path" fill="#00B5D9"></path>
                <path d="M348,206.647411 L347.444986,203.82062 C347.443597,203.401422 347.262359,203.000992 346.943339,202.712274 L344.371063,201.512413 C344.179412,201.292349 344.024601,201.045397 343.912109,200.780294 L343.912109,200.719285 C344.055458,200.549498 344.157523,200.351553 344.210963,200.139691 C344.215524,200.085547 344.215524,200.031142 344.210963,199.976998 C344.71522,200.044991 345.186044,199.722038 345.278297,199.244879 L345.278297,199.183869 C345.176704,199.566158 344.826964,199.841761 344.413756,199.865146 C345.127457,199.409429 345.56197,198.649882 345.577151,197.831484 C345.577151,197.831484 345.577151,197.760306 345.577151,197.729801 C345.807495,197.595017 345.966654,197.373124 346.014758,197.119702 L346.014758,197.058692 C345.950724,197.300666 345.784653,197.506711 345.555804,197.628118 C345.536268,197.394992 345.482372,197.165648 345.395704,196.946841 L345.459744,196.946841 C345.984375,196.946841 346.409672,196.541667 346.409672,196.041861 C346.409672,196.041861 346.409672,196.041861 346.409672,195.980851 C346.375924,196.456686 345.96035,196.825906 345.459744,196.824821 L345.342337,196.824821 C345.91265,196.65042 346.327563,196.180037 346.409672,195.614792 C346.409672,195.614792 346.409672,195.614792 346.409672,195.553782 C346.397265,195.730905 346.330453,195.90064 346.217551,196.041861 C346.294183,195.544862 345.933397,195.082783 345.411714,195.009777 C344.890031,194.936772 344.405001,195.280486 344.328369,195.777485 L344.157596,195.68597 C344.266986,195.311704 344.614915,195.045713 345.022137,195.02503 L344.958097,195.02503 C344.545504,195.016855 344.174569,195.263401 344.040189,195.635128 C342.854602,195.109841 341.443991,195.49566 340.731452,196.540108 C340.528659,196.682465 340.272499,196.885831 340.283172,197.058692 C340.199525,197.13959 340.124449,197.228143 340.059032,197.323068 C339.777256,197.911303 339.673741,198.562879 339.760178,199.204206 C339.836116,199.851369 339.582153,200.494038 339.077084,200.932819 C339.302312,201.023214 339.556296,201.023214 339.781525,200.932819 C340.003216,200.844547 340.211435,200.728263 340.400579,200.587097 C340.575457,200.487392 340.724922,200.351946 340.838186,200.190532 C340.962418,200.267833 341.094771,200.332582 341.2331,200.38373 C341.286466,200.810799 341.29714,201.298878 341.105019,201.451403 L341.105019,201.370057 C340.625848,201.716251 340.028219,201.879441 339.429304,201.827631 C338.709714,201.866743 338.059433,202.249158 337.700223,202.844462 L336.899722,206.10849 L336.899722,206.159332 L336.899722,206.210173 C336.921727,206.301178 336.996317,206.372239 337.091842,206.393203 L337.337329,206.454213 C337.420432,206.973459 337.416829,207.501958 337.326656,208.020133 C337.157848,208.810583 337.061426,209.613507 337.038475,210.419855 C337.102515,210.826587 337.209249,212.921259 337.251942,213.917754 C337.163017,214.253091 337.091772,214.59246 337.038475,214.934585 L335.843061,221.757523 C335.843061,221.757523 334.957173,227.217906 334.999866,228.875341 L334.839766,229.831163 C334.839766,229.831163 332.416917,232.729132 333.132031,233.135864 C333.847145,233.542597 334.935826,233.725626 335.981814,232.180043 C336.121508,231.816809 336.348074,231.489559 336.643561,231.224222 C336.881391,231.025971 337.004534,230.73079 336.974435,230.431093 L336.899722,229.759985 L337.027802,229.759985 L337.102515,229.759985 C337.760674,227.701313 338.119789,225.566469 338.16985,223.414958 C338.16985,223.414958 340.379232,215.910743 342.06562,214.731219 L342.225721,214.660041 L342.588614,221.920216 L342.225721,229.932846 L342.151007,230.410757 C342.151007,230.410757 339.728158,233.308726 340.443272,233.715458 C341.158386,234.122191 342.247067,234.30522 343.293055,232.759637 C343.432749,232.396403 343.659315,232.069153 343.954802,231.803815 C344.192632,231.605565 344.315775,231.310383 344.285676,231.010687 L344.178943,229.993856 C344.595203,228.651638 345.673211,224.757175 345.246277,222.509978 L345.982738,217.720703 C346.729872,216.927574 346.623139,214.90408 346.623139,214.90408 C347.210173,213.744893 347.338253,209.169152 347.338253,209.169152 L347.487679,206.911787 L347.818553,206.911787 L347.93596,206.911787 L347.989327,206.850777 L347.989327,206.799935 L348,206.647411 Z M345.929371,211.23332 C345.865331,211.080795 345.790618,210.918102 345.705231,210.765577 L345.641191,210.765577 L345.641191,210.704567 L345.641191,210.653726 L345.641191,210.592716 C345.674819,210.516559 345.703339,210.438444 345.726578,210.358845 C345.82169,210.212478 345.869912,210.042855 345.865331,209.870766 C345.971654,210.317392 346.007626,210.776606 345.972065,211.23332 L345.929371,211.23332 Z M345.705231,209.30134 L345.555804,207.786262 L345.555804,207.664242 L345.758598,209.586053 L345.705231,209.30134 Z M338.671497,209.504706 C338.571024,209.617278 338.524579,209.764768 338.543417,209.911439 C338.543417,209.911439 338.543417,209.911439 338.543417,209.911439 C338.543065,210.066013 338.564606,210.219926 338.607457,210.369013 L338.372643,211.314666 L338.372643,209.504706 C338.523198,209.313021 338.655368,209.108833 338.767557,208.894608 C338.819365,209.09733 338.80446,209.310329 338.724864,209.504706 L338.671497,209.504706 Z" id="Shape" fill="url(#linearGradient-3)" fill-rule="nonzero"></path>
                <path d="M340.923343,197.601234 C340.659554,198.144323 340.562527,198.745988 340.643228,199.338227 C340.72076,199.938619 340.480413,200.536613 340,200.938603 C340.209176,201.020466 340.444427,201.020466 340.653602,200.938603 C340.861777,200.856324 341.057199,200.748005 341.234582,200.616576 C341.396996,200.522695 341.535198,200.396035 341.639193,200.245758 C341.738907,200.010521 341.771108,199.754757 341.732565,199.50412 C341.734371,199.06247 341.776019,198.621762 341.857061,198.186737 C341.857061,197.913502 342.178674,197.210898 341.857061,197.035247 C341.535447,196.859596 341.068588,197.386549 340.923343,197.601234 Z" id="Path" fill="#72351C"></path>
                <path d="M336.081752,228.172136 L335.848043,229.559353 C335.848043,229.559353 333.410794,232.343912 334.134179,232.728688 C334.857563,233.113463 335.948204,233.295725 336.994329,231.817377 C337.136363,231.470669 337.364947,231.158706 337.662068,230.906067 C337.90048,230.7161 338.024587,230.433803 337.995938,230.146642 L337.762229,228 L336.081752,228.172136 Z" id="Path" fill="#333333"></path>
                <path d="M342.081752,229.172136 L341.848043,230.559353 C341.848043,230.559353 339.410794,233.343912 340.134179,233.728688 C340.857563,234.113463 341.948204,234.295725 342.994329,232.817377 C343.136363,232.470669 343.364947,232.158706 343.662068,231.906067 C343.90048,231.7161 344.024587,231.433803 343.995938,231.146642 L343.762229,229 L342.081752,229.172136 Z" id="Path" fill="#333333"></path>
                <path d="M338.453727,212.612245 C338.453727,212.612245 337.384462,213.367347 336.946063,216.010204 L335.791256,222.602041 C335.373557,224.965163 335.109301,227.350663 335,229.744898 L336.946063,230.377551 C337.593451,228.392832 337.95321,226.332909 338.015328,224.255102 C338.015328,224.255102 340.357019,216.306122 341.992995,215.744898 L342.33516,222.765306 L341.97161,230.683673 L343.639664,231 C343.639664,231 345.329103,225.969388 344.794471,223.306122 L345.660576,217.642857 C346.220562,215.776087 346.084515,213.78173 345.27564,212 L338.453727,212.612245 Z" id="Path" fill="#4D8AF0"></path>
                <path d="M337.000075,207.234414 C336.997117,207.317451 337.082234,207.3903 337.203283,207.408333 C337.769972,207.498015 338.301274,207.668215 338.76121,207.907407 C339.630488,208.361111 337.846774,207 337.846774,207 L337.24844,207.090741 L337.000075,207.234414 Z" id="Path" fill="#F55F44"></path>
                <path d="M337.000075,207.234414 C336.997117,207.317451 337.082234,207.3903 337.203283,207.408333 C337.769972,207.498015 338.301274,207.668215 338.76121,207.907407 C339.630488,208.361111 337.846774,207 337.846774,207 L337.24844,207.090741 L337.000075,207.234414 Z" id="Path" fill="#000000" opacity="0.1"></path>
                <path d="M345,209 C345.541894,208.621926 346.170662,208.379104 346.831224,208.292807 C346.924436,208.292807 347,208.219175 347,208.128344 C346.618552,207.958757 346.180691,207.957164 345.797954,208.123972 C345.415217,208.290779 345.124552,208.609884 345,209 Z" id="Path" fill="#F55F44"></path>
                <path d="M347,208.128344 C346.618552,207.958757 346.180691,207.957164 345.797954,208.123972 C345.415217,208.290779 345.124552,208.609884 345,209 C345,209 346.130802,208.177683 346.915612,208.292807" id="Path" fill="#000000" opacity="0.1"></path>
                <circle id="Oval" fill="#72351C" cx="343.5" cy="198.5" r="2.5"></circle>
                <path d="M341.640094,200.255815 C341.640094,200.255815 341.959777,201.641199 341.640094,201.930236 C341.320411,202.219273 340.69985,202.737546 341.169972,203.146184 C341.640094,203.554823 343.351338,204.242531 343.915485,203.913627 C344.479631,203.584723 345.128399,203.674424 344.97796,202.986716 C344.827521,202.299007 343.586399,202.438542 343.558192,199 L341.640094,200.255815 Z" id="Path" fill="#FDB797"></path>
                <path d="M338.411457,207 C338.464386,207.754423 338.415973,208.512349 338.267447,209.254561 C338.110976,210.003806 338.021492,210.764857 338,211.529162 C338.072005,212.030176 338.226302,215.346885 338.226302,215.346885 C338.226302,215.346885 337.958854,218.252764 339.409242,217.982216 C340.859629,217.711669 339.18294,214.675527 339.18294,214.675527 L339.254945,210.667419 C339.657402,210.149825 339.912841,209.538119 339.995568,208.893831 C340.057287,208.002027 338.411457,207 338.411457,207 Z" id="Path" fill="#000000" opacity="0.1"></path>
                <path d="M338.411457,207 C338.464386,207.754423 338.415973,208.512349 338.267447,209.254561 C338.110976,210.003806 338.021492,210.764857 338,211.529162 C338.072005,212.030176 338.226302,215.346885 338.226302,215.346885 C338.226302,215.346885 337.958854,218.252764 339.409242,217.982216 C340.859629,217.711669 339.18294,214.675527 339.18294,214.675527 L339.254945,210.667419 C339.657402,210.149825 339.912841,209.538119 339.995568,208.893831 C340.067573,208.002027 338.411457,207 338.411457,207 Z" id="Path" fill="#FDB797"></path>
                <path d="M346,207 L345.787311,210.21875 C345.787311,210.21875 345.652981,214.729167 345.059692,215.875 C345.059692,215.875 345.21641,219 343.638035,219 C342.05966,219 343.906695,215.53125 343.906695,215.53125 C343.906695,215.53125 344.75745,212.010417 344.320878,210.885417 L343.906695,207.020833 L346,207 Z" id="Path" fill="#000000" opacity="0.1"></path>
                <path d="M346,207 L345.787311,210.21875 C345.787311,210.21875 345.652981,214.729167 345.059692,215.875 C345.059692,215.875 345.21641,219 343.638035,219 C342.05966,219 343.906695,215.53125 343.906695,215.53125 C343.906695,215.53125 344.75745,212.010417 344.320878,210.885417 L343.906695,207.020833 L346,207 Z" id="Path" fill="#FDB797"></path>
                <path d="M342.929719,204.183526 C342.929719,204.183526 344.074297,204.70625 344.706827,203.197254 L347.046185,204.321604 C347.3347,204.591524 347.497992,204.965806 347.497992,205.35719 L348,208.000399 C347.570313,207.834489 347.090712,207.845571 346.669441,208.031143 C346.248171,208.216715 345.920738,208.561136 345.761044,208.98667 L345.901606,210.475941 C346.015391,210.84365 345.990439,211.239326 345.831325,211.590428 C345.803385,211.653316 345.803385,211.724795 345.831325,211.787683 C345.915676,212.008142 345.886543,212.255038 345.753093,212.450698 C345.619642,212.646358 345.398276,212.766733 345.158635,212.773955 C344.530375,212.779061 343.903155,212.825189 343.281124,212.912033 C342.779116,213.050111 341.273092,212.626014 340.761044,212.912033 C340.248996,213.198052 339.194779,212.695053 339.194779,212.695053 L339.485944,211.491801 C339.485944,211.491801 339.295181,210.900038 339.485944,210.692921 C339.669014,209.83874 339.62755,208.952827 339.365462,208.118751 C339.365462,208.118751 338.502008,207.319871 338,207.457949 L338.722892,204.410369 C339.032338,203.834142 339.626938,203.459725 340.289157,203.424097 C340.830592,203.472604 341.371026,203.321425 341.805221,203 C341.805221,203 341.242972,203.996135 342.929719,204.183526 Z" id="Path" fill="#000000" opacity="0.1"></path>
                <path d="M343.030242,204.252565 C343.342742,204.331467 344.189516,204.430094 344.693548,203.187392 L347.042339,204.311742 C347.332017,204.581662 347.495968,204.955943 347.495968,205.347327 L348,207.990536 C347.568581,207.824627 347.087045,207.835708 346.664076,208.02128 C346.241107,208.206852 345.912354,208.551273 345.752016,208.976808 L345.893145,210.466078 L345.983871,210.76196 C346.068055,211.016391 346.023116,211.294851 345.862903,211.511527 C345.810306,211.596387 345.810306,211.702823 345.862903,211.787683 C345.947594,212.008142 345.918344,212.255038 345.784355,212.450698 C345.650366,212.646358 345.428107,212.766733 345.1875,212.773955 C344.556707,212.779061 343.926958,212.825189 343.302419,212.912033 C342.798387,213.050111 341.28629,212.626014 340.772177,212.912033 C340.258065,213.198052 339.199597,212.695053 339.199597,212.695053 L339.491935,211.491801 C339.491935,211.491801 339.300403,210.900038 339.491935,210.692921 C339.675744,209.83874 339.634112,208.952827 339.370968,208.118751 C339.370968,208.118751 338.504032,207.319871 338,207.457949 L338.725806,204.410369 C339.036501,203.834142 339.633498,203.459725 340.298387,203.424097 C340.842006,203.472604 341.384618,203.321425 341.820565,203 C341.820565,203 341.256048,203.986272 342.747984,204.23284 L343.030242,204.252565 Z" id="Path" fill="#000000" opacity="0.1"></path>
                <path d="M343.050201,204.262428 C343.361446,204.34133 344.204819,204.439957 344.706827,203.197254 L347.046185,204.321604 C347.3347,204.591524 347.497992,204.965806 347.497992,205.35719 L348,208.000399 C347.570313,207.834489 347.090712,207.845571 346.669441,208.031143 C346.248171,208.216715 345.920738,208.561136 345.761044,208.98667 L345.901606,210.475941 C346.015391,210.84365 345.990439,211.239326 345.831325,211.590428 C345.803385,211.653316 345.803385,211.724795 345.831325,211.787683 C345.915676,212.008142 345.886543,212.255038 345.753093,212.450698 C345.619642,212.646358 345.398276,212.766733 345.158635,212.773955 C344.530375,212.779061 343.903155,212.825189 343.281124,212.912033 C342.779116,213.050111 341.273092,212.626014 340.761044,212.912033 C340.248996,213.198052 339.194779,212.695053 339.194779,212.695053 L339.485944,211.491801 C339.485944,211.491801 339.295181,210.900038 339.485944,210.692921 C339.669014,209.83874 339.62755,208.952827 339.365462,208.118751 C339.365462,208.118751 338.502008,207.319871 338,207.457949 L338.722892,204.410369 C339.032338,203.834142 339.626938,203.459725 340.289157,203.424097 C340.830592,203.472604 341.371026,203.321425 341.805221,203 C341.805221,203 341.242972,203.986272 342.728916,204.23284 L343.050201,204.262428 Z" id="Path" fill="#F55F44"></path>
                <path d="M343.843318,199 L342,200.227053 C342.047138,200.437514 342.084052,200.650349 342.110599,200.864734 C342.324836,200.953499 342.553047,200.99938 342.78341,201 C343.242765,200.968579 343.675376,200.762438 344,200.42029 C343.905551,199.953033 343.853094,199.477522 343.843318,199 Z" id="Path" fill="#000000" opacity="0.1"></path>
                <circle id="Oval" fill="#FDB797" cx="342" cy="199" r="2"></circle>
                <circle id="Oval" fill="#72351C" cx="345" cy="197" r="1"></circle>
                <path d="M345,197.84 C344.473852,197.841102 344.036707,197.491386 344,197.04 C344,197.04 344,197.04 344,197.1 C344,197.574965 344.447715,197.96 345,197.96 C345.552285,197.96 346,197.574965 346,197.1 C346,197.1 346,197.1 346,197.04 C345.963293,197.491386 345.526148,197.841102 345,197.84 Z" id="Path" fill="#72351C"></path>
                <path d="M344.833253,197.871042 C344.315486,197.795774 343.958963,197.415539 344.016529,197 L344.016529,197.055598 C343.916651,197.490603 344.279699,197.907548 344.827419,197.986872 C345.375139,198.066196 345.900121,197.777861 346,197.342857 L346,197.287259 C345.867725,197.696898 345.355596,197.953142 344.833253,197.871042 Z" id="Path" fill="#72351C"></path>
                <path d="M343.833253,200.871042 C343.315486,200.795774 342.958963,200.415539 343.016529,200 L343.016529,200.055598 C342.916651,200.490602 343.279699,200.907548 343.827419,200.986872 C344.375139,201.066196 344.900122,200.777861 345,200.342857 L345,200.287259 C344.867725,200.696898 344.355596,200.953142 343.833253,200.871042 Z" id="Path" fill="#72351C"></path>
                <path d="M345,196.84 C344.473852,196.841102 344.036707,196.491386 344,196.04 C344,196.04 344,196.04 344,196.1 C344,196.574965 344.447715,196.96 345,196.96 C345.552285,196.96 346,196.574965 346,196.1 C346,196.1 346,196.1 346,196.04 C345.963293,196.491386 345.526148,196.841102 345,196.84 Z" id="Path" fill="#72351C"></path>
                <path d="M344.15,196.988372 C344.154495,196.46251 344.5085,196.030549 344.96,196 L344.9,196 C344.425035,196 344.04,196.447715 344.04,197 C344.04,197.552285 344.425035,198 344.9,198 L344.96,198 C344.500778,197.96895 344.143875,197.523206 344.15,196.988372 Z" id="Path" fill="#72351C"></path>
                <path d="M344.483691,206 C344.574149,206.488785 344.574149,206.993974 344.483691,207.482759 C344.483691,207.482759 344.363691,208.781609 344.553691,209" id="Path" fill="#000000" opacity="0.1"></path>
                <path d="M339.483691,206 C339.574149,206.488785 339.574149,206.993974 339.483691,207.482759 C339.483691,207.482759 339.363691,208.781609 339.553691,209" id="Path" fill="#000000" opacity="0.1"></path>
                <path d="M339,210.501033 C339.146409,210.565829 339.305972,210.565829 339.452381,210.501033 C339.630984,210.433482 339.821397,210.433482 340,210.501033" id="Path" fill="#000000" opacity="0.1"></path>
                <path d="M340,208.647404 C340.662284,208.681488 341.324354,208.575994 341.945525,208.337404 C341.945525,208.337404 344.319066,208.937404 345,208.507404" id="Path" fill="#000000" opacity="0.1"></path>
                <rect id="Rectangle" fill="#FDB797" x="337" y="219" width="2" height="1" rx="0.42"></rect>
                <polygon id="Path" fill="#F0E4E4" points="337 219.445 338.072848 219.445 339 219.555 338.668874 219.555"></polygon>
                <polygon id="Path" fill="#F0E4E4" points="343 215.465 344.072848 215.465 345 215.535 344.668874 215.535"></polygon>
                <polygon id="Path" fill="#F0E4E4" points="343 215.465 344.072848 215.465 345 215.535 344.668874 215.535"></polygon>
                <polygon id="Path" fill="#F0E4E4" points="343 215.465 344.072848 215.465 345 215.535 344.668874 215.535"></polygon>
                <polygon id="Path" fill="#F0E4E4" points="343 216.465 344.072848 216.465 345 216.535 344.668874 216.535"></polygon>
                <polygon id="Path" fill="#F0E4E4" points="337 220.46 338.072848 220.46 339 220.54 338.668874 220.54"></polygon>
                <polygon id="Path" fill="#F0E4E4" points="337 220.46 338.072848 220.46 339 220.54 338.668874 220.54"></polygon>
                <polygon id="Path" fill="#F0E4E4" points="337 219.46 338.072848 219.46 339 219.54 338.668874 219.54"></polygon>
                <polygon id="Path" fill="#F0E4E4" points="337 219.46 338.072848 219.46 339 219.54 338.668874 219.54"></polygon>
                <polygon id="Path" fill="#F0E4E4" points="337 219.445 338.072848 219.445 339 219.555 338.668874 219.555"></polygon>
                <polygon id="Path" fill="#F0E4E4" points="337 219.445 338.072848 219.445 339 219.555 338.668874 219.555"></polygon>
                <path d="M342.036079,197.881872 C341.931618,198.592159 342.054741,199.310432 342.395751,199.980113 C342.72651,200.634321 342.668586,201.359436 342.235896,201.981213 C342.523139,202.032253 342.826463,201.977862 343.048489,201.835502 C343.276202,201.688585 343.473618,201.51845 343.634621,201.33037 C343.805766,201.176844 343.928553,200.997767 343.994293,200.80581 C344.020391,200.504786 343.956767,200.203212 343.807796,199.921828 C343.628829,199.404484 343.499742,198.878638 343.421482,198.348147 C343.421482,198.027583 343.421482,197.095031 342.928598,197.007604 C342.435714,196.920178 342.129327,197.609877 342.036079,197.881872 Z" id="Path" fill="#000000" opacity="0.1"></path>
                <path d="M342.03584,197.862608 C341.93207,198.572867 342.054379,199.291112 342.393132,199.960766 C342.733583,200.619337 342.680749,201.352675 342.247569,201.981214 C342.53291,202.032251 342.834227,201.977862 343.054784,201.835509 C343.280991,201.688597 343.477101,201.51847 343.637038,201.330397 C343.807051,201.176877 343.929026,200.997807 343.994331,200.805857 C344.020257,200.504846 343.957053,200.203283 343.809068,199.921911 C343.631285,199.404587 343.503052,198.878763 343.42531,198.348293 C343.42531,198.027741 343.42531,197.095227 342.935687,197.007804 C342.446064,196.92038 342.16817,197.590625 342.03584,197.862608 Z" id="Path" fill="#72351C"></path>
                <path d="M342.130934,198.032541 C342.28584,198.225496 342.324567,198.520605 342.460109,198.747612 C342.707994,199.061171 343.06476,199.224292 343.428271,199.190274 C343.522177,199.184515 343.615709,199.208012 343.699356,199.258376 C343.844581,199.37188 343.854262,199.621587 343.951078,199.791842 C344.052097,199.924291 344.196471,200 344.348025,200 C344.499578,200 344.643952,199.924291 344.744971,199.791842 C344.906975,199.519635 344.988578,199.19277 344.97733,198.861115 C345.007557,198.4836 345.007557,198.103596 344.97733,197.726082 C344.968052,197.276847 344.816151,196.847829 344.551339,196.522947 C344.330716,196.332553 344.07561,196.204378 343.805854,196.148386 C343.436364,195.99502 343.038704,195.959761 342.653742,196.046233 C342.467995,196.118909 342.291975,196.222088 342.130934,196.352692 L341.453221,196.886158 C341.201499,197.090464 340.736781,197.499075 341.191817,197.726082 C341.520992,197.805534 341.888894,197.726082 342.130934,198.032541 Z" id="Path" fill="#000000" opacity="0.1"></path>
                <path d="M342.063163,198.054622 C342.218069,198.245412 342.256795,198.537208 342.392338,198.761667 C342.640222,199.071708 342.996989,199.232998 343.3605,199.199362 C343.454405,199.193667 343.547937,199.216901 343.631585,199.2667 C343.776809,199.378929 343.786491,199.625834 343.883307,199.794178 C343.984326,199.92514 344.1287,200 344.280253,200 C344.431807,200 344.576181,199.92514 344.6772,199.794178 C344.871748,199.523181 344.977977,199.181564 344.97733,198.829005 C345.007557,198.455727 345.007557,198.079988 344.97733,197.70671 C344.968052,197.262517 344.816151,196.838314 344.551339,196.517078 C344.330716,196.328821 344.07561,196.202084 343.805854,196.146721 C343.436364,195.995076 343.038704,195.960212 342.653742,196.045714 C342.467995,196.117574 342.291975,196.219596 342.130934,196.348734 L341.453221,196.876212 C341.201499,197.078225 340.736781,197.482251 341.191817,197.70671 C341.453221,197.774048 341.811441,197.774048 342.063163,198.054622 Z" id="Path" fill="#72351C"></path>
                <polygon id="Path" fill="#F0E4E4" points="343 215.465 344.072848 215.465 345 215.535 344.668874 215.535"></polygon>
                <polygon id="Path" fill="#F0E4E4" points="343 215.465 344.072848 215.465 345 215.535 344.668874 215.535"></polygon>
                <polygon id="Path" fill="#F0E4E4" points="343 215.465 344.072848 215.465 345 215.535 344.668874 215.535"></polygon>
                <polygon id="Path" fill="#F0E4E4" points="343 216.465 344.072848 216.465 345 216.535 344.668874 216.535"></polygon>
                <polygon id="Path" fill="#F0E4E4" points="343 225.465 344.072848 225.465 345 225.535 344.668874 225.535"></polygon>
                <polygon id="Path" fill="#F0E4E4" points="343 225.465 344.072848 225.465 345 225.535 344.668874 225.535"></polygon>
                <polygon id="Path" fill="#F0E4E4" points="343 225.465 344.072848 225.465 345 225.535 344.668874 225.535"></polygon>
                <polygon id="Path" fill="#F0E4E4" points="343 225.465 344.072848 225.465 345 225.535 344.668874 225.535"></polygon>
            </g>
            <rect id="Tablette" fill="#535461" x="269.94" y="161.65" width="246" height="327" rx="20"></rect>
            <rect id="Tablette" fill="#FFFFFF" x="282.44" y="192.58" width="221" height="265.14"></rect>
            <g id="tablette-image" transform="translate(290.000000, 210.350000)">
                <polygon id="Rectangle" fill="#0097B5" opacity="0.5" points="14 134 202 134 202 142 179.050568 142 14 142"></polygon>
                <rect id="Rectangle" fill="#0097B5" opacity="0.5" x="14" y="149" width="188" height="8"></rect>
                <rect id="Rectangle" fill="#0097B5" opacity="0.5" x="14" y="166" width="188" height="8"></rect>
                <rect id="Rectangle" fill="#0097B5" opacity="0.5" x="79" y="181" width="123" height="8"></rect>
                <rect id="Rectangle" fill="#0097B5" opacity="0.5" x="14" y="196" width="99" height="8"></rect>
                <rect id="Rectangle" fill="#0097B5" opacity="0.5" x="68" y="212" width="76" height="8"></rect>
                <rect id="Rectangle" fill="#0A3B59" opacity="0.5" x="0" y="0" width="181" height="104"></rect>
                <rect id="Rectangle" fill="#EEEEEE" x="22" y="10" width="181" height="104"></rect>
                <path d="M124,115 L23,115 L23,95.3321174 C47.6775608,83.3964631 85.6423962,76.6934688 124,115 Z" id="Path" fill="#00B5D9"></path>
                <g id="Group" opacity="0.1" transform="translate(316.000000, 207.000000)" fill="#000000">
                    <path d="M155.855364,31.6029412 L155.855364,34.9176471 L0.134304636,34.9176471 L0.134304636,34.2073529 C0.134304636,34.2073529 76.7602649,-40.0955882 155.855364,31.6029412 Z" id="Path"></path>
                </g>
                <path d="M203,112.215278 L203,115 L77,115 L77,114.403274 C77,114.403274 139.001062,51.9805394 203,112.215278 Z" id="Path" fill="#00B5D9"></path>
                <ellipse id="Oval" fill="#00B5D9" cx="43.5" cy="29" rx="9.5" ry="9"></ellipse>
                <path d="M373.824983,128.319174 C372.514535,128.319174 371.04931,128.319174 370.058736,128.39651 C369.611147,128.419775 369.169627,128.504459 368.748289,128.647852 L362,130.919599 C367.44816,131.04527 373.133644,131.006602 378.705626,130.919599 L410.011906,130.697257 C413.200317,130.697257 416.564143,130.648922 419.226312,130.465249 C421.01141,130.349245 422.321857,130.165572 423.962496,130.030234 C429.885306,129.537217 438.532196,129.633887 446.250422,129.653221 C453.968648,129.672555 463.286239,129.488882 466,128.763856 L449.438833,128.763856 C447.653735,128.763856 445.775771,128.763856 444.197043,128.676853 C442.350035,128.580183 441.22532,128.386843 439.605318,128.251505 C436.922512,128.03883 433.228495,128.009829 429.782121,128.000162 C410.919933,127.990495 392.274432,128.415844 373.824983,128.319174 Z" id="Path" fill="#F4F4F4"></path>
                <path d="M391.611722,143.246605 C391.31685,143.246605 391.000916,143.246605 390.779762,143.246605 C390.682512,143.254002 390.586817,143.274195 390.495421,143.306605 L389,143.816605 C390.200549,143.816605 391.464286,143.816605 392.696429,143.816605 L399.615385,143.766605 C400.320971,143.766605 401.05815,143.766605 401.647894,143.716605 L402.701007,143.616605 C404.006868,143.506605 405.923535,143.526605 407.629579,143.536605 C409.08969,143.582933 410.551347,143.516044 412,143.336605 L408.335165,143.336605 C407.934982,143.336605 407.524267,143.336605 407.17674,143.336605 C406.829212,143.336605 406.52381,143.266605 406.123626,143.246605 C405.533883,143.246605 404.712454,143.196605 403.954212,143.186605 C399.804945,143.166605 395.687271,143.246605 391.611722,143.246605 Z" id="Path" fill="#F4F4F4"></path>
                <path d="M344.611722,162.245389 C344.31685,162.245389 344.000916,162.245389 343.779762,162.245389 C343.682512,162.252786 343.586817,162.272979 343.495421,162.305389 L342,162.815389 C343.200549,162.815389 344.464286,162.815389 345.696429,162.815389 L352.615385,162.765389 C353.320971,162.765389 354.05815,162.765389 354.647894,162.715389 L355.701007,162.615389 C357.006868,162.505389 358.923535,162.525389 360.629579,162.535389 C362.08969,162.581717 363.551347,162.514829 365,162.335389 L361.335165,162.335389 C360.934982,162.335389 360.524267,162.335389 360.17674,162.335389 C359.829212,162.335389 359.52381,162.265389 359.123626,162.245389 C358.533883,162.245389 357.712454,162.195389 356.954212,162.185389 C352.815476,162.175389 348.687271,162.265389 344.611722,162.245389 Z" id="Path" fill="#F4F4F4"></path>
                <path d="M76.7909511,109 L72.1517856,109 C72.1517856,109 70.691971,60.8587291 76.8267748,46 L78,46 C78,46 73.8713218,100.479197 76.7909511,109 Z" id="Path" fill="#00B5D9"></path>
                <path d="M73.0757125,43.4508123 C73.0757125,43.4508123 69.5567844,53.4646514 71.1834587,57.93892 C71.1834587,57.93892 73.6234702,48.7602776 76.4701503,47.3711238 C79.3168303,45.9819699 82.2797014,57.93892 82.2797014,57.93892 C82.2797014,57.93892 83.9395732,50.4306712 80.9269059,44.3030539 C84.7382207,46.6197577 87.8362093,49.9930069 89.8653154,54.0356533 C89.8653154,54.0356533 90.4047737,49.8596693 83.3669174,41.2520289 C83.3669174,41.2520289 89.5997359,42.9565121 93.6581223,46.8171667 C93.6581223,46.8171667 95.0109178,43.7576193 86.6119667,38.7464385 C86.6119667,38.7464385 87.6991827,35.132934 94.1975806,36.8033276 C94.1975806,36.8033276 94.1975806,32.0733866 83.9063757,32.9085834 C83.9063757,32.9085834 83.9063757,29.8490359 90.6786525,30.402993 C90.6786525,30.402993 90.6786525,26.5082487 82.8191597,27.8974026 C82.8191597,27.8974026 84.4790315,25.3918122 85.5247507,24.8378551 C84.1690145,24.7099418 82.8158057,25.1082673 81.7319437,25.9542917 C81.7319437,25.9542917 82.0058226,20.9431109 77.9391368,19 L77.3996784,25.9542917 C77.3996784,25.9542917 72.8433305,20.4402884 73.8807503,21.5055904 C74.534727,23.1821328 74.8181881,24.986826 74.7106862,26.7894885 C74.7106862,26.7894885 70.1045421,22.8947442 64.4194813,27.0707282 C64.4194813,27.0707282 71.4656369,27.6246853 72.5445536,30.1302757 C72.5445536,30.1302757 66.5856139,29.0138391 65.2328185,29.8490359 C65.2328185,29.8490359 69.8389626,31.5535192 69.5650837,32.6273436 C69.5650837,32.6273436 61.4400115,32.6273436 60.3527955,35.6868911 C60.3527955,35.6868911 68.7517466,36.8033276 69.2912049,37.630002 C69.2912049,37.630002 59.5394583,44.8655334 59,46.8086443 C59,46.8086443 69.0256254,40.6895494 70.6191023,40.6895494 C72.2125792,40.6895494 63.3073672,49.5954744 63.8468255,51.8198251 C63.8717236,51.8113027 71.1834587,42.8883328 73.0757125,43.4508123 Z" id="Path" fill="#00B5D9"></path>
                <path d="M129.779716,108 L132.89858,108 C132.89858,108 133.873225,71.3213098 129.779716,60 L129,60 C129,60 131.721209,101.494659 129.779716,108 Z" id="Path" fill="#00B5D9"></path>
                <path d="M133.205592,57.7093796 C133.205592,57.7093796 135.905135,65.4051938 134.663678,68.8255557 C134.663678,68.8255557 132.797327,61.7881611 130.614363,60.719298 C128.431399,59.6504349 126.148452,68.8255557 126.148452,68.8255557 C126.148452,68.8255557 124.898664,63.0707968 127.189943,58.3763501 C124.265485,60.1531119 121.88874,62.7405129 120.332769,65.84129 C120.332769,65.84129 119.916173,62.6432516 125.331924,56.0334022 C125.331924,56.0334022 120.5494,57.3160379 117.43326,60.3088546 C117.43326,60.3088546 116.39177,57.9659067 122.832347,54.1265505 C122.832347,54.1265505 121.999154,51.3560573 117,52.6301421 C117,52.6301421 117,49.0045585 124.898664,49.6458764 C124.898664,49.6458764 124.898664,47.3029285 119.707875,47.7304737 C119.707875,47.7304737 119.707875,44.746208 125.731856,45.8150711 C125.174259,44.9194 124.472776,44.1271985 123.657207,43.4721232 C124.696643,43.3731913 125.734392,43.6783554 126.565048,44.3272136 C126.565048,44.3272136 126.35675,40.4878574 129.47289,39 L129.889486,44.3272136 C129.889486,44.3272136 133.380562,40.1030667 132.589029,40.9068518 C132.091002,42.1937784 131.87757,43.5781241 131.964135,44.9599806 C131.964135,44.9599806 135.496871,41.9757148 139.862799,45.1737532 C139.862799,45.1737532 134.463712,45.6012985 133.63052,47.5167011 C133.63052,47.5167011 138.204746,46.6616106 139.237904,47.3029285 C139.237904,47.3029285 135.705169,48.5855642 135.905135,49.4321038 C135.905135,49.4321038 142.137414,49.4321038 142.970606,51.7750517 C142.970606,51.7750517 136.530029,52.6301421 136.113433,53.27146 C136.113433,53.27146 143.612164,58.8124463 144.012097,60.3088546 C144.012097,60.3088546 136.321731,55.6144079 135.080275,55.6144079 C133.838818,55.6144079 140.687659,62.4551317 140.271063,64.1653126 C140.271063,64.1054563 134.663678,57.2818343 133.205592,57.7093796 Z" id="Path" fill="#00B5D9"></path>
                <path d="M170.480295,99.8255557 L172.393731,99.8255557 C172.393731,99.8255557 172.990227,77.0579559 170.480295,70 L170,70 C170,70 171.673287,95.7864149 170.480295,99.8255557 Z" id="Path" fill="#00B5D9"></path>
                <path d="M171.201693,69.3364183 C171.201693,69.3364183 172.89492,73.9676076 172.116036,76 C172.116036,76 170.939243,71.7519667 169.576195,71.1105969 C168.213147,70.4692272 166.765438,76 166.765438,76 C166.333418,73.881516 166.560601,71.6840976 167.417331,69.6945858 C165.575743,70.7669719 164.079143,72.328915 163.099602,74.2008329 C163.099602,74.2008329 162.837151,72.2683943 166.240538,68.2869042 C164.416289,68.7860822 162.721784,69.6636802 161.270916,70.8607126 C161.270916,70.8607126 160.619024,69.4447015 164.657371,67.1291069 C164.657371,67.1291069 164.13247,65.4632115 161,66.2295234 C161,66.2295234 161,64.0388709 165.969622,64.4303563 C165.969622,64.4303563 165.969622,63.0143452 162.701693,63.272559 C162.701693,63.272559 162.701693,61.4733919 166.494522,62.1147617 C166.144693,61.5734278 165.703808,61.0945929 165.190737,60.6987506 C165.844416,60.6406292 166.49659,60.8248057 167.019422,61.2151782 C166.95548,59.887944 167.664915,58.6406206 168.848108,58 L169.110558,61.2151782 C169.110558,61.2151782 171.311753,58.6663582 170.803785,59.1577973 C170.49222,59.9329896 170.359214,60.7665014 170.414343,61.5983341 C171.907549,60.5249374 173.948429,60.5762476 175.383964,61.7232763 C175.383964,61.7232763 171.99751,61.9814901 171.464143,63.1392874 C171.464143,63.1392874 174.342629,62.6228598 174.994522,63.0143452 C174.994522,63.0143452 172.767928,63.7889866 172.903386,64.2970847 C172.903386,64.2970847 176.823207,64.2970847 177.348108,65.7130958 C177.348108,65.7130958 173.292829,66.2295234 173.030378,66.6126793 C173.030378,66.6126793 177.73755,69.9444702 178,70.8607126 C178,70.8607126 173.165837,68.0286904 172.378486,68.0286904 C171.591135,68.0286904 175.908865,72.1434521 175.646414,73.1763073 C175.688745,73.1929662 172.158367,69.0782045 171.201693,69.3364183 Z" id="Path" fill="#00B5D9"></path>
                <path d="M336.483691,192 C336.574149,192.488785 336.574149,192.993974 336.483691,193.482759 C336.483691,193.482759 336.363691,194.781609 336.553691,195" id="Path" fill="#000000" opacity="0.1"></path>
                <path d="M331,196.501033 C331.146409,196.565829 331.305972,196.565829 331.452381,196.501033 C331.630984,196.433482 331.821397,196.433482 332,196.501033" id="Path" fill="#000000" opacity="0.1"></path>
                <polygon id="Path" fill="#F0E4E4" points="329 205.445 330.072848 205.445 331 205.555 330.668874 205.555"></polygon>
                <polygon id="Path" fill="#F0E4E4" points="335 201.465 336.072848 201.465 337 201.535 336.668874 201.535"></polygon>
                <polygon id="Path" fill="#F0E4E4" points="335 201.465 336.072848 201.465 337 201.535 336.668874 201.535"></polygon>
                <polygon id="Path" fill="#F0E4E4" points="335 201.465 336.072848 201.465 337 201.535 336.668874 201.535"></polygon>
                <polygon id="Path" fill="#F0E4E4" points="335 202.465 336.072848 202.465 337 202.535 336.668874 202.535"></polygon>
                <polygon id="Path" fill="#F0E4E4" points="329 206.46 330.072848 206.46 331 206.54 330.668874 206.54"></polygon>
                <polygon id="Path" fill="#F0E4E4" points="329 206.46 330.072848 206.46 331 206.54 330.668874 206.54"></polygon>
                <polygon id="Path" fill="#F0E4E4" points="329 205.46 330.072848 205.46 331 205.54 330.668874 205.54"></polygon>
                <polygon id="Path" fill="#F0E4E4" points="329 205.46 330.072848 205.46 331 205.54 330.668874 205.54"></polygon>
                <polygon id="Path" fill="#F0E4E4" points="329 205.445 330.072848 205.445 331 205.555 330.668874 205.555"></polygon>
                <polygon id="Path" fill="#F0E4E4" points="329 205.445 330.072848 205.445 331 205.555 330.668874 205.555"></polygon>
                <polygon id="Path" fill="#F0E4E4" points="335 201.465 336.072848 201.465 337 201.535 336.668874 201.535"></polygon>
                <polygon id="Path" fill="#F0E4E4" points="335 201.465 336.072848 201.465 337 201.535 336.668874 201.535"></polygon>
                <polygon id="Path" fill="#F0E4E4" points="335 201.465 336.072848 201.465 337 201.535 336.668874 201.535"></polygon>
                <polygon id="Path" fill="#F0E4E4" points="335 202.465 336.072848 202.465 337 202.535 336.668874 202.535"></polygon>
                <polygon id="Path" fill="#F0E4E4" points="335 211.465 336.072848 211.465 337 211.535 336.668874 211.535"></polygon>
                <polygon id="Path" fill="#F0E4E4" points="335 211.465 336.072848 211.465 337 211.535 336.668874 211.535"></polygon>
                <polygon id="Path" fill="#F0E4E4" points="335 211.465 336.072848 211.465 337 211.535 336.668874 211.535"></polygon>
                <polygon id="Path" fill="#F0E4E4" points="335 211.465 336.072848 211.465 337 211.535 336.668874 211.535"></polygon>
            </g>
            <circle id="Oval" fill="#FFFFFF" cx="391.94" cy="176.65" r="3"></circle>
            <circle id="Oval" fill="#FFFFFF" cx="391.94" cy="472.65" r="9"></circle>
            <path d="M337.11,257.65 L227.78,257.65 C224.913008,257.644691 222.161332,258.77851 220.130312,260.802028 C218.099292,262.825547 216.955299,265.573008 216.95,268.44 L216.95,507.86 C216.955299,510.726992 218.099292,513.474453 220.130312,515.497972 C222.161332,517.52149 224.913008,518.655309 227.78,518.65 L337.11,518.65 C339.976992,518.655309 342.728668,517.52149 344.759688,515.497972 C346.790708,513.474453 347.934701,510.726992 347.94,507.86 L347.94,268.44 C347.934701,265.573008 346.790708,262.825547 344.759688,260.802028 C342.728668,258.77851 339.976992,257.644691 337.11,257.65 Z" id="Path" fill="url(#linearGradient-4)"></path>
            <rect id="Rectangle" fill="#535461" x="217.94" y="259.65" width="129" height="258" rx="11"></rect>
            <rect id="Rectangle" fill="#FFFFFF" x="227.44" y="283.65" width="110" height="210"></rect>
            <polygon id="Rectangle" fill="#0097B5" opacity="0.5" points="234 363 331 363 331 369 319.15907 369 234 369"></polygon>
            <polygon id="Rectangle" fill="#0097B5" opacity="0.5" points="235 373 331 373 331 379 319.15907 379 234 379"></polygon>
            <polygon id="Rectangle" fill="#0097B5" opacity="0.5" points="234 383 331 383 331 389 319.15907 389 234 389"></polygon>
            <polygon id="Rectangle" fill="#0097B5" opacity="0.5" points="276 393 331 393 331 399 324.28607 399 276 399"></polygon>
            <polygon id="Rectangle" fill="#0097B5" opacity="0.5" points="234.824742 403 314 403 314 409 304.234284 409 234 409"></polygon>
            <polygon id="Rectangle" fill="#0097B5" opacity="0.5" points="250 413 330 413 330 419 320.234284 419 250 419"></polygon>
            <circle id="Oval" fill="#FFFFFF" cx="269.44" cy="271.65" r="1"></circle>
            <rect id="Rectangle" fill="#FFFFFF" x="274.44" y="270.65" width="22" height="2" rx="1"></rect>
            <g id="Group-2" transform="translate(231.000000, 296.000000)">
                <rect id="Rectangle" fill="#0A3B59" opacity="0.5" x="0" y="0" width="90.9458128" height="52.4521739"></rect>
                <rect id="Rectangle" fill="#EEEEEE" x="11.0541872" y="5.04347826" width="90.9458128" height="52.4521739"></rect>
                <path d="M102,56.5955317 L102,58 L38.6896552,58 L38.6896552,57.6990425 C38.6896552,57.6990425 69.8428979,26.2162721 102,56.5955317 Z" id="Path" fill="#00B5D9"></path>
                <ellipse id="Oval" fill="#00B5D9" cx="21.8571429" cy="14.626087" rx="4.77339901" ry="4.53913043"></ellipse>
                <path d="M38.5846158,54.973913 L36.2536066,54.973913 C36.2536066,54.973913 35.5201037,30.6939677 38.6026159,23.2 L39.1921182,23.2 C39.1921182,23.2 37.11761,50.6764647 38.5846158,54.973913 Z" id="Path" fill="#00B5D9"></path>
                <path d="M36.7178457,21.9143227 C36.7178457,21.9143227 34.9497143,26.9647807 35.7670581,29.2213683 C35.7670581,29.2213683 36.9930737,24.59214 38.4234253,23.8915233 C39.8537768,23.1909066 41.3425101,29.2213683 41.3425101,29.2213683 C41.3425101,29.2213683 42.1765343,25.4345994 40.6627803,22.3441489 C42.5778252,23.5125734 44.13445,25.2138643 45.1540008,27.2527643 C45.1540008,27.2527643 45.4250587,25.1466158 41.8887959,20.8053711 C41.8887959,20.8053711 45.0205569,21.6650235 47.0597462,23.6121363 C47.0597462,23.6121363 47.7394759,22.0690602 43.5193133,19.541682 C43.5193133,19.541682 44.0655992,17.7192189 47.3308041,18.5616783 C47.3308041,18.5616783 47.3308041,16.1761428 42.1598538,16.5973725 C42.1598538,16.5973725 42.1598538,15.0542964 45.5626727,15.3336834 C45.5626727,15.3336834 45.5626727,13.3693776 41.6135679,14.0699943 C41.6135679,14.0699943 42.4475922,12.8063053 42.9730274,12.5269182 C42.2918201,12.4624054 41.6118826,12.6633 41.0672821,13.0899906 C41.0672821,13.0899906 41.2048961,10.5626125 39.1615367,9.5826087 L38.8904788,13.0899906 C38.8904788,13.0899906 36.6010823,10.309015 37.1223475,10.8462978 C37.4509466,11.6918583 37.5933753,12.6020514 37.5393596,13.5112203 C37.5393596,13.5112203 35.2249423,11.5469145 32.3684093,13.6530629 C32.3684093,13.6530629 35.9088422,13.93245 36.4509579,15.196139 C36.4509579,15.196139 33.4568109,14.6330667 32.7770812,15.0542964 C32.7770812,15.0542964 35.0914984,15.9139488 34.9538844,16.4555298 C34.9538844,16.4555298 30.8713358,16.4555298 30.3250499,17.9986059 C30.3250499,17.9986059 34.5452126,18.5616783 34.8162704,18.9786097 C34.8162704,18.9786097 29.9163781,22.6278342 29.6453202,23.607838 C29.6453202,23.607838 34.6828266,20.5216858 35.4834898,20.5216858 C36.2841531,20.5216858 31.8096131,25.0133697 32.080671,26.1352161 C32.0931813,26.1309179 35.7670581,21.6306374 36.7178457,21.9143227 Z" id="Path" fill="#00B5D9"></path>
                <path d="M65.2095125,54.4695652 L66.7766265,54.4695652 C66.7766265,54.4695652 67.2663496,35.9707475 65.2095125,30.2608696 L64.817734,30.2608696 C64.817734,30.2608696 66.1850409,51.1886108 65.2095125,54.4695652 Z" id="Path" fill="#00B5D9"></path>
                <path d="M66.9308884,29.1056001 C66.9308884,29.1056001 68.2873092,32.9869673 67.6635231,34.7120194 C67.6635231,34.7120194 66.7257507,31.1627247 65.628892,30.623646 C64.5320332,30.0845672 63.3849366,34.7120194 63.3849366,34.7120194 C63.3849366,34.7120194 62.756964,31.8096193 63.9082471,29.4419853 C62.4388152,30.3380912 61.2445887,31.6430413 60.4627709,33.2069115 C60.4627709,33.2069115 60.2534467,31.5939878 62.9746612,28.2603246 C62.9746612,28.2603246 60.5716195,28.9072191 59.0058745,30.4166397 C59.0058745,30.4166397 58.482564,29.234979 61.718716,27.2986081 C61.718716,27.2986081 61.3000677,25.9013159 58.7881773,26.5438978 C58.7881773,26.5438978 58.7881773,24.7153426 62.756964,25.0387898 C62.756964,25.0387898 62.756964,23.8571292 60.1487846,24.0727607 C60.1487846,24.0727607 60.1487846,22.5676527 63.1756124,23.1067315 C62.8954407,22.6550017 62.542971,22.2554566 62.1331779,21.9250708 C62.6554562,21.8751748 63.1768864,22.0290836 63.5942608,22.3563338 C63.5942608,22.3563338 63.4895987,20.4199629 65.0553437,19.6695652 L65.2646679,22.3563338 C65.2646679,22.3563338 67.0188046,20.2258945 66.6210886,20.6312818 C66.3708485,21.2803404 66.2636066,21.9785322 66.3071023,22.6754685 C66.3071023,22.6754685 68.0821715,21.1703605 70.275889,22.7832842 C70.275889,22.7832842 67.5630475,22.9989157 67.1443991,23.9649449 C67.1443991,23.9649449 69.4427787,23.5336819 69.9619027,23.8571292 C69.9619027,23.8571292 68.1868336,24.5040237 68.2873092,24.9309741 C68.2873092,24.9309741 71.4187991,24.9309741 71.8374475,26.1126348 C71.8374475,26.1126348 68.6012955,26.5438978 68.3919713,26.867345 C68.3919713,26.867345 72.1598068,29.6619294 72.360758,30.4166397 C72.360758,30.4166397 68.4966334,28.0490057 67.8728473,28.0490057 C67.2490612,28.0490057 70.6903509,31.4991099 70.4810267,32.3616359 C70.4810267,32.3314475 67.6635231,28.8899686 66.9308884,29.1056001 Z" id="Path" fill="#00B5D9"></path>
                <path d="M85.6600499,50.346802 L86.6214804,50.346802 C86.6214804,50.346802 86.9211976,38.8640126 85.6600499,35.3043478 L85.4187192,35.3043478 C85.4187192,35.3043478 86.2594843,48.3096701 85.6600499,50.346802 Z" id="Path" fill="#00B5D9"></path>
                <path d="M86.0225257,34.9696719 C86.0225257,34.9696719 86.8733097,37.3054021 86.4819491,38.3304348 C86.4819491,38.3304348 85.8906541,36.1879484 85.205773,35.864475 C84.5208918,35.5410015 83.7934714,38.3304348 83.7934714,38.3304348 C83.5763972,37.261982 83.6905481,36.1537188 84.1210233,35.1503129 C83.1956935,35.6911684 82.4437075,36.478931 81.951524,37.4230288 C81.951524,37.4230288 81.8196524,36.4484075 83.5297284,34.4403517 C82.6131106,34.692111 81.7616846,35.1347257 81.0326772,35.7384464 C81.0326772,35.7384464 80.7051253,35.0242842 82.7342453,33.8564191 C82.7342453,33.8564191 82.4705022,33.0162284 80.8965517,33.4027161 C80.8965517,33.4027161 80.8965517,32.2978653 83.3936029,32.4953101 C83.3936029,32.4953101 83.3936029,31.781148 81.7515897,31.9113776 C81.7515897,31.9113776 81.7515897,31.0039716 83.657346,31.327445 C83.4815699,31.0544245 83.2600417,30.8129251 83.0022423,30.6132829 C83.3306916,30.5839695 83.6583852,30.6768586 83.921089,30.873742 C83.8889603,30.2043544 84.2454255,29.5752695 84.8399358,29.2521739 L84.9718074,30.873742 C84.9718074,30.873742 86.0778266,29.5882502 85.8225914,29.8361065 C85.6660413,30.227073 85.599211,30.6474529 85.6269111,31.0669859 C86.377192,30.5256206 87.4026589,30.5514988 88.1239623,31.1300002 C88.1239623,31.1300002 86.4223942,31.2602298 86.1543972,31.8441623 C86.1543972,31.8441623 87.6007301,31.5837032 87.9282819,31.781148 C87.9282819,31.781148 86.8095009,32.1718367 86.8775636,32.4280949 C86.8775636,32.4280949 88.8471287,32.4280949 89.1108718,33.142257 C89.1108718,33.142257 87.073244,33.4027161 86.9413724,33.59596 C86.9413724,33.59596 89.3065521,35.2763415 89.4384236,35.7384464 C89.4384236,35.7384464 87.0094352,34.3101221 86.6138206,34.3101221 C86.218206,34.3101221 88.3877053,36.3853932 88.2558338,36.9063115 C88.2771034,36.9147134 86.5032187,34.8394423 86.0225257,34.9696719 Z" id="Path" fill="#00B5D9"></path>
            </g>
            <circle id="Oval" fill="#FFFFFF" cx="281.94" cy="503.65" r="7"></circle>
            <path d="M204.73,536.25 C204.73,536.25 191.47,491.25 207.22,458.11 C213.924463,444.257611 215.952706,428.603643 213,413.5 C211.540175,406.345294 209.428016,399.339355 206.69,392.57" id="Path" stroke="#535461" stroke-width="2"></path>
            <path d="M216.45,371.63 C216.45,377.15 206.45,393.14 206.45,393.14 C206.45,393.14 196.45,377.14 196.45,371.63 C196.45,366.107153 200.927153,361.63 206.45,361.63 C211.972847,361.63 216.45,366.107153 216.45,371.63 Z" id="Path" fill="#06CAF1"></path>
            <path d="M233,402.19 C230,406.82 212.92,414.82 212.92,414.82 C212.92,414.82 213.23,395.96 216.23,391.33 C218.088377,388.152262 221.542385,386.252506 225.221258,386.384673 C228.900132,386.51684 232.208911,388.659555 233.834465,391.962456 C235.460019,395.265357 235.139458,399.194286 233,402.19 Z" id="Path" fill="#06CAF1"></path>
            <path d="M232.24,454.4 C227.31,456.88 208.53,455.17 208.53,455.17 C208.53,455.17 218.32,439.05 223.24,436.57 C228.121099,434.364619 233.873136,436.396741 236.285639,441.178859 C238.698143,445.960977 236.914354,451.794805 232.24,454.41 L232.24,454.4 Z" id="Path" fill="#06CAF1"></path>
            <path d="M222.8,493.79 C218.36,497.07 199.56,498.55 199.56,498.55 C199.56,498.55 206.48,481.01 210.92,477.73 C215.357304,474.769596 221.337079,475.813179 224.50933,480.101592 C227.68158,484.390005 226.929416,490.413377 222.8,493.79 Z" id="Path" fill="#06CAF1"></path>
            <path d="M191.91,415.89 C195.91,419.73 214.3,423.72 214.3,423.72 C214.3,423.72 209.79,405.41 205.83,401.57 C203.310485,398.880969 199.516274,397.795464 195.955774,398.745034 C192.395274,399.694604 189.645512,402.525357 188.79967,406.111915 C187.953827,409.698472 189.148984,413.459583 191.91,415.9 L191.91,415.89 Z" id="Path" fill="#06CAF1"></path>
            <path d="M181.45,462.09 C186.38,464.57 205.16,462.86 205.16,462.86 C205.16,462.86 195.37,446.74 190.45,444.26 C187.242878,442.465688 183.309995,442.575034 180.207525,444.54477 C177.105054,446.514507 175.332946,450.02722 175.592391,453.69299 C175.851837,457.358761 178.101029,460.586866 181.45,462.1 L181.45,462.09 Z" id="Path" fill="#06CAF1"></path>
            <path d="M177.45,508.39 C181.89,511.67 200.69,513.15 200.69,513.15 C200.69,513.15 193.77,495.61 189.33,492.33 C184.892696,489.369596 178.912921,490.413179 175.74067,494.701592 C172.56842,498.990005 173.320584,505.013377 177.45,508.39 Z" id="Path" fill="#06CAF1"></path>
            <path d="M996,393.1 C984.93,379.67 971.52,364.24 973.4,346.37 C974.92,331.9 971.28,318.52 972,304 C973,283.37 968.86,267.22 954,254 C945.32,246.27 930.81,240.2 926.49,241.75 C917.93,244.81 908.59,243.64 899.78,245.75 C893.09,247.31 888.64,249.75 885.88,252.75 C880.33,257.75 880.24,264.75 882.77,272.2 C878.304469,280.378053 877.522021,290.06775 880.617487,298.856357 C883.712954,307.644963 890.395074,314.705539 899,318.28 C892.83,320.86 887.5,326.8 885.42,338.86 C883.974124,347.142179 881.788711,355.278072 878.89,363.17 C877.586967,363.779076 876.251645,364.316543 874.89,364.78 C875.19,364.9 875.5,364.98 875.8,365.09 C875.15,365.34 874.51,365.59 873.8,365.81 C874.982493,366.271853 876.204063,366.626611 877.45,366.87 C869.45,387.08 859.45,399.6 859.45,399.6 C859.45,399.6 840.8,403.72 833.55,396.51 C833.55,396.51 834.73,397.89 836.33,399.96 C829.24,397.02 817.6,392.22 807.65,388.27 C800.43,385.4 798.58,388.27 798.65,392.27 C796.888008,392.491104 795.188016,393.062301 793.65,393.95 C791.517206,392.577522 789.280393,391.373856 786.96,390.35 C782.82,389.35 769.35,382.11 755.88,406.82 C748.04,421.19 727.94,447.42 712.49,466.82 C682.44,480.64 643.32,498.14 628.78,502.54 L619.46,502.54 C618.24,500.54 617.39,499.28 617.39,499.28 L616.67,499.76 L616.36,499.28 C616.36,499.28 598.06,511.95 579.48,512.05 C576.837292,512.013747 574.207195,511.678275 571.64,511.05 C563.1,508.9 557.08,507.94 552.78,508.05 C547.69,507.96 544.78,509.17 543.02,511.45 C542.783507,511.74915 542.566397,512.063124 542.37,512.39 C542.172966,512.71385 541.992728,513.047625 541.83,513.39 C541.67,513.75 541.51,514.13 541.37,514.52 C541.252832,515.224628 541.466784,515.943948 541.95,516.47 C542.199139,516.819704 542.469654,517.153674 542.76,517.47 L543.28,518.03 C545.62,520.45 549.88,523.66 555.18,527.24 C556.71,528.24 558.33,529.34 560.02,530.43 L563.23,532.43 L566.1,534.22 L567.25,534.93 L568.53,535.71 L570.82,537.1 L572.18,537.92 L574.75,539.45 L576.83,540.68 C582.27,543.89 587.69,547 592.58,549.76 L596,551.8 L596.33,551.98 L598.53,553.21 L602.33,555.32 L604.94,556.76 L606.16,557.43 L607.47,558.15 L607.73,558.29 L610.01,559.53 C610.959239,559.689415 611.930768,559.426444 612.67,558.81 C613.33,556.01 614.94,550.01 616.67,549.55 C618.4,549.09 625.89,536 628,527.24 L648.22,527.24 C652.203015,526.899536 656.158613,526.291496 660.06,525.42 C654.84,529.14 649.67,531.48 645.65,530.48 C637.15,528.37 629.1,533.55 628.29,538.66 C628.29,538.77 628.22,538.87 628.19,538.98 C628.16,539.09 628.14,539.19 628.12,539.29 C628.1,539.39 628.06,539.54 628.04,539.67 C628.02,539.8 628.04,539.88 628.04,539.99 C628.04,540.1 628.04,540.24 628.04,540.37 C628.04,540.5 628.04,540.58 628.04,540.68 C628.04,540.78 628.04,540.94 628.04,541.07 C628.04,541.2 628.04,541.27 628.04,541.37 C628.04,541.47 628.1,541.64 628.14,541.78 C628.18,541.92 628.14,541.96 628.21,542.04 C628.273127,542.220733 628.346581,542.397691 628.43,542.57 L628.48,542.7 C628.592142,542.918425 628.719106,543.128917 628.86,543.33 L629.02,543.54 C629.12,543.68 629.23,543.82 629.35,543.95 L629.58,544.18 C629.7,544.3 629.83,544.42 629.96,544.54 L630.24,544.77 L630.69,545.1 L631.02,545.32 L631.56,545.64 L631.92,545.83 L632.6,546.15 L632.94,546.3 C633.3,546.45 633.68,546.59 634.09,546.72 C634.74,546.93 635.51,547.15 636.38,547.37 L637.25,547.58 L638.52,547.87 L639.19,548.02 C640.056667,548.206667 640.976667,548.393333 641.95,548.58 L643.3,548.83 L644.4,549.03 L646.93,549.47 C648.51,549.74 650.16,550.01 651.93,550.27 L656.29,550.93 L661.97,551.74 L663.23,551.91 L665.23,552.19 L668.16,552.58 L670.16,552.84 L675.35,553.5 L676.97,553.7 L680.24,554.1 C684.54,554.62 688.7,555.1 692.53,555.53 L696.96,556.03 L699.2,556.28 L700.2,556.38 L702.88,556.67 L704.37,556.83 L706.21,557.02 L708.8,557.29 L709.08,557.29 L710.74,557.46 C711.160514,557.504903 711.580587,557.371404 711.898029,557.091978 C712.215471,556.812553 712.401188,556.412813 712.41,555.99 C712.41,555.94 712.41,555.88 712.41,555.82 C712.562516,555.588099 712.645769,555.317527 712.65,555.04 C712.693528,552.573487 713.005364,550.119036 713.58,547.72 C713.69,547.31 713.82,546.89 713.96,546.47 L714.12,545.99 C714.3,545.48 714.48,544.99 714.69,544.44 C714.840506,544.067327 714.970697,543.686769 715.08,543.3 C715.08,543.18 715.15,543.06 715.19,542.93 C715.23,542.8 715.29,542.52 715.33,542.31 C717.41,535.2 714.9,521.94 714.18,516.73 C713.949036,515.065539 713.567471,513.425478 713.04,511.83 C713.16969,511.842705 713.30031,511.842705 713.43,511.83 C714.503791,511.435105 715.514385,510.886015 716.43,510.2 C731.71,504.75 744.59,498.52 748.66,492.28 C755.251434,490.540141 762.251734,491.272896 768.34,494.34 C776.25,498.27 836.09,517.8 863.95,526.82 C868.95,531.13 872.87,533.65 875.04,533.46 C875.04,533.46 910.51,539.2 924.77,528 C926.04,528.88 926.84,529.35 926.84,529.35 C926.84,529.35 947.56,519.06 950.67,505.67 C951.67,501.33 952.58,494.93 953.51,487.85 C958.316683,483.006996 961.018927,476.463399 961.03,469.64 C961.68,447.16 970.39,421.48 976.85,398.64 C984.69,399.26 987.72,397.78 994.91,394.23 L994.59,393.82 C995.1,393.52 995.55,393.32 996,393.1 Z M877.21,426.77 L873.21,425.44 C874.551673,423.64861 875.707624,421.725375 876.66,419.7 L877.21,426.77 Z M854.92,436.23 L878.92,450.63 L879.13,453.56 C878.837509,455.789637 878.905036,458.05178 879.33,460.26 C868.75,450.86 856.37,439.45 854.91,436.22 L854.92,436.23 Z M845.12,415.23 C842.5,414.15 840.33,413.17 838.84,412.36 C840.84,412.5 842.74,412.62 844.4,412.71 C844.728062,413.522305 844.969401,414.366991 845.12,415.23 Z M780.84,438.7 C780.84,438.7 784.98,429.44 794.31,444.88 C795.76,447.28 798.43,451.1 801.96,455.83 L774.8,452.2 C778,447.24 780.15,442.63 780.84,438.71 L780.84,438.7 Z" id="Shape" fill="url(#linearGradient-5)" fill-rule="nonzero"></path>
            <path d="M840.5,401.5 C840.5,401.5 821.5,393.5 806.5,387.5 C791.5,381.5 800.5,401.5 800.5,401.5 C800.5,401.5 825.5,408.5 825.5,409.5 C825.5,410.5 846.5,411.5 846.5,411.5 L840.5,401.5 Z" id="Path" fill="#F7C4A7"></path>
            <path d="M840.5,401.5 C840.5,401.5 821.5,393.5 806.5,387.5 C791.5,381.5 800.5,401.5 800.5,401.5 C800.5,401.5 825.5,408.5 825.5,409.5 C825.5,410.5 846.5,411.5 846.5,411.5 L840.5,401.5 Z" id="Path" fill="#000000" opacity="0.05"></path>
            <path d="M921.5,322.5 C921.5,322.5 887.5,304.5 881.5,339.5 C875.5,374.5 856.5,398.5 856.5,398.5 C856.5,398.5 838.5,402.5 831.5,395.5 C831.5,395.5 848.5,415.5 840.5,417.5 C840.5,417.5 858.5,430.5 866.5,426.5 C874.5,422.5 880.5,395.5 883.5,388.5 C886.5,381.5 897.5,320.5 921.5,322.5 Z" id="Path" fill="#06293F"></path>
            <path d="M902.5,310.5 C902.5,310.5 923.5,334.5 924.5,354.5 C925.5,374.5 948.5,333.5 950.5,332.5 C952.5,331.5 930.5,297.5 928.5,286.5 C926.5,275.5 902.5,310.5 902.5,310.5 Z" id="Path" fill="#F7C4A7"></path>
            <polygon id="Path" fill="#F7C4A7" points="917 320.75 903.75 332.75 910 358 927 342 925 326"></polygon>
            <polygon id="Path" fill="#F7C4A7" points="640.5 498.5 617.5 498.5 626.5 520.5 648.5 514.5"></polygon>
            <path d="M622.82,495.33 C622.82,495.33 599,511.92 578.65,506.76 C558.3,501.6 552.77,503.53 550.4,510.19 C548.21,516.32 607.24,548.74 616.65,553.86 C616.945858,554.021998 617.300415,554.036465 617.608488,553.899108 C617.91656,553.76175 618.142766,553.488345 618.22,553.16 C618.86,550.44 620.41,544.61 622.07,544.16 C624.23,543.58 634.07,525.16 633.53,517.92 C632.99,510.68 622.82,495.33 622.82,495.33 Z" id="Path" fill="#000000" opacity="0.1"></path>
            <path d="M621.82,495.33 C621.82,495.33 598,511.92 577.65,506.76 C557.3,501.6 551.77,503.53 549.4,510.19 C547.21,516.32 606.24,548.74 615.65,553.86 C615.945858,554.021998 616.300415,554.036465 616.608488,553.899108 C616.91656,553.76175 617.142766,553.488345 617.22,553.16 C617.86,550.44 619.41,544.61 621.07,544.16 C623.23,543.58 633.07,525.16 632.53,517.92 C631.99,510.68 621.82,495.33 621.82,495.33 Z" id="Path" fill="#F3B5B7"></path>
            <path d="M818.5,455.5 L751.5,446.5 C751.5,446.5 642.5,498.5 629.5,499.5 L632.5,522.5 L652.5,522.5 C660.5,522.5 738.5,505.5 749.5,488.5 C755.863829,486.808048 762.627949,487.520061 768.5,490.5 C778.5,495.5 874.5,526.5 874.5,526.5 L818.5,455.5 Z" id="Path" fill="#06293F"></path>
            <path d="M818.5,455.5 L751.5,446.5 C751.5,446.5 642.5,498.5 629.5,499.5 L632.5,522.5 L652.5,522.5 C660.5,522.5 738.5,505.5 749.5,488.5 C755.863829,486.808048 762.627949,487.520061 768.5,490.5 C778.5,495.5 874.5,526.5 874.5,526.5 L818.5,455.5 Z" id="Path" fill="#000000" opacity="0.1"></path>
            <polygon id="Path" fill="#F7C4A7" points="699.5 486.5 688.5 500.5 699.5 506.5 715.5 494.5"></polygon>
            <path d="M890.5,470.5 C890.5,470.5 854.5,439.68 852.01,434.09 C849.52,428.5 790.5,390.5 786.5,389.5 C782.5,388.5 769.5,381.5 756.5,405.5 C743.5,429.5 695.5,487.5 695.5,487.5 C695.5,487.5 710.5,508.5 715.5,507.5 C720.5,506.5 776.5,459.5 780.5,436.5 C780.5,436.5 784.5,427.5 793.5,442.5 C802.5,457.5 860.5,529.5 871.5,528.5 C871.5,528.5 914.5,535.5 923.5,518.5 C932.5,501.5 890.5,470.5 890.5,470.5 Z" id="Path" fill="#06293F"></path>
            <path d="M911,324 C911,324 898.5,329.5 897.5,352.5 C896.5,375.5 874.5,414.5 874.5,414.5 L876.5,460.5 C876.5,460.5 900.5,484.5 902.5,499.5 C904.5,514.5 921.5,524.5 921.5,524.5 C921.5,524.5 941.5,514.5 944.5,501.5 C947.5,488.5 949.5,456.5 954.5,444.5 C959.5,432.5 956.5,357.5 956.5,357.5 L941.5,331.5 L933.5,322.5 L912.5,346.5 C912.5,346.5 901,331 911,324 Z" id="Path" fill="#DDDBE2"></path>
            <path d="M881.5,445.5 C881.5,445.5 878.5,409.5 887.5,401.5 L905.5,350.5 C905.5,350.5 912,326 911,324 C910,322 887.5,343.5 887.5,343.5 L872.5,396.5 L876.5,452.5 L881.5,445.5 Z" id="Path" fill="#000000" opacity="0.1"></path>
            <path d="M880.5,445.5 C880.5,445.5 877.5,409.5 886.5,401.5 L904.5,350.5 C904.5,350.5 911.5,325.5 910.5,323.5 C909.5,321.5 886.5,343.5 886.5,343.5 L871.5,396.5 L875.5,452.5 L880.5,445.5 Z" id="Path" fill="#07334E"></path>
            <path d="M887.5,429.5 C887.5,429.5 837.5,413.5 834.5,409.5 C831.5,405.5 799.5,379.5 788.5,397.5 C777.5,415.5 829.5,420.5 829.5,420.5 L882.5,452.5 L887.5,429.5 Z" id="Path" fill="#F7C4A7"></path>
            <path d="M701.67,500.41 L686.87,497.75 C686.87,497.75 662.63,528.8 650,525.65 C637.37,522.5 625.75,536.09 639.09,540.45 C651.14,544.39 703.18,549.9 713.09,550.92 C713.495601,550.961994 713.900282,550.832451 714.206099,550.562724 C714.511915,550.292998 714.690996,549.90767 714.7,549.5 C714.776129,545.634856 715.55551,541.815886 717,538.23 C719.67,531.68 717,517.61 716.26,512.23 C715.85224,509.076456 714.865703,506.025309 713.35,503.23 L701.67,500.41 Z" id="Path" fill="#000000" opacity="0.1"></path>
            <path d="M701.42,501.38 L686.62,498.72 C686.62,498.72 662.38,529.77 649.77,526.63 C637.16,523.49 625.52,537.07 638.86,541.43 C650.91,545.37 702.95,550.88 712.86,551.9 C713.265601,551.941994 713.670282,551.812451 713.976099,551.542724 C714.281915,551.272998 714.460996,550.88767 714.47,550.48 C714.518674,546.6238 715.267499,542.808521 716.68,539.22 C719.35,532.67 716.68,518.6 715.94,513.22 C715.53224,510.066456 714.545703,507.015309 713.03,504.22 L701.42,501.38 Z" id="Path" fill="#F3B5B7"></path>
            <circle id="Oval" fill="#000000" opacity="0.1" cx="910" cy="290" r="32"></circle>
            <circle id="Oval" fill="#F7C4A7" cx="907" cy="290" r="32"></circle>
            <path d="M938.5,321.5 C938.5,321.5 976.5,334.5 976.5,361.5 C976.5,388.5 955.5,431.5 954.5,466.5 C953.5,501.5 898.5,496.5 898.5,496.5 C898.5,496.5 890.5,378.5 898.5,369.5 C906.5,360.5 942.5,325.5 938.5,321.5 Z" id="Path" fill="#07334E"></path>
            <path d="M931.5,377.5 C931.5,377.5 917.5,439.5 884.5,428.5 C884.5,428.5 867.5,453.5 879.5,464.5 C879.5,464.5 908.5,471.5 927.5,452.5 C946.5,433.5 960.5,426.5 963.5,403.5 C966.5,380.5 968.5,348.5 958.5,351.5 C948.5,354.5 931.5,377.5 931.5,377.5 Z" id="Path" fill="#000000" opacity="0.1"></path>
            <path d="M932.5,376.5 C932.5,376.5 918.5,438.5 885.5,427.5 C885.5,427.5 868.5,452.5 880.5,463.5 C880.5,463.5 909.5,470.5 928.5,451.5 C947.5,432.5 961.5,425.5 964.5,402.5 C967.5,379.5 969.5,347.5 959.5,350.5 C949.5,353.5 932.5,376.5 932.5,376.5 Z" id="Path" fill="#06293F"></path>
            <path d="M717.54,536 C717.54,536.09 717.48,536.2 717.45,536.28 C716.761306,537.989978 716.235639,539.761175 715.88,541.57 C716.12,540.79 716.4,539.99 716.72,539.19 C717.113442,538.16121 717.388545,537.090993 717.54,536 Z" id="Path" fill="#DDDBE2"></path>
            <path d="M639.59,538.51 C635.47,537.16 633.74,534.94 633.67,532.6 C631.97,535.86 633.04,539.52 638.86,541.42 C650.91,545.36 702.96,550.87 712.86,551.89 C713.267302,551.932117 713.67357,551.801257 713.97972,551.529335 C714.285869,551.257413 714.463758,550.869426 714.47,550.46 C714.48486,549.699113 713.916527,549.052688 713.16,548.97 C702.3,547.81 651.48,542.39 639.59,538.51 Z" id="Path" fill="#DDDBE2"></path>
            <path d="M550.78,508.43 C551.045197,507.693157 551.380046,506.983278 551.78,506.31 C550.702516,507.40059 549.897394,508.729897 549.43,510.19 C547.24,516.32 606.27,548.74 615.68,553.86 C615.977255,554.021929 616.333234,554.035123 616.64166,553.895643 C616.950087,553.756164 617.175277,553.480148 617.25,553.15 C617.364329,552.676234 617.147189,552.184596 616.72,551.95 C606.32,546.26 548.62,514.49 550.78,508.43 Z" id="Path" fill="#DDDBE2"></path>
            <path d="M622.44,542.41 C621.91,542.55 621.39,543.26 620.9,544.23 L621.06,544.17 C621.5,544.05 622.25,543.17 623.16,541.87 C622.965648,542.103951 622.719012,542.288928 622.44,542.41 Z" id="Path" fill="#DDDBE2"></path>
            <path d="M902.56,318.17 C899.74,324.39 899.15,331.4 897.08,337.92 C892.97,350.85 882.66,361.55 870.31,365.68 C880.7,369.82 892.96,364.76 900.99,356.36 C909.02,347.96 913.73,336.78 918.24,325.9 C929.9,333.74 928.48,351.76 932.4,365.79 C935.803885,378.140531 944.394442,388.409075 955.95,393.94 C967.47574,399.111691 980.712946,398.84379 992.02,393.21 C981.33,380.21 966.11,362.28 967.92,344.92 C969.39,330.86 959.3,320.12 959.99,306.01 C960.99,286.01 953.33,275.85 938.99,263.01 C930.61,255.5 943.8,244.91 932.99,248.01 C928.74,249.23 924.26,244.68 920.09,246.18 C911.83,249.18 902.81,248.02 894.31,250.02 C850.13,260.4 906.68,309.09 902.56,318.17 Z" id="Path" fill="#000000" opacity="0.1"></path>
            <path d="M903.56,317.17 C900.74,323.39 900.15,330.4 898.08,336.92 C893.97,349.85 883.66,360.55 871.31,364.68 C881.7,368.82 893.96,363.76 901.99,355.36 C910.02,346.96 914.73,335.78 919.24,324.9 C930.9,332.74 929.48,350.76 933.4,364.79 C936.803885,377.140531 945.394442,387.409075 956.95,392.94 C968.47574,398.111691 981.712946,397.84379 993.02,392.21 C982.33,379.21 968.11,364.28 969.92,346.92 C971.39,332.86 969.2,318.41 969.92,304.31 C970.92,284.31 961.11,264.99 946.76,252.15 C938.38,244.64 925.29,243.68 921.11,245.15 C912.85,248.15 903.83,246.99 895.33,248.99 C851.13,259.4 907.68,308.09 903.56,317.17 Z" id="Path" fill-opacity="0.936226223" fill="#2E1507"></path>
            <rect id="Rectangle" fill="#7FCBDA" x="251" y="437" width="62" height="18" rx="5"></rect>
        </g>
    </g>
</svg>